<svg width="120" height="120" viewBox="0 0 120 120" fill="none" xmlns="http://www.w3.org/2000/svg">
<g clip-path="url(#clip0_352_32)">
<path d="M13.1257 113.409H13.4273V114.609H12.8256V114.009H10.7189V114.609H10.1172V113.409H10.4188V111.858C10.4188 111.26 10.7203 110.958 11.322 110.958H12.2253C12.827 110.958 13.1286 111.258 13.1286 111.858V113.409H13.1257ZM12.524 113.409V111.858C12.524 111.658 12.423 111.558 12.2225 111.558H11.3192C11.1186 111.558 11.0176 111.658 11.0176 111.858V113.409H12.524ZM19.7473 111.008H18.2424C17.817 111.008 17.5169 111.308 17.3391 111.908C17.3092 112.109 17.1087 112.809 16.7374 114.009H17.3491L17.9408 111.908C17.9934 111.708 18.0944 111.608 18.2424 111.608H19.1442V114.008H19.7459V111.008H19.7473ZM23.0574 111.908V112.208C23.0574 112.807 23.3576 113.109 23.9607 113.109L23.0574 114.009H23.9095L24.8127 113.109H25.4643V114.009H26.0659V111.008H23.9593C23.359 111.008 23.0574 111.308 23.0574 111.908ZM23.6592 111.908C23.6592 111.708 23.7587 111.608 23.9607 111.608H25.4658V112.508H23.9607C23.7601 112.508 23.6592 112.409 23.6592 112.208V111.908ZM39.2197 112.503C39.3463 112.379 39.4103 112.18 39.4103 111.902C39.4074 111.305 39.1059 111.008 38.507 111.008H36.4003V114.008H38.507C39.1087 114.008 39.4103 113.708 39.4103 113.107C39.4103 112.836 39.3463 112.634 39.2197 112.503ZM38.507 112.208H37.0019V111.608H38.507C38.7076 111.608 38.8086 111.708 38.8086 111.908C38.8086 112.109 38.7076 112.208 38.507 112.208ZM38.507 113.409H37.0019V112.809H38.507C38.7076 112.809 38.8086 112.91 38.8086 113.109C38.8086 113.309 38.7076 113.409 38.507 113.409ZM45.7303 114.009H43.6237C43.022 114.009 42.7204 113.709 42.7204 113.109V111.908C42.7204 111.308 43.022 111.008 43.6237 111.008H45.7303V111.608H43.6237C43.4231 111.608 43.3235 111.708 43.3235 111.908V113.109C43.3235 113.309 43.4231 113.409 43.6237 113.409H45.7303V114.009ZM52.0504 111.608H49.6422V112.208H51.4473V112.807H49.6422V113.407H52.0504V114.008H49.0404V111.008H52.0504V111.608ZM55.3604 114.009L56.4898 112.508L55.3604 111.008H56.113L56.8655 112.008L57.618 111.008H58.3705L57.2424 112.508L58.3705 114.009H57.618L56.8655 113.009L56.113 114.009H55.3604ZM71.5625 114.009H70.9606V112.809H69.1557V114.009H68.5538V111.008H69.1557V112.208H70.9606V111.008H71.5625V114.009ZM77.8826 114.009H77.2808V113.409H75.4756V114.009H74.8739V111.858C74.8739 111.26 75.1754 110.958 75.7771 110.958H76.9807C77.5824 110.958 77.884 111.258 77.884 111.858V114.009H77.8826ZM77.2808 112.809V111.858C77.2808 111.658 77.1798 111.558 76.9793 111.558H75.7759C75.5753 111.558 75.4756 111.658 75.4756 111.858V112.809H77.2808ZM84.2026 111.908V112.208C84.2026 112.807 83.9009 113.109 83.2992 113.109H81.7944V114.009H81.1926V111.008H83.2992C83.9023 111.008 84.2026 111.308 84.2026 111.908ZM83.6008 111.908C83.6008 111.708 83.5012 111.608 83.2992 111.608H81.7944V112.508H83.2992C83.4998 112.508 83.6008 112.409 83.6008 112.208V111.908ZM90.5225 113.159C90.5225 113.757 90.2211 114.059 89.6194 114.059H88.416C87.8143 114.059 87.5126 113.759 87.5126 113.159V111.857C87.5126 111.258 87.8143 110.957 88.416 110.957H89.6194C90.2211 110.957 90.5225 111.257 90.5225 111.857V113.159ZM89.921 113.159V111.857C89.921 111.656 89.8214 111.557 89.6194 111.557H88.416C88.2154 111.557 88.1144 111.656 88.1144 111.857V113.159C88.1144 113.358 88.2154 113.459 88.416 113.459H89.6194C89.8214 113.459 89.921 113.358 89.921 113.159ZM96.8427 113.409H97.1443V114.609H96.5426V114.009H94.4359V114.609H93.8342V113.409H94.1358V111.858C94.1358 111.26 94.4358 110.958 95.0375 110.958H95.9407C96.5424 110.958 96.8427 111.258 96.8427 111.858V113.409ZM96.241 113.409V111.858C96.241 111.658 96.14 111.558 95.9395 111.558H95.036C94.8355 111.558 94.7345 111.658 94.7345 111.858V113.409H96.241ZM103.464 113.159C103.464 113.757 103.163 114.059 102.561 114.059H101.358C100.756 114.059 100.454 113.759 100.454 113.159V111.857C100.454 111.258 100.756 110.957 101.358 110.957H102.561C103.163 110.957 103.464 111.257 103.464 111.857V113.159ZM102.862 113.159V111.857C102.862 111.656 102.762 111.557 102.561 111.557H101.358C101.157 111.557 101.056 111.656 101.056 111.857V113.159C101.056 113.358 101.156 113.459 101.358 113.459H102.561C102.762 113.459 102.862 113.358 102.862 113.159ZM109.594 112.503C109.72 112.379 109.784 112.18 109.784 111.902C109.782 111.305 109.48 111.008 108.881 111.008H106.774V114.008H108.881C109.483 114.008 109.784 113.708 109.784 113.107C109.784 112.836 109.72 112.634 109.594 112.503ZM108.881 112.208H107.376V111.608H108.881C109.082 111.608 109.183 111.708 109.183 111.908C109.183 112.109 109.082 112.208 108.881 112.208ZM108.881 113.409H107.376V112.809H108.881C109.082 112.809 109.183 112.91 109.183 113.109C109.183 113.309 109.082 113.409 108.881 113.409Z" fill="url(#paint0_linear_352_32)"/>
<path d="M20.6116 105.265H13.1948C11.0754 105.265 10.0156 104.205 10.0156 102.086V97.8468C10.0156 95.7287 11.0754 94.6689 13.1948 94.6689H20.6116V96.787H13.1948C12.4879 96.787 12.1351 97.1398 12.1351 97.8468V102.086C12.1351 102.793 12.4879 103.145 13.1948 103.145H20.6116V105.265ZM27.4993 105.265V99.4371H25.5577C25.0285 99.4371 24.7042 99.7614 24.5861 100.409L23.6145 105.265H21.724L22.6429 100.409C22.9018 98.4655 23.8734 97.494 25.5562 97.494H29.4424V105.265H27.4993ZM38.2732 102.528C38.2732 104.471 37.3016 105.443 35.3585 105.443H33.4154C31.4723 105.443 30.5022 104.471 30.5022 102.528V100.232C30.5022 98.2891 31.4737 97.3176 33.4154 97.3176H35.3585C37.3016 97.3176 38.2732 98.2891 38.2732 100.232V102.528ZM36.3301 102.528V100.232C36.3301 99.5836 36.0057 99.2607 35.3585 99.2607H33.4154C32.7682 99.2607 32.4439 99.585 32.4439 100.232V102.528C32.4439 103.177 32.7682 103.5 33.4154 103.5H35.3585C36.0057 103.498 36.3301 103.175 36.3301 102.528ZM46.431 101.362C46.8791 100.926 47.1025 100.456 47.1025 99.9492C47.0911 98.3133 46.2788 97.494 44.6658 97.494H39.3329V105.265H44.6658C46.2902 105.265 47.1025 104.471 47.1025 102.881C47.1025 102.328 46.8791 101.821 46.431 101.362ZM44.6658 100.409H41.2746V99.4371H44.6658C44.9958 99.4371 45.1608 99.6135 45.1608 99.9677C45.1594 100.262 44.9958 100.409 44.6658 100.409ZM44.6658 103.322H41.2746V102.352H44.6658C44.9958 102.352 45.1608 102.528 45.1608 102.882C45.1594 103.175 44.9958 103.322 44.6658 103.322ZM55.9332 102.528C55.9332 104.471 54.9616 105.443 53.0185 105.443H51.0769C49.1338 105.443 48.1636 104.471 48.1636 102.528V100.232C48.1636 98.2891 49.1352 97.3176 51.0769 97.3176H53.02C54.9631 97.3176 55.9346 98.2891 55.9346 100.232V102.528H55.9332ZM53.9901 102.528V100.232C53.9901 99.5836 53.6658 99.2607 53.0185 99.2607H51.0769C50.4296 99.2607 50.1053 99.585 50.1053 100.232V102.528C50.1053 103.177 50.4296 103.5 51.0769 103.5H53.02C53.6658 103.498 53.9901 103.175 53.9901 102.528Z" fill="url(#paint1_linear_352_32)"/>
<path fill-rule="evenodd" clip-rule="evenodd" d="M78.5898 68.4073C80.0962 63.5283 88.9184 58.9678 95.3679 57.8867C94.1091 60.753 91.2285 64.2879 89.3793 65.9123C86.9739 68.0247 83.331 69.5055 78.5898 68.4073Z" fill="url(#paint2_linear_352_32)"/>
<path fill-rule="evenodd" clip-rule="evenodd" d="M49.0757 70.2975C42.3218 71.5208 37.6874 68.3401 33.2734 64.9888C40.4669 63.8878 47.3403 64.2647 49.0757 70.2975Z" fill="url(#paint3_linear_352_32)"/>
<path fill-rule="evenodd" clip-rule="evenodd" d="M63.7021 55.7502C58.5485 50.9081 63.3095 37.8569 66.6751 33.6577C68.0606 41.652 70.5115 50.4415 63.7021 55.7502Z" fill="url(#paint4_linear_352_32)"/>
<path fill-rule="evenodd" clip-rule="evenodd" d="M77.3516 57.5554C78.2435 49.2766 85.2591 45.8612 92.5507 40.8569C92.4895 45.8271 89.9092 53.5411 83.9618 56.3377C82.6702 56.9437 79.407 58.167 77.3516 57.5554Z" fill="url(#paint5_linear_352_32)"/>
<path fill-rule="evenodd" clip-rule="evenodd" d="M48.6008 61.0016C48.4828 61.0272 48.3804 60.9888 48.2452 61.0699C48.1115 61.1495 47.9721 61.1211 47.8939 61.1254C47.4984 61.1467 47.3462 61.1595 46.8896 61.1339C46.2168 61.0955 45.6677 61.0002 44.9792 60.8423C35.1371 58.5933 34.1997 49.8579 31.8555 42.875C38.9294 46.2278 45.7587 51.7982 48.0703 58.343C48.5169 59.6062 48.7516 59.7712 48.6008 61.0016Z" fill="url(#paint6_linear_352_32)"/>
<path fill-rule="evenodd" clip-rule="evenodd" d="M68.3536 63.0304C67.2938 60.2808 70.4759 53.6577 74.7775 51.0674C75.2867 53.8938 75.3806 62.0048 68.3536 63.0304Z" fill="url(#paint7_linear_352_32)"/>
<path fill-rule="evenodd" clip-rule="evenodd" d="M94.9876 52.5238C93.6419 48.6262 95.3759 45.73 98.2137 43.4199C100.818 41.3004 105.178 38.8509 109.32 37.4854C108.359 41.8125 102.131 51.1297 94.9876 52.5238Z" fill="url(#paint8_linear_352_32)"/>
<path fill-rule="evenodd" clip-rule="evenodd" d="M71.9355 33.7243C68.7862 30.6304 69.7094 25.1539 71.8274 21.3175C73.8246 17.7 76.8957 14.7555 80.3153 12.3345C80.2627 18.4966 79.358 24.821 75.8075 29.8978C74.6311 31.5806 73.55 33.0685 71.9355 33.7243Z" fill="url(#paint9_linear_352_32)"/>
<path fill-rule="evenodd" clip-rule="evenodd" d="M46.1751 44.9205C42.7711 44.343 40.084 43.0101 38.5065 40.4725C36.2021 36.7655 36.1267 31.6232 35.4141 27.3672C40.0798 30.0059 47.5606 39.1808 46.1751 44.9205Z" fill="url(#paint10_linear_352_32)"/>
<path fill-rule="evenodd" clip-rule="evenodd" d="M26.5138 47.4213C18.7385 49.151 16.05 38.8153 14.3203 33.9917C17.5636 35.72 20.5835 37.7854 22.9234 40.2876C24.8921 42.3943 26.6816 45.5664 26.5138 47.4213Z" fill="url(#paint11_linear_352_32)"/>
<path fill-rule="evenodd" clip-rule="evenodd" d="M58.6999 42.0872C48.3258 38.6832 53.0982 27.2038 54.4183 20.5723C58.5904 23.4044 62.9233 37.6747 58.6999 42.0872Z" fill="url(#paint12_linear_352_32)"/>
<path fill-rule="evenodd" clip-rule="evenodd" d="M31.9651 36.3417C24.4516 33.0543 23.7546 29.4028 20.2852 22.5337C27.0462 24.2705 33.7418 29.2648 31.9651 36.3417Z" fill="url(#paint13_linear_352_32)"/>
<path fill-rule="evenodd" clip-rule="evenodd" d="M86.6836 38.3231C89.0264 31.1353 94.4148 29.4682 100.967 25.9902C99.0691 32.5166 95.0762 39.1965 86.6836 38.3231Z" fill="url(#paint14_linear_352_32)"/>
<path fill-rule="evenodd" clip-rule="evenodd" d="M64.4576 25.8424C61.1688 23.8026 59.4789 20.8481 60.2584 16.3359C60.9384 12.3985 63.0294 8.00023 66.0294 5.36865C69.4448 9.94191 69.496 21.0913 64.4576 25.8424Z" fill="url(#paint15_linear_352_32)"/>
<path fill-rule="evenodd" clip-rule="evenodd" d="M49.3354 31.1955C40.4336 28.3918 38.499 20.874 39.8575 11.9053C43.1462 14.1912 44.7124 17.1627 46.5843 20.039C48.627 23.1756 49.819 26.416 49.3354 31.1955Z" fill="url(#paint16_linear_352_32)"/>
<path fill-rule="evenodd" clip-rule="evenodd" d="M82.8191 28.9321C79.4678 21.9108 89.4877 16.474 93.4735 15.2734C91.4322 22.0402 88.28 26.8894 82.8191 28.9321Z" fill="url(#paint17_linear_352_32)"/>
<path fill-rule="evenodd" clip-rule="evenodd" d="M58.6282 61.3587C53.2413 60.4056 51.4674 51.1951 50.1445 46.9419C55.8074 48.0528 60.6268 55.2591 58.6282 61.3587Z" fill="url(#paint18_linear_352_32)"/>
<path fill-rule="evenodd" clip-rule="evenodd" d="M68.0959 91.3147C69.3079 79.1212 69.7104 67.5423 61.6336 63.8311C67.6763 69.2265 59.0063 91.3545 59.6649 91.3531L68.0959 91.3147Z" fill="url(#paint19_linear_352_32)"/>
<path fill-rule="evenodd" clip-rule="evenodd" d="M76.7381 65.4131C70.6797 72.3747 61.6797 70.8953 53.8945 69.3149C65.2445 75.5425 75.1506 71.2979 76.7381 65.4131Z" fill="url(#paint20_linear_352_32)"/>
<path fill-rule="evenodd" clip-rule="evenodd" d="M73.8446 46.3219C72.8318 42.5353 74.1177 39.898 76.2286 37.8881C78.1646 36.0431 81.4079 33.9976 84.4932 32.9663C83.7862 37.0118 79.1661 45.4571 73.8446 46.3219Z" fill="url(#paint21_linear_352_32)"/>
<path d="M60.3359 105.265L64.3089 99.9677L60.3359 94.6704H62.9846L66.1638 98.9094H66.6944V94.6704H68.8139V98.9094H69.3431L72.5223 94.6704H75.1709L71.198 99.9677L75.1709 105.265H72.5223L69.3431 101.026H68.8139V105.265H66.6944V101.026H66.1638L62.9846 105.265H60.3359ZM83.4711 105.265H81.528V104.436C80.5265 105.107 79.555 105.443 78.6133 105.443C76.6702 105.443 75.6987 104.471 75.6987 102.528V97.494H77.6418V102.528C77.6418 103.164 77.9661 103.488 78.6133 103.5C79.9078 103.335 80.8793 102.717 81.528 101.646V97.494H83.4711V105.265ZM89.8637 100.409H86.4725V102.35H89.8637C90.1937 102.35 90.3587 102.527 90.3587 102.881C90.3587 103.175 90.1937 103.322 89.8637 103.322H84.5308V105.265H89.8637C91.4881 105.265 92.3004 104.471 92.3004 102.881C92.3004 102.328 92.0771 101.821 91.629 101.362C92.0771 100.926 92.3004 100.456 92.3004 99.9492C92.2876 98.3134 91.4753 97.494 89.8637 97.494H84.5308V99.4371H89.8637C90.1937 99.4371 90.3587 99.6135 90.3587 99.9677C90.3587 100.262 90.1937 100.409 89.8637 100.409ZM101.131 105.265H99.1894V102.352H95.3046V105.265H93.3615V97.494H95.3046V100.409H99.1894V97.494H101.131V105.265ZM109.962 105.265H108.019V104.436C107.019 105.107 106.047 105.443 105.104 105.443C103.161 105.443 102.191 104.471 102.191 102.528V97.494H104.134V102.528C104.134 103.164 104.457 103.488 105.105 103.5C106.401 103.335 107.372 102.717 108.02 101.646V97.494H109.963V105.265H109.962Z" fill="url(#paint22_linear_352_32)"/>
<path fill-rule="evenodd" clip-rule="evenodd" d="M31.6753 59.9449C23.3509 65.4157 14.8346 54.3475 10.2969 49.3901C15.0323 50.0118 19.6767 51.1312 23.7393 53.0687C27.1618 54.6988 30.9171 57.6704 31.6753 59.9449Z" fill="url(#paint23_linear_352_32)"/>
<path fill-rule="evenodd" clip-rule="evenodd" d="M38.6833 72.002C34.5553 77.9095 25.2708 72.2594 20.6094 69.9095C24.093 69.1684 27.662 68.8014 31.0759 69.1485C33.9507 69.4415 37.4671 70.5937 38.6833 72.002Z" fill="url(#paint24_linear_352_32)"/>
<path fill-rule="evenodd" clip-rule="evenodd" d="M95.457 63.6277C96.6035 59.8695 103.394 56.3986 108.367 55.6021C107.406 57.8083 105.195 60.521 103.774 61.7642C101.924 63.3816 99.1171 64.5039 95.457 63.6277Z" fill="url(#paint25_linear_352_32)"/>
<path fill-rule="evenodd" clip-rule="evenodd" d="M86.8867 71.8255C91.1243 76.6036 98.5965 70.9265 102.402 68.4969C99.2879 68.1455 96.1385 68.1256 93.2025 68.7131C90.7302 69.2095 87.7928 70.5026 86.8867 71.8255Z" fill="url(#paint26_linear_352_32)"/>
<path fill-rule="evenodd" clip-rule="evenodd" d="M51.7021 19.0886C53.3579 16.6505 51.7604 9.47981 48.1573 5.98193C47.0222 8.61779 45.0919 16.4955 51.7021 19.0886Z" fill="url(#paint27_linear_352_32)"/>
</g>
<defs>
<linearGradient id="paint0_linear_352_32" x1="59.9508" y1="110.957" x2="59.9508" y2="114.609" gradientUnits="userSpaceOnUse">
<stop offset="0.475" stop-color="#3B55DC"/>
<stop offset="1" stop-color="white"/>
</linearGradient>
<linearGradient id="paint1_linear_352_32" x1="32.9751" y1="94.6689" x2="32.9751" y2="105.443" gradientUnits="userSpaceOnUse">
<stop offset="0.475" stop-color="#3B55DC"/>
<stop offset="1" stop-color="white"/>
</linearGradient>
<linearGradient id="paint2_linear_352_32" x1="86.9789" y1="57.8867" x2="86.9789" y2="68.7796" gradientUnits="userSpaceOnUse">
<stop offset="0.475" stop-color="#3B55DC"/>
<stop offset="1" stop-color="white"/>
</linearGradient>
<linearGradient id="paint3_linear_352_32" x1="41.1746" y1="64.5024" x2="41.1746" y2="70.565" gradientUnits="userSpaceOnUse">
<stop offset="0.475" stop-color="#3B55DC"/>
<stop offset="1" stop-color="white"/>
</linearGradient>
<linearGradient id="paint4_linear_352_32" x1="64.8473" y1="33.6577" x2="64.8473" y2="55.7502" gradientUnits="userSpaceOnUse">
<stop offset="0.475" stop-color="#3B55DC"/>
<stop offset="1" stop-color="white"/>
</linearGradient>
<linearGradient id="paint5_linear_352_32" x1="84.9511" y1="40.8569" x2="84.9511" y2="57.7221" gradientUnits="userSpaceOnUse">
<stop offset="0.475" stop-color="#3B55DC"/>
<stop offset="1" stop-color="white"/>
</linearGradient>
<linearGradient id="paint6_linear_352_32" x1="40.251" y1="42.875" x2="40.251" y2="61.1481" gradientUnits="userSpaceOnUse">
<stop offset="0.475" stop-color="#3B55DC"/>
<stop offset="1" stop-color="white"/>
</linearGradient>
<linearGradient id="paint7_linear_352_32" x1="71.5651" y1="51.0674" x2="71.5651" y2="63.0304" gradientUnits="userSpaceOnUse">
<stop offset="0.475" stop-color="#3B55DC"/>
<stop offset="1" stop-color="white"/>
</linearGradient>
<linearGradient id="paint8_linear_352_32" x1="101.922" y1="37.4854" x2="101.922" y2="52.5238" gradientUnits="userSpaceOnUse">
<stop offset="0.475" stop-color="#3B55DC"/>
<stop offset="1" stop-color="white"/>
</linearGradient>
<linearGradient id="paint9_linear_352_32" x1="75.1049" y1="12.3345" x2="75.1049" y2="33.7243" gradientUnits="userSpaceOnUse">
<stop offset="0.475" stop-color="#3B55DC"/>
<stop offset="1" stop-color="white"/>
</linearGradient>
<linearGradient id="paint10_linear_352_32" x1="40.8788" y1="27.3672" x2="40.8788" y2="44.9205" gradientUnits="userSpaceOnUse">
<stop offset="0.475" stop-color="#3B55DC"/>
<stop offset="1" stop-color="white"/>
</linearGradient>
<linearGradient id="paint11_linear_352_32" x1="20.4225" y1="33.9917" x2="20.4225" y2="47.6143" gradientUnits="userSpaceOnUse">
<stop offset="0.475" stop-color="#3B55DC"/>
<stop offset="1" stop-color="white"/>
</linearGradient>
<linearGradient id="paint12_linear_352_32" x1="56.3" y1="20.5723" x2="56.3" y2="42.0872" gradientUnits="userSpaceOnUse">
<stop offset="0.475" stop-color="#3B55DC"/>
<stop offset="1" stop-color="white"/>
</linearGradient>
<linearGradient id="paint13_linear_352_32" x1="26.2701" y1="22.5337" x2="26.2701" y2="36.3417" gradientUnits="userSpaceOnUse">
<stop offset="0.475" stop-color="#3B55DC"/>
<stop offset="1" stop-color="white"/>
</linearGradient>
<linearGradient id="paint14_linear_352_32" x1="93.8251" y1="25.9902" x2="93.8251" y2="38.4004" gradientUnits="userSpaceOnUse">
<stop offset="0.475" stop-color="#3B55DC"/>
<stop offset="1" stop-color="white"/>
</linearGradient>
<linearGradient id="paint15_linear_352_32" x1="64.2549" y1="5.36865" x2="64.2549" y2="25.8424" gradientUnits="userSpaceOnUse">
<stop offset="0.475" stop-color="#3B55DC"/>
<stop offset="1" stop-color="white"/>
</linearGradient>
<linearGradient id="paint16_linear_352_32" x1="44.4538" y1="11.9053" x2="44.4538" y2="31.1955" gradientUnits="userSpaceOnUse">
<stop offset="0.475" stop-color="#3B55DC"/>
<stop offset="1" stop-color="white"/>
</linearGradient>
<linearGradient id="paint17_linear_352_32" x1="87.809" y1="15.2734" x2="87.809" y2="28.9321" gradientUnits="userSpaceOnUse">
<stop offset="0.475" stop-color="#3B55DC"/>
<stop offset="1" stop-color="white"/>
</linearGradient>
<linearGradient id="paint18_linear_352_32" x1="54.6165" y1="46.9419" x2="54.6165" y2="61.3587" gradientUnits="userSpaceOnUse">
<stop offset="0.475" stop-color="#3B55DC"/>
<stop offset="1" stop-color="white"/>
</linearGradient>
<linearGradient id="paint19_linear_352_32" x1="64.1951" y1="63.8311" x2="64.1951" y2="91.3531" gradientUnits="userSpaceOnUse">
<stop offset="0.475" stop-color="#3B55DC"/>
<stop offset="1" stop-color="white"/>
</linearGradient>
<linearGradient id="paint20_linear_352_32" x1="65.3163" y1="65.4131" x2="65.3163" y2="72.3841" gradientUnits="userSpaceOnUse">
<stop offset="0.475" stop-color="#3B55DC"/>
<stop offset="1" stop-color="white"/>
</linearGradient>
<linearGradient id="paint21_linear_352_32" x1="78.9927" y1="32.9663" x2="78.9927" y2="46.3219" gradientUnits="userSpaceOnUse">
<stop offset="0.475" stop-color="#3B55DC"/>
<stop offset="1" stop-color="white"/>
</linearGradient>
<linearGradient id="paint22_linear_352_32" x1="85.1496" y1="94.6704" x2="85.1496" y2="105.443" gradientUnits="userSpaceOnUse">
<stop offset="0.475" stop-color="#3B55DC"/>
<stop offset="1" stop-color="white"/>
</linearGradient>
<linearGradient id="paint23_linear_352_32" x1="20.9861" y1="49.3901" x2="20.9861" y2="61.4275" gradientUnits="userSpaceOnUse">
<stop offset="0.475" stop-color="#3B55DC"/>
<stop offset="1" stop-color="white"/>
</linearGradient>
<linearGradient id="paint24_linear_352_32" x1="29.6463" y1="69.0166" x2="29.6463" y2="74.6097" gradientUnits="userSpaceOnUse">
<stop offset="0.475" stop-color="#3B55DC"/>
<stop offset="1" stop-color="white"/>
</linearGradient>
<linearGradient id="paint25_linear_352_32" x1="101.912" y1="55.6021" x2="101.912" y2="63.934" gradientUnits="userSpaceOnUse">
<stop offset="0.475" stop-color="#3B55DC"/>
<stop offset="1" stop-color="white"/>
</linearGradient>
<linearGradient id="paint26_linear_352_32" x1="94.6442" y1="68.249" x2="94.6442" y2="73.6808" gradientUnits="userSpaceOnUse">
<stop offset="0.475" stop-color="#3B55DC"/>
<stop offset="1" stop-color="white"/>
</linearGradient>
<linearGradient id="paint27_linear_352_32" x1="49.6743" y1="5.98193" x2="49.6743" y2="19.0886" gradientUnits="userSpaceOnUse">
<stop offset="0.475" stop-color="#3B55DC"/>
<stop offset="1" stop-color="white"/>
</linearGradient>
<clipPath id="clip0_352_32">
<rect width="100" height="109.388" fill="white" transform="translate(10 5.30566)"/>
</clipPath>
</defs>
</svg>
