<svg width="901" height="600" viewBox="0 0 901 600" fill="none" xmlns="http://www.w3.org/2000/svg">
<g clip-path="url(#clip0_335_172)">
<path d="M516.422 271.63C517.188 271.666 517.947 271.464 518.595 271.053C519.244 270.641 519.75 270.04 520.046 269.331C520.342 268.622 520.413 267.838 520.25 267.087C520.087 266.336 519.697 265.653 519.134 265.131C519.039 264.755 518.972 264.485 518.877 264.109C518.911 264.028 518.945 263.946 518.979 263.864C522.424 255.632 534.099 255.689 537.514 263.933C540.546 271.25 544.406 278.58 545.356 286.317C545.775 289.736 545.598 293.203 544.834 296.562C551.954 280.997 555.652 264.079 555.676 246.956C555.677 242.659 555.439 238.365 554.962 234.095C554.568 230.595 554.021 227.119 553.322 223.668C549.506 204.944 541.312 187.395 529.414 172.461C523.655 169.312 518.998 164.469 516.07 158.586C515.009 156.471 514.259 154.214 513.844 151.884C514.493 151.969 516.293 142.054 515.803 141.446C516.709 140.069 518.329 139.385 519.318 138.041C524.235 131.36 531.01 132.527 534.547 141.606C542.102 145.428 542.175 151.765 537.539 157.86C534.59 161.738 534.185 166.986 531.597 171.137C531.863 171.479 532.14 171.81 532.406 172.151C537.273 178.423 541.515 185.158 545.071 192.259C544.065 184.383 545.55 174.895 548.082 168.779C550.965 161.81 556.368 155.941 561.125 149.916C566.84 142.68 578.559 145.838 579.566 155.011C579.576 155.1 579.585 155.189 579.595 155.278C578.888 155.677 578.196 156.101 577.519 156.55C576.669 157.119 576.01 157.933 575.629 158.884C575.248 159.835 575.162 160.879 575.384 161.879C575.605 162.88 576.122 163.79 576.869 164.491C577.615 165.192 578.555 165.65 579.566 165.806L579.669 165.822C579.417 168.375 578.972 170.904 578.338 173.389C584.442 197.045 571.264 205.66 552.449 206.048C552.033 206.261 551.629 206.474 551.213 206.677C554.786 216.824 557.027 227.393 557.88 238.119C558.363 244.447 558.334 250.803 557.795 257.127L557.827 256.903C559.19 249.871 562.933 243.527 568.423 238.941C576.578 232.227 588.098 229.755 596.896 224.359C601.13 221.762 606.557 225.119 605.818 230.039C605.806 230.117 605.794 230.196 605.782 230.274C604.471 230.81 603.194 231.426 601.959 232.121C601.252 232.52 600.56 232.944 599.883 233.393C599.033 233.962 598.374 234.776 597.993 235.727C597.612 236.678 597.527 237.722 597.748 238.723C597.969 239.723 598.487 240.633 599.233 241.334C599.979 242.035 600.919 242.493 601.93 242.649L602.033 242.665C602.108 242.676 602.172 242.687 602.246 242.697C600.006 248.059 596.861 252.994 592.949 257.287C589.133 277.937 572.741 279.896 555.207 273.883H555.196C553.272 282.261 550.485 290.416 546.879 298.217H517.166C517.06 297.886 516.964 297.544 516.868 297.213C519.618 297.387 522.38 297.222 525.09 296.722C522.885 294.012 520.681 291.279 518.476 288.568C518.427 288.518 518.381 288.464 518.338 288.408C517.22 287.021 516.091 285.644 514.973 284.257L514.972 284.255C514.912 280.002 515.399 275.759 516.421 271.631L516.422 271.63Z" fill="#F2F2F2"/>
<path d="M611.819 195.425C606.294 175.239 650.854 157.929 662.555 174.185C664.182 171.874 670.195 170.47 672.954 171.179C675.713 171.888 678.033 173.661 680.297 175.376C683.409 177.773 686.635 180.254 688.545 183.699C690.469 187.131 690.767 191.81 688.177 194.787C686.126 197.155 680.07 198.686 676.986 199.31C674.836 199.75 673.025 200.104 671.468 200.36C670.055 198.318 669.403 195.844 669.629 193.369C668.581 194.078 667.703 195.009 667.057 196.098C666.412 197.186 666.014 198.404 665.894 199.665C665.851 200.189 683.282 264.463 683.282 264.463C681.188 265.657 678.985 266.649 676.703 267.426C672.189 260.512 668.732 252.961 666.446 245.023C665.92 250.331 665.987 255.681 666.644 260.975C666.993 263.943 667.494 266.891 668.143 269.808C647.43 274.289 616.276 272.814 602.721 253.758C602.719 253.679 602.717 253.6 602.715 253.521C602.704 252.769 602.433 252.044 601.947 251.47C601.462 250.896 600.793 250.509 600.054 250.375C599.315 250.242 598.553 250.37 597.898 250.737C597.243 251.105 596.736 251.689 596.464 252.39C596.135 253.231 595.832 253.958 595.562 254.537C591.615 240.387 596.723 224.01 611.819 195.425Z" fill="#2F2E41"/>
<path d="M576.57 533.851V534.512C576.544 534.292 576.544 534.07 576.57 533.851Z" fill="#2F2E41"/>
<path d="M596.855 419.611C597.382 419.469 597.918 419.364 598.46 419.299C597.838 419.401 597.303 419.505 596.855 419.611Z" fill="#2F2E41"/>
<path d="M596.387 419.731C596.529 419.691 596.688 419.651 596.856 419.612C596.699 419.652 596.548 419.682 596.387 419.731Z" fill="#2F2E41"/>
<path d="M746.247 599.997H670.323C669.24 599.131 668.487 597.917 668.191 596.561C667.895 595.204 668.074 593.786 668.698 592.546C670.772 587.779 666.707 583.423 666.707 583.423C665.328 581.803 664.368 579.867 663.914 577.786C663.46 575.705 663.526 573.544 664.105 571.495C666.117 564.454 658.234 544.581 658.234 544.581C658.234 544.581 653.984 570.242 648.776 599.997H576.569C575.36 597.933 574.722 595.581 574.722 593.187C574.722 590.793 575.36 588.442 576.569 586.377C580.777 579.226 576.569 577.855 576.569 577.855C576.569 577.855 572.361 569.854 576.569 564.044C580.777 558.234 576.569 534.512 576.569 534.512C576.728 535.561 577.927 533.654 579.773 529.656C582.582 523.572 586.877 512.633 591.215 499.932C594.317 490.868 597.444 480.894 600.057 471.143H600.063C600.748 468.582 601.397 466.043 602.011 463.528C603.209 458.596 604.237 453.803 605.017 449.302C606.711 439.609 607.269 431.281 605.969 425.866C604.89 421.359 602.531 418.873 598.459 419.299C600.641 418.937 603.837 418.594 607.776 418.27C608.487 418.212 609.222 418.155 609.984 418.092C639.364 415.867 702.399 414.589 702.399 414.589L721.707 449.239L746.158 493.131C746.158 493.131 745.492 552.012 746.247 599.997Z" fill="#2F2E41"/>
<path d="M665.208 264.827L620.726 255.371L611.894 273.187L582.151 290.444C582.151 290.444 601.323 369.004 601.213 380.053C600.936 408.105 556.148 470.988 589.978 466.151C623.807 461.313 630.679 441.05 641.539 444.254C651.333 447.143 663.292 459.998 671.299 450.804C679.305 441.611 682.125 452.227 687.188 452.594C689.594 452.768 688.145 440.985 694.199 452.96C700.252 464.935 732.353 448.815 721.473 437.912C703.353 419.753 699.671 285.891 699.671 285.891L679.5 279.671L665.208 264.827Z" fill="#E6E6E6"/>
<path d="M581.309 550.123C583.096 547.987 583.981 545.236 583.776 542.456C583.57 539.677 582.291 537.087 580.209 535.238C579.78 534.869 579.321 534.536 578.837 534.243L586.275 497.662L569.081 487.349L564.299 538.564C563.241 540.669 562.908 543.065 563.352 545.38C563.796 547.694 564.992 549.796 566.753 551.358C567.764 552.237 568.937 552.907 570.207 553.332C571.476 553.756 572.817 553.926 574.152 553.831C575.486 553.736 576.79 553.379 577.987 552.779C579.184 552.18 580.251 551.35 581.128 550.337C581.189 550.266 581.25 550.195 581.309 550.123Z" fill="#A0616A"/>
<path d="M634.697 357.304C634.589 356.128 633.092 355.594 631.018 354.856C628.935 354.213 626.954 353.274 625.138 352.066C620.546 348.741 622.354 345.264 624.853 340.459C625.341 339.524 625.848 338.552 626.324 337.541C627.739 334.547 625.487 322.196 619.62 300.826C617.812 294.247 617.818 289.6 616.569 286.517C615.326 283.434 612.833 281.915 606.04 281.597C597.829 281.182 589.788 284.046 583.681 289.562C583.516 289.708 583.345 289.867 583.18 290.019C582.869 290.312 582.565 290.611 582.267 290.916C576.619 296.61 573.387 304.272 573.247 312.299L573.215 313.666L571.814 378.96L567.875 436.259L562.445 515.188L566.467 515.385L582.514 516.186L584.461 516.281L589.079 496.868L594.635 473.508L596.678 464.927L603.014 438.305L605.97 425.866L607.778 418.269L608.513 415.167L612.103 400.09C612.186 399.772 620.444 367.118 629.965 361.658C633.517 359.624 634.798 358.441 634.697 357.304Z" fill="#E6E6E6"/>
<path d="M741.517 549.734C739.511 547.803 738.336 545.163 738.242 542.377C738.148 539.591 739.143 536.879 741.015 534.817C741.402 534.403 741.822 534.023 742.272 533.68L730.957 498.111L746.946 486.007L757.189 536.411C758.467 538.39 759.055 540.737 758.862 543.085C758.668 545.434 757.704 547.653 756.12 549.395C755.21 550.378 754.115 551.171 752.898 551.729C751.682 552.288 750.367 552.601 749.03 552.65C747.692 552.7 746.359 552.485 745.104 552.017C743.85 551.55 742.699 550.84 741.719 549.927C741.651 549.864 741.583 549.799 741.517 549.734Z" fill="#A0616A"/>
<path d="M749.339 472.554C749.339 472.554 736.869 428.584 740.672 423.824C744.475 419.063 733.243 418.134 738.083 409.269C742.923 400.404 736.243 398.921 736.243 398.921L732.617 378.538L726.136 328.473L725.94 326.984L724.055 312.418C723.528 308.258 722.17 304.247 720.061 300.625C717.952 297.003 715.136 293.844 711.782 291.337C711.61 291.206 711.435 291.079 711.26 290.953C710.462 290.377 709.647 289.844 708.815 289.353C702.593 285.675 695.288 284.284 688.154 285.42C674.712 287.518 678.896 292.542 676.716 305.999C673.173 327.881 672.254 340.399 673.981 343.228C674.563 344.18 675.175 345.092 675.758 345.966C678.759 350.481 680.929 353.739 676.717 357.545C675.038 358.937 673.171 360.082 671.171 360.946C669.191 361.907 667.758 362.596 667.778 363.777C667.8 364.921 669.199 365.954 672.946 367.592C677.487 369.583 682.364 377.112 686.358 384.803C689.527 391.003 692.354 397.372 694.825 403.883L729.157 500.649L734.757 516.43L736.688 516.123L752.551 513.603L756.529 512.972L749.339 472.554Z" fill="#E6E6E6"/>
<path d="M646.444 254.703C666.487 254.703 682.735 238.419 682.735 218.333C682.735 198.246 666.487 181.963 646.444 181.963C626.401 181.963 610.152 198.246 610.152 218.333C610.152 238.419 626.401 254.703 646.444 254.703Z" fill="#A0616A"/>
<path d="M592.01 198.261C586.485 178.075 631.045 160.765 642.746 177.021C644.373 174.71 650.386 173.306 653.145 174.015C655.904 174.724 658.224 176.497 660.488 178.212C663.601 180.608 666.827 183.09 668.737 186.535C670.661 189.967 670.958 194.646 668.369 197.623C666.317 199.991 660.262 201.522 657.177 202.146C655.027 202.586 653.216 202.94 651.66 203.196C650.246 201.154 649.595 198.68 649.82 196.205C648.773 196.913 647.895 197.845 647.249 198.934C646.603 200.022 646.206 201.24 646.085 202.501C646.043 203.025 663.474 267.299 663.474 267.299C661.379 268.493 659.176 269.485 656.895 270.262C652.381 263.348 648.923 255.797 646.637 247.859C646.111 253.167 646.178 258.517 646.835 263.81C647.185 266.779 647.685 269.727 648.335 272.644C627.622 277.125 596.467 275.65 582.913 256.593C582.91 256.515 582.908 256.436 582.906 256.357C582.895 255.605 582.624 254.879 582.139 254.306C581.653 253.732 580.984 253.345 580.245 253.211C579.507 253.078 578.745 253.206 578.09 253.573C577.435 253.941 576.928 254.525 576.655 255.226C576.326 256.067 576.024 256.794 575.754 257.373C571.806 243.223 576.914 226.846 592.01 198.261Z" fill="#2F2E41"/>
<path d="M412.027 323.934C411.26 323.969 410.501 323.768 409.853 323.356C409.205 322.945 408.699 322.344 408.403 321.635C408.107 320.925 408.035 320.142 408.199 319.391C408.362 318.639 408.751 317.957 409.315 317.435C409.409 317.059 409.477 316.789 409.571 316.413C409.537 316.331 409.503 316.25 409.469 316.168C406.024 307.936 394.35 307.993 390.934 316.237C387.903 323.554 384.043 330.884 383.093 338.62C382.674 342.04 382.851 345.507 383.614 348.866C376.494 333.3 372.797 316.383 372.773 299.26C372.772 294.963 373.01 290.669 373.487 286.399C373.881 282.898 374.427 279.423 375.127 275.972C378.943 257.248 387.137 239.698 399.035 224.764C404.794 221.616 409.451 216.773 412.379 210.89C413.44 208.775 414.189 206.518 414.605 204.188C413.955 204.273 412.155 194.358 412.645 193.75C411.74 192.373 410.12 191.689 409.131 190.345C404.214 183.664 397.439 184.83 393.902 193.91C386.346 197.731 386.273 204.069 390.909 210.164C393.859 214.042 394.264 219.289 396.852 223.441C396.586 223.782 396.309 224.113 396.042 224.455C391.176 230.727 386.934 237.461 383.378 244.562C384.384 236.687 382.898 227.199 380.366 221.082C377.484 214.114 372.081 208.245 367.323 202.22C361.608 194.984 349.889 198.142 348.883 207.315C348.873 207.404 348.863 207.493 348.854 207.581C349.561 207.981 350.252 208.405 350.929 208.854C351.78 209.423 352.438 210.236 352.82 211.187C353.201 212.138 353.286 213.183 353.065 214.183C352.844 215.184 352.326 216.094 351.58 216.795C350.834 217.495 349.894 217.954 348.883 218.11L348.779 218.126C349.031 220.678 349.476 223.208 350.111 225.693C344.007 249.348 357.184 257.964 376 258.351C376.415 258.565 376.82 258.778 377.235 258.981C373.663 269.128 371.422 279.697 370.569 290.423C370.086 296.75 370.114 303.107 370.654 309.431L370.622 309.206C369.259 302.175 365.516 295.83 360.025 291.244C351.871 284.531 340.35 282.059 331.553 276.663C327.318 274.066 321.892 277.422 322.631 282.343C322.642 282.421 322.654 282.5 322.667 282.578C323.978 283.113 325.255 283.73 326.49 284.424C327.196 284.824 327.888 285.248 328.565 285.697C329.415 286.266 330.074 287.08 330.455 288.031C330.836 288.982 330.922 290.026 330.701 291.026C330.48 292.027 329.962 292.937 329.216 293.638C328.469 294.339 327.529 294.797 326.519 294.953L326.415 294.969C326.341 294.98 326.277 294.99 326.202 295.001C328.443 300.363 331.588 305.298 335.499 309.591C339.316 330.241 355.708 332.2 373.242 326.187H373.252C375.176 334.565 377.964 342.72 381.57 350.52H411.282C411.389 350.189 411.484 349.848 411.58 349.517C408.83 349.69 406.069 349.525 403.359 349.026C405.563 346.315 407.768 343.583 409.972 340.872C410.021 340.821 410.068 340.768 410.111 340.712C411.229 339.325 412.358 337.948 413.476 336.56L413.476 336.559C413.536 332.306 413.049 328.063 412.028 323.935L412.027 323.934Z" fill="#F2F2F2"/>
<path d="M273.389 174.186C272.714 175.761 251.921 175.592 250.969 176.995C243.626 187.822 270.094 233.887 262.752 244.728L261.729 245.95C264.124 244.844 266.426 243.543 268.609 242.06C268.805 237.623 269.002 233.171 269.212 228.734C271.411 231.553 273.186 234.681 274.48 238.016C276.19 236.808 277.592 234.57 284.92 230.166C287.886 226.9 291.306 224.079 295.074 221.789L273.389 174.186Z" fill="#2F2E41"/>
<path d="M288.485 262.919C286.191 261.421 283.573 260.493 280.849 260.212C278.125 259.931 275.373 260.305 272.822 261.303C270.271 262.301 267.994 263.895 266.181 265.951C264.368 268.008 263.07 270.468 262.395 273.128L230.797 355.638L176.483 324.736C176.245 321.184 174.89 317.799 172.613 315.066C170.336 312.333 167.254 310.394 163.809 309.525C160.364 308.656 156.733 308.903 153.437 310.23C150.141 311.557 147.349 313.897 145.461 316.912C143.573 319.928 142.687 323.466 142.93 327.017C143.172 330.569 144.531 333.952 146.811 336.682C149.091 339.412 152.175 341.349 155.621 342.214C159.067 343.078 162.697 342.827 165.992 341.497C177.43 353.731 227.018 403.89 247.547 384.292C264.803 367.818 289.705 303.973 295.699 281.926C296.659 278.4 296.478 274.66 295.182 271.245C293.885 267.829 291.541 264.914 288.485 262.919Z" fill="#FFB6B6"/>
<path d="M229.152 387.749L239.124 432.916L312.038 439.526L318.739 400.198L229.152 387.749Z" fill="#FFB6B6"/>
<path d="M340.532 503.574C340.499 504.222 340.459 504.862 340.412 505.51C339.713 514.868 338.913 525.662 338.048 537.491C336.682 556.261 335.157 577.635 333.618 599.997H180.68L210.34 510.652C210.34 510.652 222.317 504.044 216.22 492.943C210.122 481.843 222.12 490.689 222.231 474.835C222.343 458.982 233.093 442.116 233.093 442.116L234.859 418.112L235.864 418.132L315.454 419.46L316.906 419.487L319.351 440.093C334.193 457.793 341.765 480.487 340.532 503.574Z" fill="#2F2E41"/>
<path d="M274.664 241.03L310.957 239.156L327.814 265.85C327.814 265.85 359.531 271.164 357.332 308.62C355.134 346.075 318.742 378.942 318.742 378.942L320.298 373.597L317.596 381.334L317.943 385.678L321.628 390.279L322.008 395.036L318.742 402.564C319.167 403.246 319.392 404.034 319.393 404.838C319.393 405.642 319.169 406.43 318.745 407.113C318.321 407.795 317.715 408.345 316.995 408.7C316.276 409.055 315.471 409.201 314.673 409.121L262.232 403.854C261.038 400.562 260.08 396.624 255.294 403.18L250.354 402.701L229.819 400.707L228.61 396.294C227.923 393.787 227.816 391.156 228.297 388.601C228.778 386.046 229.834 383.634 231.385 381.55C229.601 375.952 230.069 369.878 232.687 364.621L232.785 364.423L234.966 362.602C234.966 362.602 211.108 326.68 238.497 299.625L249.489 280.897L261.789 265.858L274.664 241.03Z" fill="#00B0FF"/>
<path d="M283.693 225.272C302.7 225.272 318.109 209.831 318.109 190.782C318.109 171.734 302.7 156.292 283.693 156.292C264.686 156.292 249.277 171.734 249.277 190.782C249.277 209.831 264.686 225.272 283.693 225.272Z" fill="#FFB6B6"/>
<path d="M309.833 240.468C307.03 238.121 305.08 234.912 304.284 231.34C303.647 235.677 303.814 240.095 304.774 244.372C302.911 245.776 301.103 247.11 299.394 248.318C298.099 244.982 296.324 241.855 294.125 239.035C293.915 243.473 293.719 247.924 293.522 252.362C291.339 253.844 289.038 255.145 286.642 256.252L287.665 255.03C295.008 244.189 276.007 224.234 283.349 213.407C285.409 210.374 276.105 186.403 269.015 185.322C262.709 184.367 262.975 186.193 256.866 187.527C256.231 184.875 255.247 182.32 253.937 179.93C254.286 182.593 254.205 185.296 253.699 187.934C251.527 188.018 249.818 186.631 247.506 186.277C232.751 184.016 234.25 168.021 238.356 162.952C242.475 157.897 256.151 156.38 262.457 154.737C263.031 154.175 264.334 154.526 264.909 153.993C276.993 142.909 293.155 141.074 307.7 145.986C323.21 151.225 332.88 161.364 337.844 176.995L339.267 189.503C340.544 193.525 338.938 212.239 337.844 216.314C333.591 232.157 324.534 224.248 309.833 240.468Z" fill="#2F2E41"/>
<path d="M360.014 403.873L358.659 298.122C358.588 293.642 356.763 289.369 353.576 286.226C350.39 283.082 346.098 281.321 341.627 281.321C339.314 281.321 337.025 281.793 334.9 282.708C332.775 283.624 330.858 284.963 329.267 286.645C327.675 288.327 326.442 290.316 325.643 292.491C324.843 294.667 324.494 296.982 324.617 299.297L329.385 409.103L329.475 475.948C326.665 477.143 324.29 479.175 322.673 481.769C321.055 484.363 320.274 487.393 320.435 490.448C320.596 493.503 321.691 496.433 323.572 498.843C325.453 501.252 328.028 503.022 330.948 503.913C333.868 504.804 336.991 504.773 339.892 503.824C342.794 502.874 345.333 501.053 347.166 498.607C348.998 496.16 350.035 493.208 350.135 490.151C350.235 487.094 349.394 484.08 347.725 481.518L360.014 403.873Z" fill="#FFB6B6"/>
<path d="M537.639 540.691C537.639 540.691 535.544 578.46 534.581 600H462.44C460.955 580.397 460.455 565.995 460.455 565.995L456.507 600H383.587L379.066 537.022L400.913 482.751C400.913 482.751 519.306 474.523 530.288 484.961C541.263 495.393 537.639 540.691 537.639 540.691Z" fill="#2F2E41"/>
<path d="M473.843 222.972C495.606 222.972 513.249 205.292 513.249 183.481C513.249 161.671 495.606 143.991 473.843 143.991C452.08 143.991 434.438 161.671 434.438 183.481C434.438 205.292 452.08 222.972 473.843 222.972Z" fill="#FFB6B6"/>
<path d="M519.778 170.65C515.73 172.499 513.108 185.895 509.926 182.78C506.745 179.666 506.958 175.614 502.669 174.464C499.205 173.532 495.478 174.598 492.318 176.278C491.754 176.574 491.207 176.896 490.674 177.217C490.322 176.981 489.972 176.76 489.596 176.555C486.77 175.04 483.472 174.668 480.381 175.516C482.824 176.336 484.947 177.905 486.452 180.001C485.394 180.711 484.323 181.423 483.228 182.053C474.076 187.346 461.053 175.837 451.42 171.514C457.454 182.861 454.483 187.561 449.243 199.297L449.062 199.965C449.36 197.024 440.278 194.832 440.805 198.972C441.179 201.912 443.717 208.446 445.139 211.042C435.011 199.306 428.089 184.943 429.55 170.128C429.868 167.015 429.772 163.731 431.374 161.03C432.977 158.343 436.32 156.457 439.278 157.482C439.027 152.757 440.059 148.052 442.263 143.868C444.468 139.683 447.762 136.176 451.797 133.718C455.831 131.261 460.455 129.945 465.176 129.91C469.898 129.875 474.54 131.123 478.61 133.522C482.392 135.746 485.549 138.891 489.015 141.604C492.481 144.317 496.477 146.682 500.872 146.906C503.661 147.041 506.695 146.359 509.09 147.806C511.865 149.485 512.34 153.001 512.757 156.384C510.282 156.629 507.936 157.607 506.018 159.195C508.579 158.933 511.157 159.487 513.386 160.778C513.428 160.797 513.468 160.82 513.506 160.847C514.973 166.438 514.823 167.678 519.778 170.65Z" fill="#2F2E41"/>
<path d="M383.762 501.857C417.319 462.493 405.984 412.425 392.666 361.883L395.2 287.219C395.324 283.556 396.326 279.978 398.121 276.785C399.916 273.592 402.451 270.879 405.512 268.874L439.77 246.446L453.104 227.126L489.858 230.809L510.239 252.41L532.799 269.67C538.464 274.004 542.774 279.87 545.221 286.578C547.669 293.285 548.152 300.554 546.613 307.528L525.024 405.373C525.024 405.373 534.054 456.097 528.544 461.699C523.034 467.301 508.837 461.701 520.096 467.99C533.606 475.537 545.891 474.144 539.054 480.996C532.217 487.848 540.87 497.374 540.87 497.374L383.762 501.857Z" fill="#00B0FF"/>
<path d="M398.109 559.066L403.703 519.124L381.381 512.737L376.965 555.178C375.118 556.876 373.78 559.056 373.101 561.474C372.422 563.892 372.43 566.452 373.123 568.866C373.817 571.279 375.168 573.452 377.026 575.138C378.884 576.824 381.174 577.958 383.639 578.411C386.104 578.864 388.647 578.619 390.981 577.704C393.315 576.789 395.348 575.239 396.851 573.229C398.355 571.219 399.269 568.829 399.491 566.327C399.713 563.825 399.234 561.311 398.109 559.066Z" fill="#FFB6B6"/>
<path d="M440.609 253.646C440.609 253.646 377.07 274.371 375.555 289.535C374.04 304.699 374.542 313.982 367.836 374.662L368.189 538.117C368.189 538.117 410.789 547.257 406.42 537.484C402.051 527.712 403.575 523.114 403.575 523.114C403.575 523.114 412.709 519.502 410.423 508.027C408.136 496.552 419.602 439.688 419.602 439.688L426.838 337.704L440.609 253.646Z" fill="#00B0FF"/>
<path d="M518.954 556.951L515.977 516.727L538.668 511.817L540.306 554.456C542.038 556.271 543.232 558.535 543.751 560.992C544.271 563.449 544.096 566.003 543.247 568.366C542.397 570.729 540.907 572.808 538.943 574.369C536.98 575.93 534.62 576.911 532.131 577.202C529.641 577.493 527.12 577.082 524.851 576.016C522.581 574.949 520.654 573.27 519.285 571.166C517.916 569.062 517.159 566.617 517.101 564.106C517.042 561.595 517.684 559.117 518.954 556.951Z" fill="#FFB6B6"/>
<path d="M496.465 249.4C496.465 249.4 558.517 274.243 559.039 289.473C559.562 304.704 558.455 313.934 561.189 374.924L550.176 538.006C550.176 538.006 507.071 544.337 512.068 534.871C517.065 525.405 515.844 520.717 515.844 520.717C515.844 520.717 506.965 516.515 509.995 505.214C513.025 493.914 505.293 436.42 505.293 436.42L504.724 334.18L496.465 249.4Z" fill="#00B0FF"/>
</g>
<defs>
<clipPath id="clip0_335_172">
<rect width="616" height="470" fill="white" transform="translate(142.898 130)"/>
</clipPath>
</defs>
</svg>
