<svg width="901" height="600" viewBox="0 0 901 600" fill="none" xmlns="http://www.w3.org/2000/svg">
<g clip-path="url(#clip0_335_173)">
<g clip-path="url(#clip1_335_173)">
<path opacity="0.2" d="M38.727 257.471C38.727 258.968 38.1329 260.403 37.0754 261.461C36.0179 262.519 34.5837 263.114 33.0881 263.114C31.5926 263.114 30.1583 262.519 29.1008 261.461C28.0433 260.403 27.4492 258.968 27.4492 257.471" fill="black"/>
<path d="M268.352 414.625C360.972 414.625 436.055 339.493 436.055 246.812C436.055 154.132 360.972 79 268.352 79C175.732 79 100.648 154.132 100.648 246.812C100.648 339.493 175.732 414.625 268.352 414.625Z" fill="#CE8585"/>
<path opacity="0.2" d="M268.351 369.299C240.032 369.299 212.589 359.473 190.698 341.496C168.807 323.518 153.822 298.502 148.297 270.709C142.773 242.915 147.05 214.065 160.399 189.073C173.749 164.082 195.346 144.495 221.509 133.651C247.673 122.806 276.785 121.375 303.885 129.601C330.985 137.828 354.396 155.202 370.129 178.764C385.863 202.326 392.945 230.618 390.169 258.819C387.393 287.02 374.931 313.386 354.906 333.424C343.566 344.834 330.077 353.879 315.22 360.037C300.363 366.195 284.432 369.343 268.351 369.299ZM268.351 131.88C205.018 131.88 153.493 183.438 153.493 246.812C153.493 310.186 205.018 361.745 268.351 361.745C331.684 361.745 383.209 310.186 383.209 246.812C383.209 183.438 331.684 131.88 268.351 131.88Z" fill="black"/>
<path d="M268.351 365.522C333.87 365.522 386.984 312.374 386.984 246.813C386.984 181.251 333.87 128.103 268.351 128.103C202.832 128.103 149.719 181.251 149.719 246.813C149.719 312.374 202.832 365.522 268.351 365.522Z" fill="#3F3D56"/>
<path d="M180.127 199.345C179.227 197.582 178.684 195.659 178.528 193.685C178.371 191.711 178.605 189.726 179.216 187.843C179.827 185.96 180.803 184.216 182.087 182.71C183.372 181.205 184.941 179.968 186.704 179.069C188.467 178.171 190.39 177.629 192.362 177.475C194.335 177.32 196.318 177.556 198.2 178.17C200.081 178.783 201.823 179.761 203.326 181.048C204.829 182.336 206.064 183.907 206.96 185.672L240.477 251.531C241.376 253.295 241.92 255.218 242.076 257.192C242.233 259.165 241.999 261.15 241.388 263.033C240.777 264.916 239.801 266.661 238.517 268.166C237.232 269.672 235.663 270.909 233.9 271.807C232.137 272.706 230.214 273.248 228.242 273.402C226.269 273.556 224.285 273.32 222.404 272.707C220.523 272.094 218.781 271.116 217.278 269.828C215.775 268.541 214.54 266.97 213.644 265.205L180.127 199.345Z" fill="#FF6584"/>
<path opacity="0.2" d="M183.867 206.691L182.32 203.651C190.041 197.649 199.106 193.234 209.153 189.978L210.7 193.018C199.826 195.284 190.575 199.477 183.867 206.691Z" fill="black"/>
<path opacity="0.2" d="M191.086 220.876L189.539 217.836C197.259 211.834 206.325 207.419 216.372 204.163L217.919 207.203C207.045 209.469 197.794 213.662 191.086 220.876Z" fill="black"/>
<path opacity="0.2" d="M198.305 235.061L196.758 232.022C204.478 226.019 213.544 221.605 223.591 218.348L225.138 221.388C214.264 223.654 205.012 227.847 198.305 235.061Z" fill="black"/>
<path opacity="0.2" d="M205.523 249.246L203.977 246.207C211.697 240.204 220.762 235.79 230.809 232.533L232.356 235.573C221.482 237.839 212.231 242.032 205.523 249.246Z" fill="black"/>
<path opacity="0.2" d="M212.742 263.432L211.195 260.392C218.916 254.39 227.981 249.975 238.028 246.719L239.575 249.758C228.701 252.024 219.45 256.218 212.742 263.432Z" fill="black"/>
<path d="M154.982 224.001C154.082 222.237 153.539 220.314 153.383 218.341C153.227 216.367 153.461 214.382 154.072 212.499C154.683 210.616 155.658 208.872 156.943 207.367C158.228 205.862 159.797 204.624 161.56 203.726C163.323 202.828 165.245 202.286 167.217 202.131C169.19 201.977 171.173 202.213 173.054 202.826C174.935 203.439 176.677 204.417 178.181 205.704C179.684 206.991 180.919 208.562 181.815 210.327L215.332 276.187C217.139 279.747 217.459 283.879 216.223 287.675C214.988 291.472 212.296 294.622 208.74 296.434C205.184 298.246 201.055 298.572 197.26 297.339C193.464 296.106 190.313 293.416 188.499 289.86L154.982 224.001Z" fill="#FF6584"/>
<path opacity="0.2" d="M158.723 231.346L157.176 228.307C164.896 222.304 173.962 217.89 184.009 214.633L185.556 217.673C174.682 219.939 165.43 224.132 158.723 231.346Z" fill="black"/>
<path opacity="0.2" d="M165.941 245.531L164.395 242.492C172.115 236.489 181.18 232.075 191.227 228.818L192.774 231.858C181.9 234.124 172.649 238.317 165.941 245.531Z" fill="black"/>
<path opacity="0.2" d="M173.16 259.717L171.613 256.677C179.334 250.675 188.399 246.26 198.446 243.004L199.993 246.044C189.119 248.309 179.868 252.503 173.16 259.717Z" fill="black"/>
<path opacity="0.2" d="M180.379 273.902L178.832 270.862C186.552 264.86 195.618 260.445 205.665 257.189L207.212 260.229C196.338 262.495 187.087 266.688 180.379 273.902Z" fill="black"/>
<path opacity="0.2" d="M187.598 288.087L186.051 285.047C193.771 279.045 202.837 274.63 212.884 271.374L214.431 274.414C203.557 276.68 194.305 280.873 187.598 288.087Z" fill="black"/>
<path d="M347.621 250.59L347.727 250.59C351.337 250.62 354.873 249.561 357.872 247.55C360.872 245.54 363.196 242.672 364.542 239.319C367.31 232.318 368.705 224.849 368.651 217.319C368.462 185.451 342.552 159.306 310.707 158.865C297.145 158.675 283.934 163.184 273.314 171.627C262.694 180.07 255.319 191.928 252.439 205.191C249.558 218.454 251.35 232.306 257.509 244.398C263.669 256.49 273.818 266.079 286.236 271.539C289.517 272.993 293.161 273.42 296.69 272.766C300.219 272.111 303.467 270.404 306.01 267.87C311.463 262.384 317.948 258.033 325.089 255.067C332.231 252.102 339.889 250.58 347.621 250.59Z" fill="#E6E6E6"/>
<path d="M317.424 232.783C328.146 232.783 336.837 224.086 336.837 213.358C336.837 202.63 328.146 193.933 317.424 193.933C306.703 193.933 298.012 202.63 298.012 213.358C298.012 224.086 306.703 232.783 317.424 232.783Z" fill="#F9A825"/>
<path d="M275.232 211.173C276.495 211.173 277.519 210.149 277.519 208.885C277.519 207.621 276.495 206.597 275.232 206.597C273.969 206.597 272.945 207.621 272.945 208.885C272.945 210.149 273.969 211.173 275.232 211.173Z" fill="#3F3D56"/>
<path d="M199.74 213.332C201.003 213.332 202.027 212.307 202.027 211.043C202.027 209.779 201.003 208.755 199.74 208.755C198.477 208.755 197.453 209.779 197.453 211.043C197.453 212.307 198.477 213.332 199.74 213.332Z" fill="#3F3D56"/>
<path d="M287.42 187.458C288.683 187.458 289.707 186.433 289.707 185.169C289.707 183.905 288.683 182.881 287.42 182.881C286.157 182.881 285.133 183.905 285.133 185.169C285.133 186.433 286.157 187.458 287.42 187.458Z" fill="#3F3D56"/>
<path d="M287.357 253.418C288.62 253.418 289.644 252.393 289.644 251.129C289.644 249.865 288.62 248.841 287.357 248.841C286.094 248.841 285.07 249.865 285.07 251.129C285.07 252.393 286.094 253.418 287.357 253.418Z" fill="#3F3D56"/>
<path d="M332.65 182.731C333.913 182.731 334.937 181.707 334.937 180.443C334.937 179.179 333.913 178.155 332.65 178.155C331.387 178.155 330.363 179.179 330.363 180.443C330.363 181.707 331.387 182.731 332.65 182.731Z" fill="#3F3D56"/>
<path d="M184.9 245.324C186.163 245.324 187.187 244.299 187.187 243.035C187.187 241.772 186.163 240.747 184.9 240.747C183.637 240.747 182.613 241.772 182.613 243.035C182.613 244.299 183.637 245.324 184.9 245.324Z" fill="#3F3D56"/>
<path d="M201.615 278.239C202.878 278.239 203.902 277.214 203.902 275.95C203.902 274.687 202.878 273.662 201.615 273.662C200.352 273.662 199.328 274.687 199.328 275.95C199.328 277.214 200.352 278.239 201.615 278.239Z" fill="#3F3D56"/>
<path d="M306.64 288.901C311.405 288.901 315.267 285.035 315.267 280.267C315.267 275.499 311.405 271.634 306.64 271.634C301.875 271.634 298.012 275.499 298.012 280.267C298.012 285.035 301.875 288.901 306.64 288.901Z" fill="#FF6584"/>
<path opacity="0.2" d="M313.11 280.807C313.11 282.524 312.428 284.171 311.214 285.385C310.001 286.6 308.355 287.282 306.639 287.282C304.923 287.282 303.277 286.6 302.063 285.385C300.85 284.171 300.168 282.524 300.168 280.807" fill="black"/>
<path opacity="0.2" d="M300.168 279.728C300.168 278.01 300.85 276.363 302.063 275.149C303.277 273.935 304.923 273.252 306.639 273.252C308.355 273.252 310.001 273.935 311.214 275.149C312.428 276.363 313.11 278.01 313.11 279.728" fill="black"/>
<path d="M303.403 278.109C303.7 278.109 303.942 277.746 303.942 277.299C303.942 276.852 303.7 276.49 303.403 276.49C303.105 276.49 302.863 276.852 302.863 277.299C302.863 277.746 303.105 278.109 303.403 278.109Z" fill="#FF6584"/>
<path d="M306.637 277.029C306.935 277.029 307.176 276.667 307.176 276.22C307.176 275.773 306.935 275.411 306.637 275.411C306.339 275.411 306.098 275.773 306.098 276.22C306.098 276.667 306.339 277.029 306.637 277.029Z" fill="#FF6584"/>
<path d="M306.637 284.044C306.935 284.044 307.176 283.682 307.176 283.235C307.176 282.788 306.935 282.425 306.637 282.425C306.339 282.425 306.098 282.788 306.098 283.235C306.098 283.682 306.339 284.044 306.637 284.044Z" fill="#FF6584"/>
<path d="M309.875 279.728C310.173 279.728 310.414 279.365 310.414 278.918C310.414 278.471 310.173 278.109 309.875 278.109C309.577 278.109 309.336 278.471 309.336 278.918C309.336 279.365 309.577 279.728 309.875 279.728Z" fill="#FF6584"/>
<path d="M309.336 285.663C309.634 285.663 309.875 285.3 309.875 284.853C309.875 284.406 309.634 284.044 309.336 284.044C309.038 284.044 308.797 284.406 308.797 284.853C308.797 285.3 309.038 285.663 309.336 285.663Z" fill="#FF6584"/>
<path d="M302.863 282.965C303.161 282.965 303.403 282.603 303.403 282.156C303.403 281.709 303.161 281.346 302.863 281.346C302.566 281.346 302.324 281.709 302.324 282.156C302.324 282.603 302.566 282.965 302.863 282.965Z" fill="#FF6584"/>
<path d="M323.893 265.698C328.658 265.698 332.521 261.833 332.521 257.065C332.521 252.296 328.658 248.431 323.893 248.431C319.128 248.431 315.266 252.296 315.266 257.065C315.266 261.833 319.128 265.698 323.893 265.698Z" fill="#FF6584"/>
<path opacity="0.2" d="M330.364 257.604C330.364 259.322 329.682 260.969 328.468 262.183C327.255 263.397 325.609 264.08 323.893 264.08C322.177 264.08 320.531 263.397 319.317 262.183C318.104 260.969 317.422 259.322 317.422 257.604" fill="black"/>
<path opacity="0.2" d="M317.422 256.525C317.422 254.808 318.104 253.161 319.317 251.946C320.531 250.732 322.177 250.05 323.893 250.05C325.609 250.05 327.255 250.732 328.468 251.946C329.682 253.161 330.364 254.808 330.364 256.525" fill="black"/>
<path d="M320.66 254.906C320.958 254.906 321.2 254.544 321.2 254.097C321.2 253.65 320.958 253.288 320.66 253.288C320.363 253.288 320.121 253.65 320.121 254.097C320.121 254.544 320.363 254.906 320.66 254.906Z" fill="#FF6584"/>
<path d="M323.895 253.827C324.193 253.827 324.434 253.465 324.434 253.018C324.434 252.571 324.193 252.208 323.895 252.208C323.597 252.208 323.355 252.571 323.355 253.018C323.355 253.465 323.597 253.827 323.895 253.827Z" fill="#FF6584"/>
<path d="M323.895 260.842C324.193 260.842 324.434 260.48 324.434 260.033C324.434 259.586 324.193 259.223 323.895 259.223C323.597 259.223 323.355 259.586 323.355 260.033C323.355 260.48 323.597 260.842 323.895 260.842Z" fill="#FF6584"/>
<path d="M327.129 256.525C327.427 256.525 327.668 256.163 327.668 255.716C327.668 255.269 327.427 254.906 327.129 254.906C326.831 254.906 326.59 255.269 326.59 255.716C326.59 256.163 326.831 256.525 327.129 256.525Z" fill="#FF6584"/>
<path d="M326.59 262.461C326.888 262.461 327.129 262.098 327.129 261.651C327.129 261.204 326.888 260.842 326.59 260.842C326.292 260.842 326.051 261.204 326.051 261.651C326.051 262.098 326.292 262.461 326.59 262.461Z" fill="#FF6584"/>
<path d="M320.121 259.763C320.419 259.763 320.661 259.4 320.661 258.953C320.661 258.506 320.419 258.144 320.121 258.144C319.823 258.144 319.582 258.506 319.582 258.953C319.582 259.4 319.823 259.763 320.121 259.763Z" fill="#FF6584"/>
<path d="M341.151 277.569C345.916 277.569 349.779 273.704 349.779 268.936C349.779 264.168 345.916 260.302 341.151 260.302C336.386 260.302 332.523 264.168 332.523 268.936C332.523 273.704 336.386 277.569 341.151 277.569Z" fill="#CE8585"/>
<path opacity="0.2" d="M347.621 269.475C347.621 271.192 346.94 272.839 345.726 274.054C344.513 275.268 342.867 275.95 341.151 275.95C339.434 275.95 337.788 275.268 336.575 274.054C335.361 272.839 334.68 271.192 334.68 269.475" fill="black"/>
<path opacity="0.2" d="M334.68 268.396C334.68 266.679 335.361 265.032 336.575 263.817C337.788 262.603 339.434 261.921 341.151 261.921C342.867 261.921 344.513 262.603 345.726 263.817C346.94 265.032 347.621 266.679 347.621 268.396" fill="black"/>
<path d="M337.914 266.777C338.212 266.777 338.453 266.415 338.453 265.968C338.453 265.521 338.212 265.159 337.914 265.159C337.616 265.159 337.375 265.521 337.375 265.968C337.375 266.415 337.616 266.777 337.914 266.777Z" fill="#CE8585"/>
<path d="M341.149 265.698C341.446 265.698 341.688 265.335 341.688 264.888C341.688 264.441 341.446 264.079 341.149 264.079C340.851 264.079 340.609 264.441 340.609 264.888C340.609 265.335 340.851 265.698 341.149 265.698Z" fill="#CE8585"/>
<path d="M341.149 272.713C341.446 272.713 341.688 272.35 341.688 271.903C341.688 271.456 341.446 271.094 341.149 271.094C340.851 271.094 340.609 271.456 340.609 271.903C340.609 272.35 340.851 272.713 341.149 272.713Z" fill="#CE8585"/>
<path d="M344.387 268.396C344.685 268.396 344.926 268.034 344.926 267.587C344.926 267.14 344.685 266.777 344.387 266.777C344.089 266.777 343.848 267.14 343.848 267.587C343.848 268.034 344.089 268.396 344.387 268.396Z" fill="#CE8585"/>
<path d="M343.844 274.332C344.142 274.332 344.383 273.969 344.383 273.522C344.383 273.075 344.142 272.713 343.844 272.713C343.546 272.713 343.305 273.075 343.305 273.522C343.305 273.969 343.546 274.332 343.844 274.332Z" fill="#CE8585"/>
<path d="M337.375 271.633C337.673 271.633 337.914 271.271 337.914 270.824C337.914 270.377 337.673 270.015 337.375 270.015C337.077 270.015 336.836 270.377 336.836 270.824C336.836 271.271 337.077 271.633 337.375 271.633Z" fill="#CE8585"/>
<path d="M298.011 278.648C302.776 278.648 306.638 274.783 306.638 270.015C306.638 265.247 302.776 261.381 298.011 261.381C293.246 261.381 289.383 265.247 289.383 270.015C289.383 274.783 293.246 278.648 298.011 278.648Z" fill="#CE8585"/>
<path opacity="0.2" d="M304.481 270.554C304.481 272.271 303.799 273.918 302.585 275.133C301.372 276.347 299.726 277.029 298.01 277.029C296.294 277.029 294.648 276.347 293.434 275.133C292.221 273.918 291.539 272.271 291.539 270.554" fill="black"/>
<path opacity="0.2" d="M291.539 269.475C291.539 267.758 292.221 266.111 293.434 264.897C294.648 263.682 296.294 263 298.01 263C299.726 263 301.372 263.682 302.585 264.897C303.799 266.111 304.481 267.758 304.481 269.475" fill="black"/>
<path d="M294.774 267.857C295.071 267.857 295.313 267.494 295.313 267.047C295.313 266.6 295.071 266.238 294.774 266.238C294.476 266.238 294.234 266.6 294.234 267.047C294.234 267.494 294.476 267.857 294.774 267.857Z" fill="#CE8585"/>
<path d="M298.012 266.777C298.31 266.777 298.551 266.415 298.551 265.968C298.551 265.521 298.31 265.159 298.012 265.159C297.714 265.159 297.473 265.521 297.473 265.968C297.473 266.415 297.714 266.777 298.012 266.777Z" fill="#CE8585"/>
<path d="M298.012 273.792C298.31 273.792 298.551 273.43 298.551 272.983C298.551 272.536 298.31 272.173 298.012 272.173C297.714 272.173 297.473 272.536 297.473 272.983C297.473 273.43 297.714 273.792 298.012 273.792Z" fill="#CE8585"/>
<path d="M301.246 269.475C301.544 269.475 301.785 269.113 301.785 268.666C301.785 268.219 301.544 267.856 301.246 267.856C300.948 267.856 300.707 268.219 300.707 268.666C300.707 269.113 300.948 269.475 301.246 269.475Z" fill="#CE8585"/>
<path d="M300.707 275.411C301.005 275.411 301.246 275.048 301.246 274.601C301.246 274.154 301.005 273.792 300.707 273.792C300.409 273.792 300.168 274.154 300.168 274.601C300.168 275.048 300.409 275.411 300.707 275.411Z" fill="#CE8585"/>
<path d="M294.235 272.713C294.532 272.713 294.774 272.35 294.774 271.903C294.774 271.456 294.532 271.094 294.235 271.094C293.937 271.094 293.695 271.456 293.695 271.903C293.695 272.35 293.937 272.713 294.235 272.713Z" fill="#CE8585"/>
<path d="M317.425 282.426C322.19 282.426 326.053 278.56 326.053 273.792C326.053 269.024 322.19 265.159 317.425 265.159C312.66 265.159 308.797 269.024 308.797 273.792C308.797 278.56 312.66 282.426 317.425 282.426Z" fill="#CE8585"/>
<path opacity="0.2" d="M323.895 274.332C323.895 275.182 323.727 276.024 323.402 276.809C323.077 277.595 322.6 278.309 322 278.91C321.399 279.511 320.685 279.988 319.9 280.314C319.115 280.639 318.274 280.807 317.424 280.807C316.574 280.807 315.733 280.639 314.948 280.314C314.163 279.988 313.449 279.511 312.848 278.91C312.248 278.309 311.771 277.595 311.446 276.809C311.12 276.024 310.953 275.182 310.953 274.332" fill="black"/>
<path opacity="0.2" d="M310.953 273.252C310.953 272.402 311.12 271.56 311.446 270.775C311.771 269.989 312.248 269.275 312.848 268.674C313.449 268.073 314.163 267.596 314.948 267.27C315.733 266.945 316.574 266.777 317.424 266.777C318.274 266.777 319.115 266.945 319.9 267.27C320.685 267.596 321.399 268.073 322 268.674C322.6 269.275 323.077 269.989 323.402 270.775C323.727 271.56 323.895 272.402 323.895 273.252" fill="black"/>
<path d="M314.188 271.633C314.485 271.633 314.727 271.271 314.727 270.824C314.727 270.377 314.485 270.015 314.188 270.015C313.89 270.015 313.648 270.377 313.648 270.824C313.648 271.271 313.89 271.633 314.188 271.633Z" fill="#CE8585"/>
<path d="M317.422 270.554C317.72 270.554 317.961 270.192 317.961 269.745C317.961 269.298 317.72 268.936 317.422 268.936C317.124 268.936 316.883 269.298 316.883 269.745C316.883 270.192 317.124 270.554 317.422 270.554Z" fill="#CE8585"/>
<path d="M317.422 277.569C317.72 277.569 317.961 277.207 317.961 276.76C317.961 276.313 317.72 275.95 317.422 275.95C317.124 275.95 316.883 276.313 316.883 276.76C316.883 277.207 317.124 277.569 317.422 277.569Z" fill="#CE8585"/>
<path d="M320.66 273.253C320.958 273.253 321.2 272.89 321.2 272.443C321.2 271.996 320.958 271.634 320.66 271.634C320.363 271.634 320.121 271.996 320.121 272.443C320.121 272.89 320.363 273.253 320.66 273.253Z" fill="#CE8585"/>
<path d="M320.121 279.188C320.419 279.188 320.661 278.825 320.661 278.378C320.661 277.931 320.419 277.569 320.121 277.569C319.823 277.569 319.582 277.931 319.582 278.378C319.582 278.825 319.823 279.188 320.121 279.188Z" fill="#CE8585"/>
<path d="M313.649 276.49C313.946 276.49 314.188 276.127 314.188 275.68C314.188 275.233 313.946 274.871 313.649 274.871C313.351 274.871 313.109 275.233 313.109 275.68C313.109 276.127 313.351 276.49 313.649 276.49Z" fill="#CE8585"/>
<path d="M330.905 291.598C335.67 291.598 339.533 287.733 339.533 282.965C339.533 278.197 335.67 274.332 330.905 274.332C326.14 274.332 322.277 278.197 322.277 282.965C322.277 287.733 326.14 291.598 330.905 291.598Z" fill="#FF6584"/>
<path opacity="0.2" d="M337.375 283.504C337.375 285.222 336.694 286.869 335.48 288.083C334.267 289.297 332.621 289.979 330.904 289.979C329.188 289.979 327.542 289.297 326.329 288.083C325.115 286.869 324.434 285.222 324.434 283.504" fill="black"/>
<path opacity="0.2" d="M324.434 282.425C324.434 280.708 325.115 279.061 326.329 277.847C327.542 276.632 329.188 275.95 330.904 275.95C332.621 275.95 334.267 276.632 335.48 277.847C336.694 279.061 337.375 280.708 337.375 282.425" fill="black"/>
<path d="M327.668 280.807C327.966 280.807 328.207 280.444 328.207 279.997C328.207 279.55 327.966 279.188 327.668 279.188C327.37 279.188 327.129 279.55 327.129 279.997C327.129 280.444 327.37 280.807 327.668 280.807Z" fill="#FF6584"/>
<path d="M330.903 279.728C331.2 279.728 331.442 279.365 331.442 278.918C331.442 278.471 331.2 278.109 330.903 278.109C330.605 278.109 330.363 278.471 330.363 278.918C330.363 279.365 330.605 279.728 330.903 279.728Z" fill="#FF6584"/>
<path d="M330.903 286.742C331.2 286.742 331.442 286.38 331.442 285.933C331.442 285.486 331.2 285.124 330.903 285.124C330.605 285.124 330.363 285.486 330.363 285.933C330.363 286.38 330.605 286.742 330.903 286.742Z" fill="#FF6584"/>
<path d="M334.141 282.425C334.439 282.425 334.68 282.063 334.68 281.616C334.68 281.169 334.439 280.807 334.141 280.807C333.843 280.807 333.602 281.169 333.602 281.616C333.602 282.063 333.843 282.425 334.141 282.425Z" fill="#FF6584"/>
<path d="M333.602 288.361C333.9 288.361 334.141 287.999 334.141 287.552C334.141 287.105 333.9 286.742 333.602 286.742C333.304 286.742 333.062 287.105 333.062 287.552C333.062 287.999 333.304 288.361 333.602 288.361Z" fill="#FF6584"/>
<path d="M327.129 285.663C327.427 285.663 327.668 285.3 327.668 284.853C327.668 284.406 327.427 284.044 327.129 284.044C326.831 284.044 326.59 284.406 326.59 284.853C326.59 285.3 326.831 285.663 327.129 285.663Z" fill="#FF6584"/>
<path d="M219.951 252.338C221.214 252.338 222.238 251.314 222.238 250.05C222.238 248.786 221.214 247.762 219.951 247.762C218.688 247.762 217.664 248.786 217.664 250.05C217.664 251.314 218.688 252.338 219.951 252.338Z" fill="#3F3D56"/>
<path d="M282.115 333.113L227.191 317.872L229.295 310.051L284.219 325.293L282.115 333.113Z" fill="#F9A825"/>
<path d="M274.062 330.499C255.254 334.102 235.933 334.102 217.125 330.499V322.393C235.975 325.519 255.211 325.519 274.062 322.393V330.499Z" fill="#F9A825"/>
<path d="M279.913 306.18C261.105 309.783 241.785 309.783 222.977 306.18V298.074C241.827 301.2 261.063 301.2 279.913 298.074V306.18Z" fill="#F9A825"/>
<path d="M299.605 315.908C280.797 319.511 261.476 319.511 242.668 315.908V307.801C261.518 310.928 280.754 310.928 299.605 307.801V315.908Z" fill="#F9A825"/>
<path d="M304.394 325.095C285.586 328.698 266.265 328.698 247.457 325.095V316.988C266.307 320.115 285.543 320.115 304.394 316.988V325.095Z" fill="#F9A825"/>
<path d="M321.089 337.1L264.916 346.542L263.613 338.544L319.786 329.102L321.089 337.1Z" fill="#F9A825"/>
<path d="M312.697 338.139C297.124 349.373 279.571 357.565 260.962 362.285L257.629 354.919C276.076 349.75 293.552 341.594 309.365 330.773L312.697 338.139Z" fill="#F9A825"/>
<path d="M308.018 313.559C292.444 324.793 274.892 332.985 256.282 337.705L252.949 330.339C271.396 325.17 288.872 317.014 304.685 306.193L308.018 313.559Z" fill="#F9A825"/>
<path d="M329.908 314.049C314.335 325.283 296.782 333.474 278.173 338.194L274.84 330.829C293.287 325.66 310.763 317.503 326.576 306.683L329.908 314.049Z" fill="#F9A825"/>
<path d="M338.037 320.366C322.464 331.599 304.911 339.791 286.302 344.511L282.969 337.145C301.415 331.977 318.892 323.82 334.704 313L338.037 320.366Z" fill="#F9A825"/>
<path d="M269.97 304.549H267.273V307.247H269.97V304.549Z" fill="#00BF71"/>
<path d="M278.059 351.493H275.363V354.191H278.059V351.493Z" fill="#00BF71"/>
<path d="M234.919 304.549H232.223V307.247H234.919V304.549Z" fill="#00BF71"/>
<path d="M297.47 338.003H294.773V340.701H297.47V338.003Z" fill="#00BF71"/>
<path d="M299.091 322.355H296.395V325.053H299.091V322.355Z" fill="#00BF71"/>
<path d="M254.612 314.968L251.488 312.848L250.277 314.634L253.401 316.754L254.612 314.968Z" fill="#00BF71"/>
<path d="M286.428 320.903L283.305 318.783L282.094 320.569L285.217 322.689L286.428 320.903Z" fill="#00BF71"/>
<path d="M247.6 331.156L244.477 329.035L243.266 330.821L246.389 332.942L247.6 331.156Z" fill="#00BF71"/>
<path d="M267.377 330.999L269.496 327.873L267.711 326.661L265.592 329.787L267.377 330.999Z" fill="#00BF71"/>
<path d="M281.935 334.776L284.055 331.65L282.27 330.439L280.151 333.564L281.935 334.776Z" fill="#00BF71"/>
<path d="M320.764 321.825L322.883 318.7L321.098 317.488L318.979 320.614L320.764 321.825Z" fill="#00BF71"/>
<path d="M576 414.445H-40V416H576V414.445Z" fill="#3F3D56"/>
</g>
<path d="M559.687 329.642L568.376 303.271L584.133 306.133L573.954 333.687C574.278 334.523 574.488 335.42 574.558 336.361C574.938 341.48 571.096 345.937 565.977 346.317C560.859 346.696 556.402 342.855 556.022 337.736C555.78 334.472 557.259 331.482 559.687 329.642Z" fill="#FFB6B6"/>
<path d="M603.997 155.885L596.716 157.756L578.402 241.532L574.438 245.496L576.081 249.105L574.438 255.451L562.355 315.708L589.109 326.362L616.359 202L603.997 155.885Z" fill="#CE8585"/>
<path d="M645.308 585.417L632.989 585.415L627.129 537.9L645.31 537.901L645.308 585.417Z" fill="#FFB6B6"/>
<path d="M645.741 598.267L607.859 598.266V597.787C607.86 589.644 614.461 583.043 622.604 583.042L629.524 577.793L642.435 583.043L645.742 583.043L645.741 598.267Z" fill="#2F2E41"/>
<path d="M577.831 585.417L565.512 585.415L559.652 537.9L577.834 537.901L577.831 585.417Z" fill="#FFB6B6"/>
<path d="M578.265 598.267L540.383 598.266V597.787C540.383 589.644 546.984 583.043 555.127 583.042L562.048 577.793L574.958 583.043L578.265 583.043L578.265 598.267Z" fill="#2F2E41"/>
<path d="M677.926 583.978C679.835 584.098 680.891 581.725 679.446 580.343L679.302 579.771C679.321 579.725 679.34 579.68 679.359 579.634C681.291 575.029 687.836 575.061 689.75 579.673C691.45 583.766 693.613 587.866 694.146 592.194C694.385 594.104 694.278 596.05 693.854 597.925C697.836 589.226 699.931 579.728 699.931 570.176C699.931 567.776 699.8 565.376 699.531 562.982C699.31 561.023 699.006 559.077 698.612 557.149C696.481 546.725 691.866 536.796 685.209 528.504C682.009 526.754 679.34 524.02 677.728 520.742C677.149 519.56 676.695 518.289 676.48 516.993C676.845 517.041 677.854 511.495 677.579 511.154C678.086 510.384 678.995 510.001 679.549 509.25C682.306 505.512 686.104 506.165 688.087 511.244C692.322 513.382 692.363 516.927 689.764 520.336C688.111 522.506 687.884 525.441 686.433 527.763C686.582 527.954 686.737 528.139 686.887 528.331C689.624 531.841 691.991 535.614 693.986 539.579C693.422 535.173 694.255 529.865 695.675 526.444C697.291 522.546 700.319 519.263 702.987 515.893C706.19 511.845 712.76 513.611 713.324 518.743C713.33 518.792 713.335 518.842 713.34 518.892C712.944 519.115 712.556 519.353 712.177 519.603C710.015 521.034 710.762 524.386 713.324 524.781L713.382 524.79C713.239 526.217 712.994 527.632 712.636 529.023C716.058 542.256 708.67 547.075 698.122 547.292C697.89 547.411 697.663 547.531 697.43 547.644C698.499 550.653 699.352 553.74 699.985 556.868C700.552 559.632 700.946 562.426 701.167 565.232C701.442 568.773 701.418 572.331 701.119 575.865L701.137 575.74C701.896 571.847 704.009 568.211 707.078 565.692C711.649 561.937 718.108 560.554 723.039 557.535C725.413 556.082 728.456 557.96 728.041 560.712L728.021 560.844C727.287 561.143 726.57 561.489 725.878 561.877C725.482 562.101 725.094 562.338 724.714 562.589C722.552 564.019 723.299 567.371 725.862 567.767L725.92 567.776C725.961 567.782 725.997 567.788 726.039 567.794C724.779 570.785 723.024 573.561 720.827 575.955C718.688 587.506 709.498 588.602 699.669 585.238H699.663C698.588 589.919 697.018 594.492 695 598.85H678.343C678.283 598.665 678.23 598.474 678.176 598.289C679.716 598.385 681.269 598.295 682.785 598.015C681.549 596.498 680.313 594.97 679.078 593.453C679.048 593.424 679.024 593.394 679 593.364C678.373 592.588 677.74 591.818 677.113 591.041L677.113 591.041C677.074 588.658 677.36 586.283 677.926 583.978Z" fill="#F2F2F2"/>
<path d="M491.625 598.9C491.625 599.51 492.115 600 492.725 600H726.851C727.461 600 727.951 599.51 727.951 598.9C727.951 598.29 727.461 597.8 726.851 597.8H492.725C492.115 597.8 491.625 598.29 491.625 598.9Z" fill="#CCCCCC"/>
<path d="M676.47 291.697L580.582 296.294L554.701 415.055L562.096 434.501L551.652 443.731L562.096 456.685L557.926 560.598L580.11 562.447L612.35 385.709L626.327 564.296L648.017 564.576L652.681 555.373L647.587 543.036L652.681 534.411C652.681 534.411 668.867 457.793 660.076 441.257L686.853 293.479L676.47 291.697Z" fill="#2F2E41"/>
<path d="M664.885 114.405L628.318 117.539L623.004 130.671L596.719 157.756L577.338 308.254C577.338 308.254 574.234 316.581 598.267 310.111C622.3 303.641 686.41 311.027 686.41 311.027C694.267 301.336 692.627 291.551 682.217 281.678L678.091 252.793L701.561 144.563C702.914 138.327 698.708 132.247 692.394 131.313L670.734 128.111L664.885 114.405Z" fill="#CE8585"/>
<path d="M643.042 112.076C658.337 112.076 670.736 99.6773 670.736 84.3823C670.736 69.0873 658.337 56.6882 643.042 56.6882C627.747 56.6882 615.348 69.0873 615.348 84.3823C615.348 99.6773 627.747 112.076 643.042 112.076Z" fill="#FFB6B6"/>
<path d="M610.76 75.3833C608.862 81.736 612.702 89.0014 617.683 83.8904C619.865 81.6523 619.77 78.8645 622.784 78.0585C625.218 77.4049 627.838 78.1519 630.058 79.3301C630.454 79.538 632.23 74.3482 632.604 74.573C632.851 74.4078 631.707 79.6682 631.971 79.5247C633.926 78.4657 636.301 78.198 638.448 78.7962C636.735 79.3451 635.241 80.4924 634.181 81.941C634.924 82.4389 635.677 82.9382 636.447 83.3806C637.894 84.2157 651.094 83.4726 652.758 83.3063C660.744 82.5086 656.785 87.5981 660.081 94.9165C660.163 95.0995 660.247 95.285 660.331 95.473L660.458 95.9417C660.249 93.879 666.632 92.3417 666.262 95.2454C665.999 97.307 664.215 101.889 663.215 103.71C672.79 97.1672 682.115 90.1598 674.171 75.0172C673.152 73.0743 674.015 70.5317 672.889 68.6373C671.762 66.7527 669.413 65.4302 667.334 66.1488C667.682 59.5635 659.689 54.7102 654.057 51.2872C648.414 47.863 644.956 49.7889 639.267 53.1359C636.609 54.6955 635.22 56.2321 632.379 55.0143C626.911 52.6701 624.512 54.9009 624.046 58.7324C623.81 60.68 619.954 58.3485 618.271 59.3634C616.32 60.5411 615.987 63.0067 615.694 65.3793C617.413 65.5493 619.096 66.236 620.43 67.3502C618.646 67.1426 616.81 67.5774 615.252 68.4607C615.22 68.4764 615.189 68.492 615.167 68.509C614.136 72.4301 614.242 73.2993 610.76 75.3833Z" fill="#2F2E41"/>
<path d="M586.582 134.258C586.582 146.51 594.901 158.511 608.766 154.329C620.496 150.792 630.95 146.51 630.95 134.258C630.95 122.006 623.82 103.887 608.766 109.961C595.297 102.566 586.582 122.006 586.582 134.258Z" fill="#5EBC56"/>
<path d="M609.565 110.459C611.335 107.237 611.457 103.301 609.812 100.002C608.347 97.0629 605.446 94.875 602.249 94.1868C600.509 93.8122 599.765 96.4848 601.512 96.8607C603.996 97.3954 606.13 98.955 607.321 101.213C608.603 103.642 608.481 106.674 607.171 109.059C606.311 110.624 608.705 112.025 609.565 110.459Z" fill="#3F3D56"/>
<path d="M628.149 129.875L650.147 146.815L642.223 160.732L619.603 141.994C618.706 142.023 617.791 141.924 616.879 141.677C611.925 140.339 608.993 135.237 610.332 130.282C611.671 125.327 616.773 122.395 621.728 123.734C624.888 124.588 627.218 126.974 628.149 129.875Z" fill="#FFB6B6"/>
<path d="M714.4 226.917C710.787 226.917 707.167 225.648 704.272 223.089L624.109 152.238L645.402 125.897L689.571 177.849L685.127 138.26L688.506 137.213C697.028 134.573 706.101 139.209 708.955 147.662L728.933 206.824C730.758 212.346 729.337 218.332 725.224 222.444C722.253 225.416 718.331 226.916 714.4 226.917Z" fill="#CE8585"/>
</g>
<defs>
<clipPath id="clip0_335_173">
<rect width="900" height="600" fill="white" transform="translate(0.101562)"/>
</clipPath>
<clipPath id="clip1_335_173">
<rect width="616" height="337" fill="white" transform="translate(-40 79)"/>
</clipPath>
</defs>
</svg>
