<svg width="900" height="600" viewBox="0 0 900 600" fill="none" xmlns="http://www.w3.org/2000/svg">
<g clip-path="url(#clip0_335_123)">
<path d="M672.996 94H233.817C223.571 94 215.266 102.306 215.266 112.553V439.055C215.266 449.301 223.571 457.608 233.817 457.608H672.996C683.242 457.608 691.547 449.301 691.547 439.055V112.553C691.547 102.306 683.242 94 672.996 94Z" fill="#D7D7D8"/>
<path d="M233.816 98.263C225.938 98.263 219.527 104.675 219.527 112.553V439.047C219.527 446.925 225.938 453.336 233.816 453.336H672.995C680.873 453.336 687.284 446.925 687.284 439.047V112.553C687.284 104.675 680.873 98.263 672.995 98.263H233.816Z" fill="white"/>
<path d="M455.097 96.1741H451.695V455.834H455.097V96.1741Z" fill="#D7D7D8"/>
<path d="M433.18 154.731C435.84 154.731 437.997 152.574 437.997 149.913C437.997 147.253 435.84 145.096 433.18 145.096C430.52 145.096 428.363 147.253 428.363 149.913C428.363 152.574 430.52 154.731 433.18 154.731Z" fill="#D7D7D8"/>
<path d="M473.625 154.731C476.286 154.731 478.442 152.574 478.442 149.913C478.442 147.253 476.286 145.096 473.625 145.096C470.965 145.096 468.809 147.253 468.809 149.913C468.809 152.574 470.965 154.731 473.625 154.731Z" fill="#D7D7D8"/>
<path d="M433.18 217.678C435.84 217.678 437.997 215.521 437.997 212.861C437.997 210.2 435.84 208.044 433.18 208.044C430.52 208.044 428.363 210.2 428.363 212.861C428.363 215.521 430.52 217.678 433.18 217.678Z" fill="#D7D7D8"/>
<path d="M473.625 217.678C476.286 217.678 478.442 215.521 478.442 212.861C478.442 210.2 476.286 208.044 473.625 208.044C470.965 208.044 468.809 210.2 468.809 212.861C468.809 215.521 470.965 217.678 473.625 217.678Z" fill="#D7D7D8"/>
<path d="M433.18 280.617C435.84 280.617 437.997 278.46 437.997 275.8C437.997 273.139 435.84 270.982 433.18 270.982C430.52 270.982 428.363 273.139 428.363 275.8C428.363 278.46 430.52 280.617 433.18 280.617Z" fill="#D7D7D8"/>
<path d="M473.625 280.617C476.286 280.617 478.442 278.46 478.442 275.8C478.442 273.139 476.286 270.982 473.625 270.982C470.965 270.982 468.809 273.139 468.809 275.8C468.809 278.46 470.965 280.617 473.625 280.617Z" fill="#D7D7D8"/>
<path d="M433.18 343.564C435.84 343.564 437.997 341.407 437.997 338.747C437.997 336.086 435.84 333.93 433.18 333.93C430.52 333.93 428.363 336.086 428.363 338.747C428.363 341.407 430.52 343.564 433.18 343.564Z" fill="#D7D7D8"/>
<path d="M473.625 343.564C476.286 343.564 478.442 341.407 478.442 338.747C478.442 336.086 476.286 333.93 473.625 333.93C470.965 333.93 468.809 336.086 468.809 338.747C468.809 341.407 470.965 343.564 473.625 343.564Z" fill="#D7D7D8"/>
<path d="M433.18 406.503C435.84 406.503 437.997 404.346 437.997 401.686C437.997 399.025 435.84 396.868 433.18 396.868C430.52 396.868 428.363 399.025 428.363 401.686C428.363 404.346 430.52 406.503 433.18 406.503Z" fill="#D7D7D8"/>
<path d="M473.625 406.503C476.286 406.503 478.442 404.346 478.442 401.686C478.442 399.025 476.286 396.868 473.625 396.868C470.965 396.868 468.809 399.025 468.809 401.686C468.809 404.346 470.965 406.503 473.625 406.503Z" fill="#D7D7D8"/>
<path d="M433.622 147.688L432.727 146.239C432.948 146.102 454.978 132.793 474.108 146.264L473.128 147.663C454.918 134.839 433.826 147.56 433.622 147.688Z" fill="#D7D7D8"/>
<path d="M433.622 153.597L432.727 152.147C432.948 152.011 454.978 138.702 474.108 152.173L473.128 153.571C454.918 140.748 433.826 153.469 433.622 153.597Z" fill="#D7D7D8"/>
<path d="M433.622 210.908L432.727 209.459C432.948 209.322 454.978 196.013 474.108 209.484L473.128 210.883C454.918 198.06 433.826 210.78 433.622 210.908Z" fill="#D7D7D8"/>
<path d="M433.622 216.825L432.727 215.376C432.948 215.239 454.978 201.93 474.108 215.401L473.128 216.8C454.918 203.977 433.826 216.697 433.622 216.825Z" fill="#D7D7D8"/>
<path d="M433.622 274.128L432.727 272.679C432.948 272.543 454.978 259.234 474.108 272.705L473.128 274.103C454.918 261.28 433.826 274.001 433.622 274.128Z" fill="#D7D7D8"/>
<path d="M433.622 280.045L432.727 278.596C432.948 278.46 454.969 265.151 474.108 278.622L473.128 280.02C454.918 267.197 433.826 279.918 433.622 280.045Z" fill="#D7D7D8"/>
<path d="M433.622 337.349L432.727 335.899C432.948 335.763 454.978 322.454 474.108 335.925L473.128 337.323C454.918 324.508 433.826 337.221 433.622 337.349Z" fill="#D7D7D8"/>
<path d="M433.622 343.266L432.727 341.816C432.948 341.68 454.969 328.371 474.108 341.842L473.128 343.24C454.918 330.417 433.826 343.138 433.622 343.266Z" fill="#D7D7D8"/>
<path d="M433.622 400.569L432.727 399.119C432.948 398.983 454.978 385.674 474.108 399.145L473.128 400.535C454.918 387.712 433.826 400.432 433.622 400.56V400.569Z" fill="#D7D7D8"/>
<path d="M433.622 406.486L432.727 405.036C432.948 404.9 454.978 391.591 474.108 405.062L473.128 406.452C454.918 393.629 433.826 406.349 433.622 406.477V406.486Z" fill="#D7D7D8"/>
<path d="M561.299 189.295C561.299 189.295 543.754 191.273 542.62 218.445C541.674 241.09 539.747 253.709 548.963 258.432C552.254 260.12 556.124 260.265 559.645 259.114L597.242 246.752C597.242 246.752 597.804 205.997 584.786 196.09C571.768 186.183 561.299 189.295 561.299 189.295Z" fill="#2F2E43"/>
<path d="M582.021 251.756L562.992 258.014V230.62H580.256L582.021 251.756Z" fill="#F3A3A6"/>
<path d="M523.853 407.253C522.822 413.528 518.636 418.03 514.509 417.305C510.375 416.581 507.868 410.902 508.9 404.627C509.275 402.112 510.272 399.733 511.798 397.696L516.513 371.163L529.343 373.848L523.333 399.716C524.126 402.163 524.305 404.746 523.853 407.253Z" fill="#F3A3A6"/>
<path d="M567.42 583.673H549.602L539.27 488.446H566.815L567.42 583.673Z" fill="#F3A3A6"/>
<path d="M532.244 598.985C530.368 598.985 528.697 598.943 527.444 598.823C522.713 598.389 518.194 594.893 515.927 592.855C514.912 591.943 514.58 590.477 515.108 589.215C515.492 588.311 516.251 587.637 517.197 587.365L529.703 583.792L549.959 570.125L550.19 570.534C550.275 570.688 552.261 574.269 552.926 576.69C553.182 577.611 553.114 578.378 552.73 578.975C552.466 579.384 552.091 579.623 551.792 579.759C552.159 580.143 553.31 580.919 556.848 581.482C562.023 582.3 563.097 576.946 563.148 576.724L563.182 576.545L563.336 576.443C565.791 574.857 567.308 574.141 567.828 574.294C568.152 574.388 568.698 574.559 570.164 589.138C570.309 589.598 571.341 592.949 570.642 596.163C569.883 599.659 554.631 598.457 551.579 598.176C551.494 598.184 540.079 598.994 532.252 598.994L532.244 598.985Z" fill="#2F2E43"/>
<path d="M607.682 583.673H589.856L579.523 488.446H607.069L607.682 583.673Z" fill="#F3A3A6"/>
<path d="M572.51 598.985C570.634 598.985 568.963 598.943 567.71 598.823C562.978 598.389 558.46 594.893 556.192 592.855C555.178 591.943 554.845 590.477 555.374 589.215C555.757 588.311 556.516 587.637 557.462 587.365L569.969 583.792L590.225 570.125L590.455 570.534C590.541 570.688 592.527 574.269 593.192 576.69C593.448 577.611 593.379 578.378 592.996 578.975C592.732 579.384 592.356 579.623 592.058 579.759C592.425 580.143 593.576 580.919 597.114 581.482C602.288 582.3 603.363 576.946 603.414 576.724L603.448 576.545L603.601 576.443C606.065 574.857 607.574 574.141 608.094 574.294C608.418 574.388 608.964 574.559 610.43 589.138C610.575 589.598 611.607 592.949 610.907 596.163C610.149 599.659 594.897 598.457 591.845 598.176C591.76 598.184 580.344 598.994 572.518 598.994L572.51 598.985Z" fill="#2F2E43"/>
<path d="M612.806 349.771H526.215L557.341 247.314H591.868L612.806 349.771Z" fill="#00B0FF"/>
<path d="M562.791 247.331C562.791 247.331 541.282 246.769 539.023 252.43C536.755 258.091 510.156 392.81 510.156 392.81H527.701L562.791 247.34V247.331Z" fill="#00B0FF"/>
<path d="M565.347 238.2C575.818 238.2 584.307 229.71 584.307 219.238C584.307 208.766 575.818 200.276 565.347 200.276C554.876 200.276 546.387 208.766 546.387 219.238C546.387 229.71 554.876 238.2 565.347 238.2Z" fill="#F3A3A6"/>
<path d="M560.164 196.371C560.164 196.371 549.729 238.746 561.332 258.551L544.989 255.081C544.989 255.081 538.655 208.709 551.392 200.276L560.164 196.371Z" fill="#2F2E43"/>
<path d="M594.811 349.771H537.982L506.89 477.396C506.319 482.785 509.738 487.815 514.972 489.222C532.031 493.792 572.97 500.263 634.923 482.231C640.882 480.5 644.267 474.208 642.4 468.282L594.811 349.771Z" fill="#2F2E43"/>
<path d="M735 598.985C735 599.548 734.548 600 733.985 600H166.015C165.452 600 165 599.548 165 598.985C165 598.423 165.452 597.971 166.015 597.971H733.985C734.548 597.971 735 598.423 735 598.985Z" fill="#2F2E43"/>
<path d="M571.836 247.314L589.509 246.538C597.165 247.118 604.087 251.279 608.188 257.767C620.677 277.513 644.045 319.129 623.184 324.832C595.681 332.344 582.356 290.524 582.356 290.524L571.836 247.314Z" fill="#00B0FF"/>
<path d="M555.542 262.354L598.817 230.842C599.328 230.467 600.044 230.586 600.419 231.098L601.468 232.539C601.843 233.05 601.724 233.766 601.212 234.142L557.946 265.654H557.938L552.2 268.126L551.766 267.529L555.542 262.354Z" fill="#2F2E43"/>
<path d="M565.772 259.72C562.141 254.502 562.013 248.354 565.474 245.993C568.944 243.631 574.698 245.959 578.33 251.176C579.814 253.24 580.751 255.644 581.075 258.168L596.174 280.489L585.099 287.506L571.391 264.758C569.114 263.556 567.188 261.825 565.772 259.72Z" fill="#F3A3A6"/>
<path d="M574.707 277.769L587.18 266.285L611.843 289.254L588.91 304.933L574.707 277.769Z" fill="#00B0FF"/>
<path d="M259.485 158.712C277.005 158.039 294.541 157.749 312.078 157.851C329.614 157.953 346.861 158.439 364.227 159.318C374.116 159.812 383.989 160.434 393.861 161.185C395.506 161.313 395.498 158.746 393.861 158.627C376.376 157.305 358.865 156.376 341.337 155.83C323.809 155.285 306.554 155.148 289.162 155.379C279.264 155.515 269.366 155.771 259.477 156.154C257.84 156.214 257.832 158.772 259.477 158.712H259.485Z" fill="#00B0FF"/>
<path d="M259.485 187.649C277.005 186.976 294.541 186.686 312.078 186.788C329.614 186.891 346.861 187.377 364.227 188.255C374.116 188.749 383.989 189.372 393.861 190.122C395.506 190.25 395.498 187.683 393.861 187.564C376.376 186.243 358.865 185.313 341.337 184.768C323.809 184.222 306.554 184.086 289.162 184.316C279.264 184.452 269.366 184.708 259.477 185.092C257.84 185.151 257.832 187.709 259.477 187.649H259.485Z" fill="#2F2E43"/>
<path d="M259.485 216.587C273.705 216.032 287.934 215.401 302.171 215.154C314.345 214.941 326.519 215.137 338.676 215.725C347.346 216.143 356.008 216.732 364.67 217.38C366.315 217.507 366.306 214.941 364.67 214.822C350.484 213.747 336.28 212.869 322.052 212.596C309.878 212.366 297.695 212.631 285.529 213.04C276.851 213.338 268.172 213.688 259.485 214.029C257.848 214.088 257.839 216.646 259.485 216.587Z" fill="#2F2E43"/>
<path d="M259.484 245.524C274.54 244.944 289.604 244.33 304.668 244.108C318.155 243.904 331.651 244.083 345.129 244.697C354.106 245.106 363.075 245.677 372.043 246.359C373.689 246.487 373.68 243.921 372.043 243.802C357.022 242.668 341.983 241.823 326.928 241.568C313.432 241.329 299.936 241.568 286.449 241.994C277.464 242.275 268.478 242.625 259.493 242.974C257.856 243.034 257.847 245.592 259.493 245.532L259.484 245.524Z" fill="#2F2E43"/>
<path d="M259.485 274.452C273.176 273.924 286.851 273.088 300.534 272.449C311.838 271.92 323.143 271.741 334.456 272.116C342.93 272.398 351.396 272.926 359.844 273.566C361.49 273.694 361.481 271.127 359.844 271.008C346.204 269.976 332.546 269.252 318.863 269.354C307.533 269.439 296.229 270.096 284.924 270.701C276.45 271.153 267.967 271.562 259.485 271.895C257.848 271.954 257.839 274.521 259.485 274.452Z" fill="#2F2E43"/>
<path d="M259.485 303.39C277.005 302.716 294.541 302.426 312.078 302.528C329.614 302.631 346.861 303.117 364.227 303.995C374.116 304.489 383.989 305.112 393.861 305.862C395.506 305.99 395.498 303.424 393.861 303.304C376.376 301.983 358.865 301.053 341.337 300.508C323.809 299.962 306.554 299.826 289.162 300.056C279.264 300.192 269.366 300.448 259.477 300.832C257.84 300.891 257.832 303.449 259.477 303.39H259.485Z" fill="#2F2E43"/>
</g>
<defs>
<clipPath id="clip0_335_123">
<rect width="570" height="506" fill="white" transform="translate(165 94)"/>
</clipPath>
</defs>
</svg>
