<svg width="901" height="600" viewBox="0 0 901 600" fill="none" xmlns="http://www.w3.org/2000/svg">
<g clip-path="url(#clip0_342_511)">
<path d="M795.779 323.855H134.093C125.223 323.855 118.008 316.645 118.008 307.782V82.0727C118.008 73.2102 125.223 66 134.093 66H795.779C804.648 66 811.863 73.2102 811.863 82.0727V307.782C811.863 316.645 804.648 323.855 795.779 323.855ZM134.093 67.9162C126.281 67.9162 119.925 74.267 119.925 82.0727V307.782C119.925 315.588 126.281 321.939 134.093 321.939H795.779C803.59 321.939 809.946 315.588 809.946 307.782V82.0727C809.946 74.267 803.59 67.9162 795.779 67.9162H134.093Z" fill="#3F3D56"/>
<path d="M858.898 593.495H42.8984V595.107H858.898V593.495Z" fill="#E6E6E6"/>
<path d="M858.898 511.097H42.8984V512.71H858.898V511.097Z" fill="#E6E6E6"/>
<path d="M414.774 332.156C415.36 339.514 419.634 345.176 424.321 344.803C429.007 344.43 432.33 338.163 431.742 330.802C431.548 327.858 430.651 325.004 429.127 322.478L426.25 291.332L411.652 292.992L416.038 323.52C414.933 326.257 414.499 329.218 414.774 332.156Z" fill="#FFB6B6"/>
<path d="M397.336 186.849C397.336 186.849 410.982 179.631 417.901 190.418C424.821 201.205 429.596 317.867 429.596 317.867L410.418 319.913L406.782 237.705L397.336 186.849Z" fill="#E6E6E6"/>
<path d="M369.01 505.01L380.12 505.009L385.406 462.187L369.008 462.188L369.01 505.01Z" fill="#FFB6B6"/>
<path d="M407.077 504.759C407.423 505.341 407.606 507.22 407.606 507.897C407.606 509.978 405.917 511.665 403.835 511.665H369.427C368.006 511.665 366.855 510.514 366.855 509.094V507.663C366.855 507.663 365.153 503.361 368.657 498.058C368.657 498.058 373.012 502.21 379.52 495.707L381.44 492.233L395.332 502.385L403.032 503.332C404.717 503.54 406.211 503.3 407.077 504.759Z" fill="#2F2E41"/>
<path d="M433.308 503.172L444.072 500.424L438.587 457.626L422.699 461.683L433.308 503.172Z" fill="#FFB6B6"/>
<path d="M470.127 493.514C470.606 493.993 471.249 495.768 471.416 496.424C471.932 498.44 470.714 500.492 468.696 501.008L435.359 509.517C433.983 509.868 432.582 509.038 432.23 507.663L431.875 506.276C431.875 506.276 429.161 502.528 431.243 496.524C431.243 496.524 436.491 499.47 441.186 491.559L442.185 487.719L458.159 494.12L465.855 493.133C467.538 492.917 468.926 492.316 470.127 493.514Z" fill="#2F2E41"/>
<path d="M359.82 177.644L359.293 173.824L365.554 158.544L382.757 156.634L386.471 178.509L359.82 177.644Z" fill="#FFB6B6"/>
<path opacity="0.1" d="M359.82 177.644L359.293 173.824L365.554 158.544L382.757 156.634L386.471 178.509L359.82 177.644Z" fill="black"/>
<path d="M339.751 285.558L332.105 306.568L337.84 318.028L366.511 484.197H385.573L381.803 337.128L425.766 484.197H444.632L429.46 384.878L418.12 293.198L411.241 288.952L377.98 270.278L339.751 285.558Z" fill="#2F2E41"/>
<path d="M388.49 299.883L377.022 301.793L361.73 265.503H396.136L388.49 299.883Z" fill="#E6E6E6"/>
<path d="M411.429 290.333L388.491 299.883L380.846 282.693L377.023 301.793L336.883 288.882L342.617 265.503L336.883 189.104L357.125 175.619L359.82 173.824L384.669 175.734L386.848 176.918L401.871 185.284L405.694 248.313L411.429 290.333Z" fill="#2F2E41"/>
<path d="M386.848 176.918L376.067 222.528L357.125 175.619L359.82 173.824L384.669 175.734L386.848 176.918Z" fill="#E6E6E6"/>
<path d="M368.421 173.824L364.598 180.403L368.421 182.596L366.509 222.647L374.155 233.033L381.801 217.683L376.066 182.596L377.978 173.824H368.421Z" fill="#2F2E41"/>
<path d="M374.155 170.004C384.183 170.004 392.313 161.88 392.313 151.859C392.313 141.838 384.183 133.714 374.155 133.714C364.126 133.714 355.996 141.838 355.996 151.859C355.996 161.88 364.126 170.004 374.155 170.004Z" fill="#FFB6B6"/>
<path d="M362.554 153.451L366.477 155.162L368.189 144.896C368.189 144.896 375.039 141.474 380.176 143.185C385.313 144.896 393.874 143.185 393.874 143.185C393.874 143.185 393.874 126.074 381.888 126.074C369.902 126.074 357.915 127.785 357.915 132.918C357.915 138.051 352.779 143.185 352.779 143.185C352.779 143.185 345.929 153.451 352.779 160.295C359.628 167.139 363.052 167.139 363.052 167.139L362.554 153.451Z" fill="#2F2E41"/>
<path d="M327.316 331.619C327.117 338.998 330.766 345.081 335.465 345.207C340.165 345.333 344.135 339.454 344.333 332.072C344.453 329.125 343.864 326.192 342.617 323.518L343.065 292.243L328.373 292.346L329.491 323.166C328.101 325.77 327.355 328.668 327.316 331.619Z" fill="#FFB6B6"/>
<path d="M345.494 185.248C345.494 185.248 333.07 181.428 327.336 192.888C321.601 204.348 329.247 320.857 329.247 320.857H348.535L343.416 238.728L345.494 185.248Z" fill="#E6E6E6"/>
<path d="M822.102 402.305L775.77 388.132C774.745 387.818 773.67 387.704 772.602 387.795L537.782 407.764C534.433 408.049 533.592 412.562 536.613 414.032L544.135 417.694H543.934V592.982H551.022V421.047L574.595 432.523C576.399 433.401 578.412 433.759 580.408 433.557L582.916 433.304V592.982H590.004V432.589L771.626 414.257V592.982H778.714V413.542L808.836 410.501V592.982H815.924V409.786L821.419 409.231C825.277 408.842 825.81 403.439 822.102 402.305Z" fill="#3F3D56"/>
<path d="M605.953 407.071C610.383 407.071 675.944 399.103 675.944 399.103L685.69 412.382L617.471 425.662L605.953 407.071Z" fill="white"/>
<path d="M677.905 586.174L666.515 586.154L661.172 542.243L677.983 542.273L677.905 586.174Z" fill="#A0616A"/>
<path d="M638.879 585.849C638.524 586.445 638.333 588.371 638.332 589.065C638.328 591.199 640.056 592.932 642.191 592.935L677.466 592.996C678.922 592.998 680.105 591.82 680.108 590.365L680.11 588.897C680.11 588.897 681.863 584.49 678.28 579.047C678.28 579.047 673.807 583.296 667.146 576.618L665.185 573.053L650.925 583.437L643.029 584.394C641.301 584.603 639.77 584.356 638.879 585.849Z" fill="#2F2E41"/>
<path d="M739.039 565.755L730.052 572.528L699.629 541.114L712.893 531.118L739.039 565.755Z" fill="#A0616A"/>
<path d="M708.096 588.76C708.172 589.442 709.171 591.073 709.585 591.62C710.855 593.303 713.251 593.639 714.936 592.369L742.765 571.391C743.914 570.524 744.143 568.891 743.276 567.743L742.402 566.585C742.402 566.585 741.152 562.068 735.08 559.916C735.08 559.916 734.092 565.929 724.857 564.637L721.184 562.997L716.147 579.679L710.497 585.14C709.261 586.335 707.906 587.052 708.096 588.76Z" fill="#2F2E41"/>
<path d="M715.233 338.812C715.233 349.308 706.718 357.817 696.214 357.817C685.71 357.817 677.195 349.308 677.195 338.812C677.195 328.316 685.71 319.808 696.214 319.808C706.718 319.808 715.233 328.316 715.233 338.812Z" fill="#A0616A"/>
<path d="M713.44 448.389C713.44 448.389 643.415 444.428 639.451 452.349C635.488 460.271 660.88 569.079 660.88 569.079L683.534 564.335L672.482 487.996C672.482 487.996 730.917 503.46 738.844 484.976C746.772 466.493 744.489 459.611 744.489 459.611L713.44 448.389Z" fill="#2F2E41"/>
<path d="M731.381 435.092C731.381 435.092 662.802 449.782 661.076 458.469C659.351 467.156 712.643 565.377 712.643 565.377L733.234 554.813L702.367 484.115C702.367 484.115 762.814 483.581 765.566 463.661C768.318 443.741 764.295 437.707 764.295 437.707L731.381 435.092Z" fill="#2F2E41"/>
<path d="M739.204 360.593H706.256L683.712 397.559C683.712 397.559 678.427 421.448 683.712 424.027C688.997 426.605 688.997 454.33 688.997 454.33L744.489 459.611C744.489 459.611 752.416 376.436 749.774 368.514C747.131 360.593 739.204 360.593 739.204 360.593Z" fill="#00BFA6"/>
<path d="M687.015 385.017L683.712 424.026L646.559 408.271L637.692 403.814C635.956 401.551 633.702 399.737 631.12 398.523C624.698 395.396 617.881 396.17 615.889 400.253C613.898 404.335 617.488 410.178 623.908 413.303C626.457 414.588 629.277 415.244 632.131 415.216L658.075 429.941L658.106 429.883L658.221 430.088L698.906 447.068L708.267 395.858L687.015 385.017Z" fill="#A0616A"/>
<path d="M683.052 341.449C683.052 341.449 663.233 344.09 671.161 326.927C671.161 326.927 669.952 317.622 675.841 316.994C681.731 316.365 689.658 305.803 689.658 305.803C689.658 305.803 707.833 296.561 717.243 305.803C726.653 315.044 754.399 369.174 754.399 369.174L735.901 388.978C735.901 388.978 724.781 359.766 711.844 363.15C698.907 366.534 687.016 376.623 687.016 376.623C687.016 376.623 673.886 370.057 679.79 364.335C685.694 358.612 683.052 341.449 683.052 341.449Z" fill="#2F2E41"/>
<path d="M709.476 370.494C709.476 370.494 700.228 358.612 693.622 367.854C687.015 377.095 681.73 388.978 681.73 388.978L708.155 398.219L709.476 370.494Z" fill="#00BFA6"/>
<path d="M809.809 590.354L779.108 492.847L779.112 492.846H779.183L779.059 492.687L779.057 492.683L776.87 485.738L776.871 485.737C780.202 482.869 782.47 478.77 782.922 474.051L768.888 396.925C769.854 386.797 762.084 377.944 751.905 377.581L720.24 377.501C711.239 377.183 703.442 383.681 702.131 392.587L701.431 397.314L691.73 463.26C691.376 465.632 691.517 467.97 692.076 470.156L685.094 471.068L682.977 471.351L674.605 472.44L674.578 472.449L673.532 472.582H672.398V500.911H672.469V591.459C672.469 592.043 672.948 592.521 673.532 592.521C674.126 592.521 674.605 592.043 674.605 591.459V500.911H687.026L699.42 591.353C699.5 591.884 699.952 592.273 700.483 592.273C700.528 592.273 700.581 592.273 700.625 592.265C701.21 592.185 701.617 591.645 701.538 591.061L689.187 500.911H748.786C754.704 500.911 760.187 499.035 764.652 495.822L788.282 591.187C788.405 591.669 788.839 591.99 789.316 591.99C789.403 591.99 789.491 591.98 789.58 591.957C790.151 591.812 790.496 591.232 790.351 590.661L766.492 494.374C766.809 494.109 767.127 493.827 767.427 493.537L776.912 492.979L807.773 590.994C807.916 591.449 808.337 591.741 808.791 591.741C808.897 591.741 809.005 591.725 809.111 591.691C809.673 591.514 809.986 590.915 809.809 590.354ZM774.842 487.251C774.922 487.207 774.993 487.154 775.064 487.11L775.292 487.833L774.842 487.251Z" fill="#E6E6E6"/>
<path d="M207.402 425.076L228.064 411.946L236.464 417.009L207.402 450.378V425.076Z" fill="#FFB6B6"/>
<path d="M179.146 374.255C179.146 374.255 165.422 377.482 171.88 396.035C178.339 414.589 199.328 453.309 205.786 450.889C212.244 448.469 213.052 424.269 213.052 424.269C213.052 424.269 212.244 425.076 209.015 421.849C205.786 418.622 205.786 420.096 205.786 416.536C205.786 412.976 203.145 410.336 203.145 410.336L200.135 404.102C200.135 404.102 200.135 375.062 188.026 373.449C175.917 371.835 179.146 374.255 179.146 374.255Z" fill="#E6E6E6"/>
<path d="M243.262 416.141C248.621 410.786 250.283 403.763 246.972 400.455C243.662 397.148 236.634 398.808 231.274 404.163C225.915 409.518 224.254 416.541 227.564 419.849C230.874 423.157 237.903 421.497 243.262 416.141Z" fill="#FFB6B6"/>
<path d="M125.695 481.14L139.794 504.458L221.956 499.6L200.078 471.424L125.695 481.14Z" fill="#E6E6E6"/>
<path d="M150.245 590.201C149.767 590.201 149.35 589.848 149.283 589.361L124.732 410.188C124.659 409.656 125.031 409.166 125.563 409.093C126.095 409.017 126.585 409.392 126.658 409.924L151.21 589.098C151.283 589.629 150.91 590.12 150.378 590.192C150.334 590.198 150.289 590.201 150.245 590.201Z" fill="#E6E6E6"/>
<path d="M125.695 590.429C125.158 590.429 124.723 589.994 124.723 589.457V410.091C124.723 409.554 125.158 409.119 125.695 409.119C126.232 409.119 126.667 409.554 126.667 410.091V589.457C126.667 589.994 126.232 590.429 125.695 590.429Z" fill="#E6E6E6"/>
<path d="M248.936 589.716C248.523 589.716 248.139 589.45 248.009 589.036L189.912 404.518C189.751 404.006 190.036 403.461 190.548 403.3C191.06 403.139 191.606 403.423 191.767 403.935L249.864 588.452C250.025 588.964 249.74 589.51 249.228 589.671C249.131 589.701 249.033 589.716 248.936 589.716Z" fill="#E6E6E6"/>
<path d="M231.191 589.943C230.757 589.943 230.361 589.651 230.249 589.211L189.897 426.362C189.765 425.842 190.08 425.313 190.6 425.18C191.122 425.049 191.65 425.363 191.782 425.882L232.134 588.732C232.266 589.252 231.952 589.781 231.431 589.913C231.351 589.934 231.27 589.943 231.191 589.943Z" fill="#E6E6E6"/>
<path d="M125.695 412.948L193.029 411.914L205.426 482.597H126.668L125.695 412.948Z" fill="#E6E6E6"/>
<path d="M229.169 516.883L212.199 546.737L231.902 551.071L240.116 529.838L229.169 516.883Z" fill="#FFB6B6"/>
<path d="M218.296 541.1C218.296 541.1 217.636 536.232 213.76 537.777C209.883 539.322 198.695 545.063 198.695 545.063C198.695 545.063 227.876 592.443 233.414 590.236C238.952 588.029 232.323 574.636 232.323 574.636L233.786 550.962L218.296 541.1Z" fill="#2F2E41"/>
<path d="M154.123 458.956C154.123 458.956 148.068 486.786 166.636 496.466C185.203 506.146 248.575 482.349 248.575 482.349L219.513 525.862L239.695 533.976C239.695 533.976 285.71 473.476 282.481 463.796C279.252 454.116 257.455 453.309 257.455 453.309L208.211 455.729L195.294 451.696L154.123 458.956Z" fill="#2F2E41"/>
<path d="M204.064 530.133L177.387 551.77L194.16 562.971L209.544 546.181L204.064 530.133Z" fill="#FFB6B6"/>
<path d="M185.118 548.736C185.118 548.736 186.277 543.962 182.103 543.991C177.93 544.021 165.418 545.301 165.418 545.301C165.418 545.301 175.345 600.042 181.307 600C187.269 599.958 185.971 585.073 185.971 585.073L195.955 563.554L185.118 548.736Z" fill="#2F2E41"/>
<path d="M155.258 448.889C155.258 448.889 139.484 472.61 153.253 488.378C167.023 504.145 234.716 505.022 234.716 505.022L191.8 534.985L207.644 549.881C207.644 549.881 272.536 510.26 273.053 500.069C273.571 489.879 253.562 481.202 253.562 481.202L206.813 465.55L196.251 457.097L155.258 448.889Z" fill="#2F2E41"/>
<path d="M195.781 393.946C195.781 393.946 180.443 388.3 173.177 388.3C172.483 388.3 171.797 388.38 171.111 388.526C166.461 389.51 162.182 393.503 160.132 395.681C159.332 396.536 158.872 397.109 158.872 397.109C158.872 397.109 158.921 396.552 159.018 395.576C159.494 390.445 161.254 373.61 164.41 362.833C165.54 358.985 166.84 355.912 168.334 354.419C171.813 350.935 173.419 346.756 174.162 343.642C174.792 340.972 174.792 339.093 174.792 339.093L168.907 336.56L167.817 329.445C167.623 330.284 166.727 331.921 163.716 335.059C163.458 335.326 163.175 335.551 162.876 335.745C158.533 338.472 149.677 333.728 144.906 330.744C146.892 323.847 150.493 317.538 157.032 316.506C172.37 314.086 172.37 305.213 182.057 314.893C182.857 315.691 183.664 316.458 184.471 317.2C187.571 323.121 188.701 331.058 189.105 336.576C189.396 340.44 189.323 343.126 189.323 343.126C189.323 343.126 193.359 367.326 199.817 372.166C206.276 377.006 195.781 393.946 195.781 393.946Z" fill="#2F2E41"/>
<path d="M165.912 355.226L155.004 371.214L179.636 377.813V355.226H165.912Z" fill="#FFB6B6"/>
<path opacity="0.1" d="M165.912 355.226L155.004 371.214L179.636 377.813V355.226H165.912Z" fill="black"/>
<path d="M181.165 370.625L157.754 360.945C157.754 360.945 126.27 374.659 128.691 401.279C131.113 427.899 153.717 473.879 153.717 473.879L198.925 454.519L194.081 402.892L181.165 370.625Z" fill="#E6E6E6"/>
<path d="M171.127 362.364C182.534 362.364 191.781 353.124 191.781 341.725C191.781 330.327 182.534 321.086 171.127 321.086C159.72 321.086 150.473 330.327 150.473 341.725C150.473 353.124 159.72 362.364 171.127 362.364Z" fill="#FFB6B6"/>
<path d="M199.007 334.253C194.971 338.286 191.742 342.319 191.742 342.319L190.127 335.866C190.127 335.866 189.756 336.14 189.102 336.576C186.543 338.318 179.673 342.699 174.159 343.642C171.705 344.062 169.525 343.796 168.105 342.319C165.093 339.181 164.197 337.544 164.004 336.705L162.914 343.82L157.029 346.353C157.029 346.353 157.029 355.21 163.487 361.68C163.802 361.994 164.109 362.381 164.407 362.833C167.491 367.479 169.703 378.854 171.108 388.526C172.351 397.125 172.948 404.369 172.948 404.369C172.948 404.369 166.837 396.721 160.129 395.681C159.757 395.624 159.386 395.584 159.015 395.576C158.893 395.56 158.764 395.56 158.643 395.56C151.378 395.56 136.039 401.206 136.039 401.206C136.039 401.206 125.545 384.266 132.003 379.426C138.461 374.586 142.498 350.386 142.498 350.386C142.498 350.386 142.231 340.028 144.903 330.744C146.889 323.847 150.49 317.538 157.029 316.506C172.367 314.086 172.367 305.212 182.054 314.893C182.854 315.691 183.661 316.458 184.468 317.2C193.493 325.492 202.713 330.55 199.007 334.253Z" fill="#2F2E41"/>
<path d="M108.421 442.538H100.75V593.919H108.421V442.538Z" fill="#3F3D56"/>
<path d="M294.436 442.538H286.766V593.919H294.436V442.538Z" fill="#3F3D56"/>
<path d="M245.533 378.344H194.715V429.124H245.533V378.344Z" fill="#00BFA6"/>
<path d="M165.426 432.336L186.088 419.206L194.488 424.269L165.426 457.638V432.336Z" fill="#FFB6B6"/>
<path d="M137.169 381.516C137.169 381.516 123.446 384.742 129.904 403.296C136.362 421.849 157.351 460.569 163.81 458.149C170.268 455.729 171.075 431.529 171.075 431.529C171.075 431.529 170.268 432.336 167.039 429.109C163.81 425.883 163.81 427.356 163.81 423.796C163.81 420.236 161.168 417.597 161.168 417.597L158.159 411.362C158.159 411.362 158.159 382.322 146.049 380.709C133.94 379.096 137.169 381.516 137.169 381.516Z" fill="#E6E6E6"/>
<path d="M201.285 423.402C206.645 418.046 208.306 411.023 204.996 407.716C201.686 404.408 194.657 406.068 189.298 411.423C183.938 416.779 182.277 423.802 185.587 427.109C188.898 430.417 195.926 428.757 201.285 423.402Z" fill="#FFB6B6"/>
<path d="M309.776 436.789H77.7383V454.035H309.776V436.789Z" fill="#3F3D56"/>
<path d="M545.524 298.821H511.255C508.538 298.821 506.336 301.021 506.336 303.736V317.859C506.336 320.573 508.538 322.774 511.255 322.774H545.524C548.24 322.774 550.442 320.573 550.442 317.859V303.736C550.442 301.021 548.24 298.821 545.524 298.821Z" fill="#3F3D56"/>
<path d="M617.434 312.943H583.165C580.448 312.943 578.246 315.144 578.246 317.858V317.858C578.246 320.573 580.448 322.773 583.165 322.773H617.434C620.15 322.773 622.352 320.573 622.352 317.858V317.858C622.352 315.144 620.15 312.943 617.434 312.943Z" fill="#00BFA6"/>
</g>
<defs>
<clipPath id="clip0_342_511">
<rect width="816" height="534" fill="white" transform="translate(42.8984 66)"/>
</clipPath>
</defs>
</svg>
