<svg width="900" height="600" viewBox="0 0 900 600" fill="none" xmlns="http://www.w3.org/2000/svg">
<path d="M325.712 290.653C310.745 290.653 296.269 285.305 284.893 275.573C281.098 272.323 277.055 266.673 272.876 258.782C270.208 253.698 268.715 248.081 268.504 242.344C268.293 236.607 269.371 230.896 271.658 225.63C269.454 227.874 267.015 229.875 264.385 231.599L263.055 232.484L262.978 230.889C262.928 229.851 262.902 228.817 262.902 227.816C262.902 221.912 267.366 215.921 265.307 210.464C256.632 187.465 229.115 164.608 268.995 129.013C272.684 125.721 267.756 119.137 267.756 114.155C267.756 65.3322 320.781 -7.90671 356.277 25.6118C376.997 45.1768 420.165 59.0755 440.32 86.2895L440.587 87.0958L439.801 87.4141C435.774 89.1073 431.532 90.236 427.196 90.768C431.819 91.7111 436.536 92.1065 441.251 91.946L441.982 91.9204L442.16 92.6313C443.914 99.6715 444.8 106.9 444.799 114.155L444.796 114.94C444.779 120.451 445.924 125.903 448.155 130.942C450.387 135.98 453.654 140.492 457.746 144.182C464.208 150.077 469.371 157.254 472.907 165.255C476.443 173.257 478.274 181.907 478.284 190.656C478.284 201.006 471.252 214.593 465.353 224.168C463.858 226.607 461.83 228.676 459.422 230.219C457.014 231.762 454.288 232.74 451.448 233.079C448.758 233.418 446.027 233.162 443.447 232.328C440.867 231.494 438.502 230.103 436.519 228.254C439.311 233.87 442.95 239.024 447.307 243.534L448.112 244.364L447.113 244.946C437.509 250.549 426.591 253.499 415.474 253.494L414.823 253.493C397.946 253.493 381.926 260.034 370.871 271.44C365.002 277.489 357.984 282.305 350.229 285.604C342.474 288.903 334.139 290.62 325.712 290.653Z" fill="#E6E6E6"/>
<path d="M303.566 389.086C303.294 389.085 303.032 388.987 302.827 388.809C302.622 388.631 302.488 388.384 302.449 388.115C302.401 387.778 297.701 353.861 301.922 308.785C305.821 267.156 318.341 207.196 355.847 157.952C355.937 157.833 356.05 157.734 356.178 157.66C356.306 157.585 356.448 157.536 356.595 157.517C356.742 157.497 356.891 157.506 357.035 157.544C357.178 157.582 357.313 157.648 357.431 157.738C357.549 157.828 357.648 157.94 357.722 158.068C357.797 158.196 357.846 158.338 357.865 158.485C357.885 158.632 357.876 158.782 357.838 158.925C357.8 159.069 357.734 159.203 357.644 159.321C320.462 208.141 308.043 267.661 304.172 308.996C299.975 353.81 304.638 387.462 304.686 387.796C304.709 387.957 304.697 388.12 304.651 388.275C304.605 388.431 304.526 388.574 304.42 388.697C304.314 388.819 304.183 388.917 304.035 388.984C303.888 389.051 303.728 389.086 303.566 389.086Z" fill="#CCCCCC"/>
<path d="M337.81 226.167C337.572 226.167 337.339 226.092 337.146 225.952C336.953 225.812 336.809 225.614 336.735 225.387C336.661 225.16 336.661 224.915 336.735 224.688C336.809 224.461 336.952 224.263 337.145 224.123C347.832 216.886 359.377 211.006 371.514 206.619C390.477 199.674 419.311 193.378 448.996 202.83C449.138 202.875 449.269 202.947 449.382 203.043C449.496 203.138 449.589 203.255 449.657 203.387C449.725 203.519 449.767 203.663 449.779 203.811C449.792 203.959 449.775 204.108 449.73 204.249C449.685 204.39 449.613 204.521 449.517 204.635C449.422 204.748 449.304 204.842 449.173 204.91C449.041 204.978 448.897 205.02 448.749 205.032C448.602 205.045 448.453 205.028 448.311 204.983C419.235 195.725 390.922 201.918 372.291 208.742C360.349 213.054 348.989 218.834 338.473 225.951C338.281 226.092 338.048 226.167 337.81 226.167Z" fill="#CCCCCC"/>
<path d="M285.339 92.6975C285.322 92.4594 285.38 92.2219 285.506 92.0191C285.632 91.8163 285.819 91.6586 286.04 91.5686C286.26 91.4785 286.504 91.4608 286.736 91.518C286.968 91.5751 287.175 91.7042 287.329 91.8867C295.314 102.03 302.007 113.126 307.255 124.922C315.544 143.343 323.898 171.662 316.613 201.964C316.578 202.108 316.515 202.244 316.428 202.365C316.341 202.485 316.231 202.586 316.104 202.664C315.978 202.742 315.837 202.793 315.691 202.817C315.544 202.84 315.395 202.834 315.25 202.799C315.106 202.764 314.97 202.702 314.85 202.614C314.73 202.527 314.628 202.417 314.551 202.29C314.473 202.164 314.422 202.023 314.399 201.876C314.376 201.73 314.382 201.58 314.416 201.435C321.552 171.755 313.34 143.949 305.194 125.85C300.036 114.244 293.455 103.324 285.602 93.3436C285.448 93.1615 285.356 92.9353 285.339 92.6975Z" fill="#CCCCCC"/>
<path d="M560.919 457.751C483.226 457.751 423.592 453.66 382.202 437.256C281.387 397.302 247.209 380.71 246.875 380.548L247.555 379.155C247.888 379.318 282.032 395.89 382.772 435.814C442.526 459.497 540.841 457.384 676.917 454.46C702.452 453.912 728.857 453.344 756.977 452.892L757.002 454.443C728.886 454.895 702.483 455.462 676.95 456.01C634.619 456.92 595.933 457.751 560.919 457.751Z" fill="#CACACA"/>
<path d="M233.041 559.47L231.945 558.374C269.587 520.714 284.093 506.317 287.166 503.27L176.25 423.116L177.157 421.859L289.557 503.086L288.906 503.729C288.781 503.852 275.933 516.558 233.041 559.47Z" fill="#CACACA"/>
<path d="M288.889 600L287.832 598.866C291.304 595.624 372.979 519.536 388.895 519.536H388.945L754.748 523.262L754.733 524.813L388.929 521.086H388.884C373.591 521.086 289.735 599.21 288.889 600Z" fill="#CACACA"/>
<path d="M746.991 481.402H653.039V482.952H746.991V481.402Z" fill="#CACACA"/>
<path d="M571.1 481.402H477.148V482.952H571.1V481.402Z" fill="#CACACA"/>
<path d="M472.696 356.473H418.457V342.764H438.603C439.836 342.764 441.018 342.274 441.89 341.402C442.762 340.529 443.252 339.346 443.252 338.113V323.262C443.252 322.028 442.762 320.845 441.89 319.973C441.018 319.101 439.836 318.611 438.603 318.611H418.457V313.959C418.457 312.315 417.803 310.737 416.641 309.574C415.478 308.411 413.902 307.758 412.258 307.758C410.614 307.758 409.037 308.411 407.875 309.574C406.712 310.737 406.059 312.315 406.059 313.959V318.611H331.603C330.641 318.611 329.702 318.909 328.916 319.466L318.435 326.891C317.828 327.321 317.334 327.89 316.992 328.551C316.651 329.211 316.473 329.944 316.473 330.687C316.473 331.431 316.651 332.164 316.992 332.824C317.334 333.484 317.828 334.053 318.435 334.483L328.916 341.909C329.702 342.465 330.641 342.764 331.603 342.764H406.059V356.473H351.82C350.586 356.473 349.404 356.963 348.532 357.835C347.66 358.707 347.17 359.89 347.17 361.124V375.975C347.17 377.209 347.66 378.392 348.532 379.264C349.404 380.136 350.586 380.626 351.82 380.626H406.059V431.789C406.059 433.434 406.712 435.011 407.875 436.174C409.037 437.337 410.614 437.991 412.258 437.991C413.902 437.991 415.478 437.337 416.641 436.174C417.803 435.011 418.457 433.434 418.457 431.789V380.626H472.696C473.929 380.626 475.112 380.136 475.983 379.264C476.855 378.392 477.345 377.209 477.345 375.975V361.124C477.345 360.513 477.225 359.908 476.991 359.344C476.758 358.78 476.415 358.267 475.983 357.835C475.552 357.403 475.039 357.061 474.475 356.827C473.911 356.593 473.307 356.473 472.696 356.473Z" fill="#3F3D56"/>
<path d="M381.263 331.401H342.521C341.801 331.401 341.111 331.116 340.603 330.607C340.094 330.098 339.809 329.408 339.809 328.688C339.809 327.969 340.094 327.279 340.603 326.77C341.111 326.261 341.801 325.975 342.521 325.975H381.263C381.982 325.975 382.672 326.261 383.181 326.77C383.689 327.279 383.975 327.969 383.975 328.688C383.975 329.408 383.689 330.098 383.181 330.607C382.672 331.116 381.982 331.401 381.263 331.401Z" fill="#CE8585"/>
<path d="M429.302 370.937H390.56C389.84 370.937 389.151 370.651 388.642 370.142C388.133 369.633 387.848 368.943 387.848 368.223C387.848 367.504 388.133 366.814 388.642 366.305C389.151 365.796 389.84 365.51 390.56 365.51H429.302C430.021 365.51 430.711 365.796 431.22 366.305C431.728 366.814 432.014 367.504 432.014 368.223C432.014 368.943 431.728 369.633 431.22 370.142C430.711 370.651 430.021 370.937 429.302 370.937Z" fill="white"/>
<path d="M243.339 433.993V420.284H263.485C264.718 420.284 265.901 419.794 266.773 418.922C267.644 418.049 268.134 416.866 268.134 415.633V400.782C268.134 399.548 267.644 398.365 266.773 397.493C265.901 396.62 264.718 396.13 263.485 396.13H243.339V391.692C243.36 390.091 242.775 388.542 241.702 387.355C240.629 386.168 239.147 385.431 237.553 385.291C236.706 385.235 235.856 385.353 235.057 385.638C234.258 385.924 233.525 386.37 232.905 386.95C232.286 387.531 231.791 388.232 231.454 389.011C231.116 389.79 230.942 390.63 230.941 391.479V396.13L147.561 435.161C147.22 435.32 146.915 435.547 146.665 435.828C146.416 436.11 146.226 436.44 146.109 436.797C145.452 438.799 144.072 443.07 143.134 446.439C142.983 446.986 142.963 447.56 143.075 448.116C143.187 448.672 143.428 449.194 143.779 449.639C144.129 450.085 144.58 450.442 145.094 450.682C145.607 450.921 146.17 451.036 146.737 451.018C152.11 450.853 155.646 450.603 158.1 450.534C158.573 450.521 159.039 450.414 159.471 450.22L230.941 420.284V458.146V509.096C230.921 510.697 231.506 512.246 232.579 513.433C233.652 514.62 235.134 515.357 236.728 515.497C237.575 515.554 238.424 515.435 239.224 515.15C240.023 514.865 240.755 514.418 241.375 513.838C241.995 513.258 242.489 512.556 242.827 511.777C243.165 510.998 243.339 510.158 243.339 509.309L243.339 433.993Z" fill="#3F3D56"/>
<path d="M210.987 420.523L175.634 436.379C174.978 436.673 174.231 436.694 173.559 436.438C172.887 436.182 172.344 435.669 172.05 435.013C171.756 434.356 171.734 433.609 171.99 432.937C172.246 432.264 172.759 431.721 173.415 431.427L208.768 415.572C209.424 415.278 210.171 415.256 210.843 415.512C211.515 415.768 212.058 416.281 212.352 416.938C212.646 417.594 212.668 418.341 212.412 419.014C212.155 419.686 211.643 420.229 210.987 420.523Z" fill="white"/>
<path d="M684.764 294.221L668.608 295.861C667.875 304.166 669.322 312.518 672.806 320.092L667.958 365.263L668.03 365.262C667.552 366.087 667.309 367.027 667.325 367.98C667.341 368.934 667.617 369.865 668.123 370.673C668.629 371.481 669.345 372.136 670.195 372.567C671.045 372.999 671.997 373.19 672.947 373.121C673.898 373.051 674.812 372.724 675.59 372.174C676.369 371.624 676.983 370.872 677.366 369.999C677.749 369.126 677.888 368.165 677.766 367.22C677.644 366.274 677.267 365.379 676.675 364.632L687.449 324.327L684.764 294.221Z" fill="#A0616A"/>
<path d="M635.072 492.505L628.208 491.321L627.535 470.591L639.634 466.013L635.072 492.505Z" fill="#A0616A"/>
<path d="M634.08 499.711L612.969 496.073L613.015 495.806C613.39 493.625 614.616 491.684 616.422 490.408C618.229 489.132 620.468 488.626 622.647 489.001L627.008 486.739L633.698 490.906L635.541 491.223L634.08 499.711Z" fill="#2F2E41"/>
<path d="M703.943 478.152L697.998 481.784L681.164 460.57L689.939 455.21L703.943 478.152Z" fill="#A0616A"/>
<path d="M707.942 484.229L689.66 495.399L689.519 495.167C688.366 493.279 688.011 491.01 688.53 488.86C689.05 486.71 690.402 484.854 692.289 483.7L694.081 479.125L701.859 477.853L703.455 476.878L707.942 484.229Z" fill="#2F2E41"/>
<path d="M637.418 366.429L633.299 382.088C633.299 382.088 632.174 388.578 632.757 389.161C633.75 390.568 634.251 392.264 634.183 393.985C633.922 395.573 631.256 394.926 632.589 397.289C633.922 399.653 629.803 435.622 629.803 435.622L626.113 479.851L639.286 481.402C641.177 480.294 641.454 479.034 640.338 477.643C640.338 477.643 643.04 474.525 641.55 473.312C640.061 472.099 642.752 471.592 642.898 468.497L651.401 438.124L654.215 431.334L653.479 427.792L655.617 423.726L656.644 413.06L659.432 441.091L685.465 471L698.283 464.588L699.035 462.949C699.344 462.275 699.397 461.511 699.183 460.801C698.969 460.09 698.504 459.483 697.874 459.092L693.525 455.045C693.898 453.378 687.982 449.199 687.982 449.199L678.077 430.546L684.227 378.301C684.227 378.301 693.525 365.898 681.207 354.675C676.161 350.077 637.418 366.429 637.418 366.429Z" fill="#2F2E41"/>
<path d="M677.06 345.855C679.244 342.608 684.488 347.271 682.74 341.442C680.992 335.613 676.569 334.53 680.528 328.951L686.235 301.145C686.578 294.508 684.325 287.998 679.954 282.994L671.739 273.588L670.504 270.252L656.521 269.669L655.356 273.749C651.179 278.953 644.342 285.635 644.547 295.463C644.94 314.376 641.992 339.542 634.73 372.28C634.73 372.28 650.97 359.594 656.076 365.09C661.182 370.587 676.565 369.093 680.409 365.263C682.873 362.615 684.67 359.418 685.653 355.937C685.653 355.937 674.876 349.102 677.06 345.855Z" fill="#CE8585"/>
<path d="M685.891 367.913L654.011 358.921L633.09 368.998C642.457 351.561 648.157 322.527 646.356 297.863C645.924 292.623 646.953 287.365 649.328 282.674C652.204 277.136 656.703 273.223 663.309 273.649L671.832 272.874L677.256 275.975C685.104 284.2 688.192 296.473 686.97 307.779C685.622 320.258 683.945 335.418 683.606 336.772C683.408 337.567 684.035 338.964 684.7 340.442C685.821 342.937 687.216 346.042 685.278 347.982C684.691 348.502 684.219 349.138 683.891 349.85C683.564 350.563 683.389 351.335 683.376 352.119C683.425 352.816 683.618 353.496 683.943 354.115C684.267 354.734 684.716 355.279 685.262 355.716C687.739 357.857 686.015 367.249 685.941 367.648L685.891 367.913Z" fill="#2F2E41"/>
<path d="M669.625 306.152L653.608 303.477C650.714 311.295 649.911 319.734 651.277 327.958L634.707 370.256L634.777 370.274C634.099 370.944 633.616 371.787 633.381 372.711C633.146 373.635 633.167 374.606 633.442 375.518C633.717 376.431 634.236 377.252 634.942 377.892C635.648 378.532 636.516 378.968 637.451 379.151C638.386 379.335 639.354 379.26 640.25 378.935C641.146 378.609 641.936 378.046 642.536 377.305C643.135 376.564 643.522 375.673 643.653 374.729C643.785 373.784 643.656 372.822 643.282 371.945L664.288 335.903L669.625 306.152Z" fill="#A0616A"/>
<path d="M650.909 314.735L669.506 310.859L672.543 297.356C672.541 294.575 671.435 291.909 669.468 289.943C667.502 287.977 664.836 286.873 662.056 286.873C659.276 286.873 656.61 287.977 654.643 289.943C652.677 291.909 651.571 294.575 651.569 297.356C649.694 304.87 650.021 307.047 650.909 314.735Z" fill="#CE8585"/>
<path d="M662.929 267.92C670.973 267.92 677.495 261.396 677.495 253.348C677.495 245.3 670.973 238.776 662.929 238.776C654.885 238.776 648.363 245.3 648.363 253.348C648.363 261.396 654.885 267.92 662.929 267.92Z" fill="#A0616A"/>
<path d="M679.829 242.273C678.695 240.244 674.186 242.84 672.789 240.983C671.681 239.365 670.271 237.977 668.637 236.895C667.282 236.106 665.746 235.683 664.179 235.666C662.611 235.648 661.066 236.037 659.694 236.795C658.689 237.513 657.613 238.124 656.482 238.621C655.305 238.997 653.769 238.713 653.26 237.587C653.619 238.571 653.979 239.555 654.338 240.538C653.385 240.98 652.301 241.047 651.3 240.728C650.3 240.409 649.455 239.726 648.934 238.814C648.87 239.832 648.807 240.851 648.744 241.869C648.66 241.59 648.479 241.351 648.233 241.194C647.988 241.038 647.695 240.974 647.407 241.015C647.045 241.125 646.717 241.326 646.456 241.599C646.194 241.873 646.008 242.209 645.915 242.576C644.995 245.283 647.196 248.443 650.018 248.896C651.763 249.177 653.518 248.616 655.27 248.379C657.022 248.141 659.049 248.34 660.156 249.719C661.242 251.073 661.032 253.003 661.095 254.739C661.158 256.474 661.916 258.557 663.636 258.788C664.817 258.947 665.945 258.123 667.134 258.194C668.832 258.295 669.92 260.246 669.737 261.937C669.554 263.629 668.492 265.076 667.466 266.433C669.161 266.568 670.857 266.702 672.552 266.836L671.895 267.018C676.042 266.815 679.243 262.788 679.738 258.664C680.234 254.539 681.854 245.9 679.829 242.273Z" fill="#2F2E41"/>
</svg>
