<svg width="901" height="600" viewBox="0 0 901 600" fill="none" xmlns="http://www.w3.org/2000/svg">
<g clip-path="url(#clip0_335_176)">
<path d="M439.966 564.358L439.324 549.907C439.257 549.872 439.19 549.837 439.124 549.801C432.241 546.188 424.353 552.729 426.551 560.189C428.619 567.208 430.009 574.774 433.795 580.918C436.032 584.486 439.043 587.505 442.605 589.751C446.166 591.997 450.187 593.412 454.37 593.891L463.114 599.248C464.314 592.555 464.049 585.681 462.339 579.1C460.628 572.519 457.512 566.388 453.205 561.128C450.759 558.201 447.955 555.594 444.858 553.368C442.764 558.894 439.966 564.358 439.966 564.358Z" fill="#F2F2F2"/>
<path d="M361.678 417.705C344.843 400.332 320.446 390.369 294.744 390.369L293.752 390.372C276.823 390.378 260.196 385.885 245.571 377.353L244.049 376.465L245.275 375.202C251.911 368.332 257.451 360.483 261.703 351.928C258.684 354.745 255.082 356.864 251.153 358.134C247.224 359.404 243.065 359.794 238.969 359.277C234.644 358.761 230.492 357.272 226.825 354.922C223.158 352.571 220.07 349.42 217.793 345.706C208.81 331.122 198.102 310.428 198.102 294.663C198.116 281.338 200.904 268.162 206.289 255.975C211.674 243.788 219.538 232.857 229.378 223.879C235.609 218.259 240.585 211.387 243.983 203.713C247.381 196.038 249.124 187.734 249.099 179.34L249.094 178.145C249.093 167.094 250.442 156.085 253.113 145.362L253.385 144.279L254.498 144.318C261.678 144.563 268.862 143.961 275.901 142.524C269.298 141.714 262.839 139.995 256.706 137.416L255.508 136.931L255.915 135.703C283.936 118.343 347.189 127.333 383.902 43.2848C413.672 -24.8665 518.709 103.783 518.709 178.145C518.709 185.733 511.204 195.76 516.822 200.775C577.555 254.99 535.65 289.803 522.439 324.833C519.304 333.144 526.101 342.269 526.101 351.261C526.101 352.786 526.062 354.361 525.985 355.942L525.868 358.371L523.843 357.023C519.837 354.397 516.124 351.35 512.767 347.932C516.25 355.952 517.891 364.651 517.57 373.389C517.249 382.128 514.974 390.683 510.913 398.425C504.548 410.445 498.391 419.05 492.612 423.999C474.099 439.851 450.234 448.028 425.896 446.858C401.558 445.688 378.586 435.259 361.678 417.705Z" fill="#E6E6E6"/>
<path d="M463.356 598.535C463.77 598.535 464.17 598.385 464.482 598.113C464.795 597.842 464.999 597.466 465.057 597.056C465.13 596.543 472.289 544.885 465.86 476.229C459.922 412.825 440.855 321.499 383.738 246.495C383.601 246.315 383.431 246.164 383.235 246.05C383.04 245.936 382.824 245.861 382.6 245.831C382.376 245.801 382.148 245.815 381.93 245.872C381.711 245.93 381.506 246.03 381.326 246.168C381.146 246.305 380.995 246.476 380.881 246.672C380.768 246.867 380.694 247.083 380.664 247.307C380.634 247.532 380.648 247.76 380.706 247.978C380.764 248.197 380.864 248.402 381.002 248.582C437.626 322.938 456.539 413.593 462.434 476.55C468.826 544.806 461.724 596.061 461.651 596.571C461.617 596.815 461.635 597.064 461.705 597.301C461.775 597.537 461.895 597.756 462.056 597.942C462.218 598.128 462.418 598.278 462.642 598.38C462.866 598.482 463.11 598.535 463.356 598.535Z" fill="#3F3D56"/>
<path d="M416.747 352.292C417.11 352.292 417.464 352.178 417.758 351.964C418.053 351.751 418.272 351.449 418.384 351.104C418.496 350.758 418.497 350.385 418.384 350.04C418.272 349.694 418.054 349.392 417.76 349.179C417.552 349.028 396.657 333.963 365.419 322.519C336.542 311.941 292.63 302.351 247.424 316.747C247.208 316.815 247.008 316.925 246.835 317.071C246.662 317.216 246.52 317.395 246.416 317.596C246.311 317.797 246.248 318.016 246.229 318.241C246.21 318.467 246.235 318.694 246.304 318.909C246.372 319.125 246.483 319.325 246.628 319.498C246.774 319.671 246.953 319.813 247.154 319.917C247.355 320.021 247.574 320.084 247.799 320.103C248.025 320.121 248.252 320.096 248.467 320.027C292.747 305.926 335.863 315.358 364.236 325.752C395.028 337.033 415.533 351.815 415.737 351.963C416.03 352.177 416.384 352.292 416.747 352.292Z" fill="#3F3D56"/>
<path d="M495.476 156.089C495.503 155.726 495.414 155.364 495.222 155.056C495.031 154.747 494.746 154.506 494.41 154.369C494.073 154.232 493.702 154.205 493.349 154.292C492.996 154.379 492.68 154.576 492.446 154.854C492.281 155.05 475.759 174.818 462.102 205.169C449.477 233.226 436.756 276.36 447.85 322.512C447.957 322.956 448.236 323.339 448.625 323.577C449.014 323.816 449.481 323.89 449.925 323.783C450.368 323.676 450.751 323.397 450.99 323.008C451.228 322.619 451.302 322.151 451.195 321.707C440.328 276.5 452.835 234.15 465.239 206.582C478.701 176.665 494.914 157.265 495.076 157.073C495.31 156.796 495.45 156.451 495.476 156.089Z" fill="#3F3D56"/>
<path d="M493.148 244.84C494.6 256.557 502.714 266.218 514.513 266.218C520.179 266.218 525.613 263.965 529.62 259.956C533.627 255.947 535.877 250.51 535.877 244.84C535.877 233.034 526.262 224.555 514.513 223.463C502.047 222.305 491.285 229.798 493.148 244.84Z" fill="#2F2E41"/>
<path d="M524.408 589.12L532.544 589.119L536.414 557.719L524.406 557.72L524.408 589.12Z" fill="#FFB6B6"/>
<path d="M524.121 597.612L549.14 597.611V597.294C549.14 594.71 548.114 592.232 546.288 590.405C544.462 588.577 541.985 587.551 539.402 587.551L534.832 584.082L526.305 587.551L524.121 587.551L524.121 597.612Z" fill="#2F2E41"/>
<path d="M492.361 589.12L500.497 589.119L504.367 557.719L492.359 557.72L492.361 589.12Z" fill="#FFB6B6"/>
<path d="M492.075 597.612L517.093 597.611V597.294C517.093 594.71 516.067 592.232 514.241 590.405C512.415 588.577 509.938 587.551 507.355 587.551L502.785 584.082L494.258 587.551L492.074 587.551L492.075 597.612Z" fill="#2F2E41"/>
<path d="M552.404 392.457L558.156 412.19L551.379 495.762C551.379 495.762 554.869 500.987 552.404 500.987C549.938 500.987 546.777 502.146 548.769 505.267C550.76 508.387 543.953 519.59 543.953 519.59L534.326 579.096L522.058 578.915C522.058 578.915 515.821 575.438 519.322 571.923C522.822 568.408 525.287 568.408 522 565.119C518.713 561.83 518.713 562.821 518.713 560.27C518.713 557.719 515.42 526.547 523.23 514.589L520.877 465.837L515.334 513.657L503.922 577.452L492.105 577.354C492.105 577.354 486.646 572.09 486.656 568.193C486.666 564.297 490.029 563.973 487.526 561.668C485.023 559.363 485.023 523.957 492.418 504.276C492.418 504.276 496.602 493.28 492.409 489.512C488.216 485.744 492.404 481.433 492.404 481.433C492.404 481.433 499.045 479.031 492.398 472.11C485.751 465.189 492.362 416.243 492.362 416.243C492.362 416.243 485.096 396.485 492.455 388.716C499.814 380.947 552.404 392.457 552.404 392.457Z" fill="#2F2E41"/>
<path d="M449.96 426.455L460.222 401.639L468.308 406.133L463.425 431.377C463.914 432.977 463.947 434.681 463.522 436.298C463.096 437.915 462.227 439.382 461.014 440.532C459.801 441.683 458.292 442.472 456.655 442.811C455.018 443.151 453.319 443.026 451.749 442.452C450.179 441.878 448.8 440.877 447.768 439.562C446.735 438.247 446.089 436.67 445.903 435.008C445.717 433.346 445.999 431.665 446.715 430.154C447.432 428.643 448.555 427.362 449.96 426.455Z" fill="#FFB6B6"/>
<path d="M622.168 230.22L606.553 252.064L599.695 245.853L610.168 222.373C610.054 220.704 610.407 219.037 611.188 217.558C611.969 216.079 613.146 214.848 614.589 214.002C616.031 213.156 617.68 212.73 619.351 212.771C621.022 212.811 622.648 213.318 624.048 214.233C625.447 215.148 626.563 216.435 627.271 217.95C627.979 219.465 628.251 221.148 628.056 222.809C627.86 224.47 627.206 226.043 626.166 227.353C625.126 228.662 623.741 229.655 622.168 230.22Z" fill="#FFB6B6"/>
<path d="M553.956 394.48C564.084 410.199 513.173 430.147 493.639 422.139C490.218 420.736 478.452 416.104 486.494 409.683C494.537 403.261 485.562 402.357 485.35 398.177C485.208 395.382 487.37 389.251 485.114 389.514C482.858 389.777 480.217 385.912 485.131 384.249C490.045 382.586 485.184 381.069 485.227 379.49C485.697 362.261 498.908 334.855 498.908 334.855L475.102 395.745C475.102 395.745 475.278 406.279 472.242 403.06C469.206 399.841 469.427 410.26 469.427 410.26C469.427 410.26 464.913 413.412 467.509 415.166C470.105 416.921 464.714 422.314 464.714 422.314L452.137 421.415C452.137 421.415 452.334 412.066 454.481 409.999C456.629 407.931 455.574 404.678 455.574 404.678C455.574 404.678 461.165 399.725 457.417 395.704C452.596 390.532 470.173 303.182 476.239 304.047C477.097 299.871 479.092 296.013 482.004 292.901C484.916 289.788 488.631 287.542 492.739 286.41L506.324 282.667L508.736 273.091H527.865L531.196 279.383L545.739 285.95C548.478 282.083 550.525 278.008 561.742 276.687C561.742 276.687 591.967 249.17 590.491 247.022C589.016 244.873 593.701 239.843 593.701 239.843C593.701 239.843 597.702 238.533 595.444 237.833C593.186 237.133 597.454 235.516 597.454 235.516C597.454 235.516 601.407 234.477 599.543 233.108C597.678 231.74 605.764 230.841 605.764 230.841L616.255 239.405L614.135 243.003C614.135 243.003 615.427 247.902 613.74 246.113C612.053 244.325 611.735 249.515 611.735 249.515C611.735 249.515 610.874 255.198 605.764 256.91C600.655 258.622 596.78 274.889 596.78 274.889C584.73 290.566 570.509 302.795 553.657 310.846C560.224 318.389 553.956 394.48 553.956 394.48Z" fill="#F50057"/>
<path d="M516.875 267.487C527.338 267.487 535.82 259 535.82 248.531C535.82 238.061 527.338 229.574 516.875 229.574C506.412 229.574 497.93 238.061 497.93 248.531C497.93 259 506.412 267.487 516.875 267.487Z" fill="#FFB6B6"/>
<path d="M497.255 250.595C497.855 254.715 501.364 260.462 500.542 260.462C499.72 260.462 493.878 243.481 499.72 242.373C503.958 241.57 504.905 242.275 508.866 240.556L508.307 241.083C510.928 242.99 514.577 241.814 517.568 240.573C520.567 239.34 524.207 238.164 526.837 240.063C528.488 241.255 529.187 243.327 530.214 245.087C531.241 246.854 533.139 248.524 535.095 247.981C536.664 247.545 537.568 245.786 537.56 244.158C537.552 242.53 535.433 240.981 536.147 239.52C538.261 235.192 536.36 232.242 531.751 230.205C530.074 229.95 528.398 229.69 526.722 229.424C527.6 228.206 528.665 227.135 529.877 226.25C529.365 224.936 528.479 223.802 527.33 222.986C525.99 222.189 524.331 222.246 522.778 222.328C519.31 222.509 515.845 222.69 512.383 222.871C509.819 223.002 507.165 223.159 504.872 224.334C502.013 225.806 500.139 228.676 498.775 231.594C495.719 238.156 496.203 243.434 497.255 250.595Z" fill="#2F2E41"/>
<path d="M418.447 599.747L604.771 600C605.03 600 605.279 599.897 605.462 599.713C605.646 599.53 605.749 599.281 605.749 599.021C605.749 598.762 605.646 598.513 605.462 598.329C605.279 598.145 605.03 598.042 604.771 598.042L418.447 597.79C418.188 597.79 417.939 597.893 417.755 598.076C417.572 598.26 417.469 598.509 417.469 598.769C417.469 599.028 417.572 599.277 417.755 599.461C417.939 599.644 418.188 599.747 418.447 599.747Z" fill="#CACACA"/>
<path d="M351.056 514.41C351.399 512.048 348.927 509.733 345.533 509.239C342.14 508.745 339.11 510.259 338.766 512.621C338.423 514.984 340.896 517.299 344.289 517.793C347.683 518.287 350.712 516.773 351.056 514.41Z" fill="#E6E6E6"/>
<path d="M391.462 510.466C391.806 508.103 389.333 505.788 385.939 505.294C382.546 504.8 379.516 506.314 379.173 508.677C378.829 511.039 381.302 513.354 384.695 513.848C388.089 514.342 391.119 512.828 391.462 510.466Z" fill="#3F3D56"/>
<path d="M339.993 481.68C340.337 479.318 337.864 477.003 334.471 476.509C331.077 476.015 328.047 477.529 327.704 479.891C327.36 482.254 329.833 484.569 333.227 485.063C336.62 485.557 339.65 484.043 339.993 481.68Z" fill="#FF6584"/>
<path d="M322.435 468.273C322.451 466.105 321.242 464.338 319.735 464.326C318.227 464.315 316.991 466.064 316.975 468.232C316.959 470.401 318.168 472.168 319.675 472.179C321.183 472.191 322.418 470.442 322.435 468.273Z" fill="#E6E6E6"/>
<path d="M316.482 443.302C316.498 441.134 315.289 439.366 313.781 439.355C312.274 439.344 311.038 441.092 311.022 443.261C311.005 445.43 312.214 447.197 313.722 447.208C315.23 447.22 316.465 445.471 316.482 443.302Z" fill="#3F3D56"/>
<path d="M362.782 487.25C362.799 485.081 361.59 483.314 360.082 483.303C358.575 483.291 357.339 485.04 357.323 487.209C357.306 489.377 358.515 491.145 360.023 491.156C361.531 491.167 362.766 489.419 362.782 487.25Z" fill="#E6E6E6"/>
<path d="M343.255 497.005C343.271 494.836 342.063 493.069 340.555 493.058C339.047 493.046 337.812 494.795 337.795 496.964C337.779 499.132 338.988 500.899 340.495 500.911C342.003 500.922 343.239 499.173 343.255 497.005Z" fill="#FF6584"/>
<path d="M370.435 515.034C370.451 512.865 369.242 511.098 367.735 511.086C366.227 511.075 364.991 512.824 364.975 514.992C364.959 517.161 366.168 518.928 367.675 518.94C369.183 518.951 370.418 517.202 370.435 515.034Z" fill="#3F3D56"/>
<path d="M661.665 387.792C662.009 385.43 659.536 383.115 656.143 382.621C652.749 382.127 649.719 383.641 649.376 386.003C649.032 388.365 651.505 390.681 654.899 391.175C658.292 391.669 661.322 390.154 661.665 387.792Z" fill="#E6E6E6"/>
<path d="M702.072 383.847C702.415 381.485 699.942 379.169 696.549 378.675C693.155 378.181 690.126 379.696 689.782 382.058C689.439 384.42 691.911 386.735 695.305 387.23C698.698 387.724 701.728 386.209 702.072 383.847Z" fill="#3F3D56"/>
<path d="M650.599 355.062C650.942 352.7 648.47 350.384 645.076 349.89C641.682 349.396 638.653 350.911 638.309 353.273C637.966 355.635 640.439 357.95 643.832 358.444C647.226 358.938 650.255 357.424 650.599 355.062Z" fill="#FF6584"/>
<path d="M633.044 341.655C633.061 339.487 631.852 337.719 630.344 337.708C628.836 337.697 627.601 339.445 627.584 341.614C627.568 343.783 628.777 345.55 630.285 345.561C631.792 345.573 633.028 343.824 633.044 341.655Z" fill="#E6E6E6"/>
<path d="M627.091 316.684C627.107 314.515 625.898 312.748 624.391 312.736C622.883 312.725 621.648 314.474 621.631 316.642C621.615 318.811 622.824 320.578 624.331 320.59C625.839 320.601 627.075 318.852 627.091 316.684Z" fill="#3F3D56"/>
<path d="M673.388 360.632C673.404 358.463 672.195 356.696 670.688 356.685C669.18 356.673 667.945 358.422 667.928 360.591C667.912 362.759 669.121 364.526 670.628 364.538C672.136 364.549 673.371 362.8 673.388 360.632Z" fill="#E6E6E6"/>
<path d="M653.864 370.386C653.881 368.218 652.672 366.45 651.164 366.439C649.657 366.428 648.421 368.176 648.405 370.345C648.388 372.514 649.597 374.281 651.105 374.292C652.613 374.304 653.848 372.555 653.864 370.386Z" fill="#FF6584"/>
<path d="M681.044 388.415C681.061 386.246 679.852 384.479 678.344 384.468C676.836 384.456 675.601 386.205 675.584 388.374C675.568 390.542 676.777 392.31 678.285 392.321C679.792 392.332 681.028 390.584 681.044 388.415Z" fill="#3F3D56"/>
<path d="M511.29 153.466C511.634 151.103 509.161 148.788 505.767 148.294C502.374 147.8 499.344 149.314 499.001 151.676C498.657 154.039 501.13 156.354 504.524 156.848C507.917 157.342 510.947 155.828 511.29 153.466Z" fill="white"/>
<path d="M551.697 149.521C552.04 147.159 549.567 144.843 546.174 144.349C542.78 143.855 539.751 145.37 539.407 147.732C539.064 150.094 541.536 152.409 544.93 152.903C548.323 153.397 551.353 151.883 551.697 149.521Z" fill="#3F3D56"/>
<path d="M500.228 120.736C500.571 118.373 498.099 116.058 494.705 115.564C491.311 115.07 488.282 116.584 487.938 118.947C487.595 121.309 490.067 123.624 493.461 124.118C496.855 124.612 499.884 123.098 500.228 120.736Z" fill="#FF6584"/>
<path d="M482.669 107.329C482.686 105.16 481.477 103.393 479.969 103.381C478.461 103.37 477.226 105.119 477.209 107.287C477.193 109.456 478.402 111.223 479.91 111.235C481.417 111.246 482.653 109.497 482.669 107.329Z" fill="#E6E6E6"/>
<path d="M476.716 82.3569C476.732 80.1884 475.523 78.4211 474.016 78.4097C472.508 78.3983 471.273 80.1471 471.256 82.3156C471.24 84.4842 472.449 86.2514 473.956 86.2628C475.464 86.2743 476.7 84.5255 476.716 82.3569Z" fill="#3F3D56"/>
<path d="M523.017 126.305C523.033 124.137 521.824 122.369 520.317 122.358C518.809 122.347 517.573 124.095 517.557 126.264C517.541 128.432 518.75 130.2 520.257 130.211C521.765 130.222 523 128.474 523.017 126.305Z" fill="#E6E6E6"/>
<path d="M503.489 136.06C503.506 133.891 502.297 132.124 500.789 132.112C499.282 132.101 498.046 133.85 498.03 136.018C498.013 138.187 499.222 139.954 500.73 139.965C502.238 139.977 503.473 138.228 503.489 136.06Z" fill="#FF6584"/>
<path d="M530.669 154.089C530.686 151.92 529.477 150.153 527.969 150.142C526.461 150.13 525.226 151.879 525.209 154.048C525.193 156.216 526.402 157.983 527.91 157.995C529.417 158.006 530.653 156.257 530.669 154.089Z" fill="#3F3D56"/>
</g>
<defs>
<clipPath id="clip0_335_176">
<rect width="504" height="576" fill="white" transform="translate(198.102 24)"/>
</clipPath>
</defs>
</svg>
