<svg width="900" height="600" viewBox="0 0 900 600" fill="none" xmlns="http://www.w3.org/2000/svg">
<g clip-path="url(#clip0_335_124)">
<path d="M417.926 569.564L416.33 576.555L416.714 576.974C416.629 577.188 416.543 577.401 416.441 577.615C415.593 579.532 414.624 581.394 413.539 583.188C412.105 585.572 410.5 587.872 408.836 590.128C407.923 591.376 406.984 592.615 406.045 593.846C406.019 593.888 405.991 593.928 405.96 593.966C405.97 593.922 405.984 593.879 406.002 593.837L405.695 593.769L403.928 586.094L403.39 587.307V587.316L402.52 589.325C402.588 589.692 402.656 590.051 402.742 590.41C402.733 590.401 402.733 590.384 402.725 590.376C402.716 590.367 402.716 590.367 402.716 590.359C402.605 590.119 402.486 589.889 402.375 589.649L401.043 592.709L398.346 592.094C396.929 591.359 395.512 590.615 394.104 589.846C374.865 579.393 357.052 566.051 345.06 547.888C340.293 540.652 336.69 532.712 334.382 524.358C329.833 507.759 330.618 489.896 338.897 475.066L338.898 475.063L338.9 475.06L338.902 475.059L338.906 475.058C339.111 474.682 339.324 474.306 339.546 473.93C339.708 474.357 339.862 474.784 340.032 475.212V475.22C342.258 481.024 344.944 486.641 348.064 492.015C348.303 492.434 348.542 492.853 348.798 493.263C356.421 506.077 366.354 517.363 378.092 526.546C378.124 526.577 378.158 526.605 378.194 526.631C378.235 526.665 378.277 526.697 378.322 526.725C380.934 528.777 383.634 530.705 386.422 532.512V532.52C388.599 533.939 390.835 535.281 393.105 536.555C397.945 539.255 403.211 541.854 407.735 545.093C412.131 548.23 415.835 551.965 417.807 556.965C417.96 557.367 418.105 557.768 418.233 558.17L414.717 569.034L417.926 569.564Z" fill="#F0F0F0"/>
<path d="M403.39 587.308V587.316L402.519 589.325C401.205 582.008 402.766 574.273 401.683 566.863C401.563 566.034 401.409 565.205 401.213 564.384C400.103 559.7 397.568 555.316 393.062 553.222C391.746 552.622 390.366 552.177 388.948 551.897C386.148 551.299 383.229 551.17 380.404 550.837C379.695 550.752 378.995 550.658 378.313 550.529C374.66 549.963 371.172 548.613 368.087 546.572C364.311 543.885 361.021 540.572 358.357 536.777C356.597 534.395 354.959 531.924 353.449 529.375C353.244 529.05 353.057 528.717 352.86 528.384C349.328 522.257 346.431 515.784 344.214 509.067C343.072 505.634 342.115 502.142 341.346 498.605C339.635 490.879 338.813 482.981 338.896 475.067C338.896 475.066 338.896 475.064 338.897 475.063C338.897 475.062 338.898 475.061 338.899 475.061C338.9 475.06 338.901 475.059 338.902 475.059C338.903 475.058 338.904 475.058 338.905 475.058C338.896 474.699 338.905 474.34 338.913 473.981C338.93 473.246 340.066 473.409 340.049 474.144C340.04 474.503 340.032 474.853 340.032 475.212V475.221C339.962 482.803 340.726 490.37 342.31 497.785C342.396 498.161 342.481 498.537 342.558 498.913C344.866 509.189 348.744 519.046 354.055 528.136C354.115 528.238 354.175 528.341 354.243 528.444C355.481 530.555 356.812 532.606 358.212 534.615C360.784 538.481 363.946 541.919 367.584 544.803C370.645 547.095 374.199 548.638 377.963 549.307C378.338 549.375 378.714 549.444 379.098 549.504C379.397 549.555 379.704 549.598 380.011 549.632C382.888 549.991 385.841 550.128 388.7 550.675C390 550.92 391.277 551.278 392.516 551.743C394.543 552.557 396.377 553.791 397.895 555.364C399.413 556.937 400.581 558.814 401.324 560.871C402.085 562.868 402.606 564.948 402.877 567.068C402.971 567.76 403.04 568.453 403.099 569.154V569.162C403.185 570.29 403.227 571.427 403.244 572.564C403.262 573.983 403.236 575.401 403.202 576.812C403.012 580.31 403.075 583.818 403.39 587.308Z" fill="white"/>
<path d="M353.934 529.136C350.682 530.79 346.948 531.233 343.4 530.385C339.852 529.537 336.72 527.454 334.564 524.507C334.13 523.909 335.037 523.205 335.472 523.804C337.474 526.552 340.392 528.492 343.697 529.275C347.003 530.058 350.48 529.631 353.499 528.073C354.156 527.735 354.587 528.8 353.934 529.136Z" fill="white"/>
<path d="M377.849 549.648C380.226 542.57 379.851 534.855 376.8 528.042C376.497 527.367 377.559 526.932 377.861 527.606C381.023 534.702 381.397 542.732 378.908 550.092C378.67 550.793 377.613 550.346 377.849 549.648Z" fill="white"/>
<path d="M341.98 497.891C343.372 497.513 344.648 496.796 345.694 495.802C346.74 494.809 347.524 493.571 347.974 492.199C348.203 491.495 349.26 491.943 349.032 492.642C348.528 494.155 347.661 495.522 346.507 496.622C345.354 497.722 343.949 498.523 342.415 498.954C342.274 499.006 342.118 499.003 341.979 498.945C341.84 498.887 341.729 498.778 341.667 498.64C341.61 498.499 341.611 498.341 341.67 498.201C341.728 498.061 341.84 497.949 341.98 497.891Z" fill="white"/>
<path d="M405.906 594.034C405.923 594.009 405.94 593.991 405.957 593.966C405.923 594.068 405.889 594.171 405.863 594.282L405.906 594.034Z" fill="#F0F0F0"/>
<path d="M431.284 541.418L430.089 545.606L422.748 544.23L420.316 551.743L419.897 553.034L418.233 558.17L414.716 569.034L417.926 569.564L416.33 576.555L416.714 576.974L416.833 577.102L417.627 577.974L422.458 583.256L409.245 594.581L407.128 594.094L406.044 593.846C406.019 593.888 405.99 593.928 405.959 593.966C405.969 593.922 405.984 593.879 406.002 593.838L405.695 593.769L403.928 586.094L403.39 587.308V587.316L402.519 589.325C402.588 589.692 402.656 590.051 402.741 590.41C402.733 590.402 402.733 590.384 402.724 590.376C402.716 590.367 402.716 590.367 402.716 590.359C402.605 590.12 402.485 589.889 402.374 589.649C400.684 586.119 399.071 582.538 397.577 578.914C393.896 570.186 391.008 561.144 388.948 551.897C388.863 551.495 388.769 551.093 388.701 550.683V550.675C387.449 544.695 386.686 538.624 386.422 532.52V532.512C386.285 529.17 386.319 525.824 386.524 522.486C387.064 513.859 388.956 505.37 392.132 497.332C392.149 497.289 392.166 497.255 392.183 497.212C398.269 481.879 408.981 468.579 423.542 461.494C424.148 461.186 424.771 460.895 425.394 460.622H425.411L425.42 460.613C425.812 460.442 426.196 460.28 426.589 460.109C426.461 460.554 426.325 460.998 426.205 461.451C424.483 467.423 423.249 473.526 422.518 479.699V479.708C422.45 480.178 422.39 480.665 422.339 481.144V481.152C420.728 496.041 421.892 511.1 425.77 525.563C425.778 525.606 425.795 525.64 425.804 525.683C427.252 531.052 429.083 536.311 431.284 541.418Z" fill="#F0F0F0"/>
<path d="M417.625 577.974C416.951 578.88 416.259 579.76 415.559 580.641C414.885 581.487 414.211 582.333 413.536 583.188C411.774 585.363 410.2 587.685 408.833 590.128C408.148 591.397 407.577 592.724 407.126 594.094L406.042 593.846C406.017 593.888 405.988 593.928 405.957 593.966C405.967 593.922 405.982 593.879 406 593.838C407.988 587.615 412.512 582.795 416.438 577.615C416.575 577.444 416.703 577.273 416.831 577.102L417.625 577.974Z" fill="white"/>
<path d="M426.868 460.588C426.646 460.87 426.416 461.16 426.202 461.451C424.538 463.613 422.965 465.844 421.482 468.143C418.842 472.2 416.498 476.442 414.466 480.836C414.304 481.178 414.142 481.528 413.988 481.879C409.641 491.48 406.808 501.698 405.59 512.17C405.572 512.272 405.564 512.366 405.555 512.469C405.274 514.913 405.092 517.366 405.009 519.828C404.737 524.463 405.195 529.113 406.366 533.606C406.537 534.196 406.725 534.777 406.93 535.341C407.443 536.723 408.086 538.054 408.85 539.315C409.399 540.236 410.009 541.118 410.677 541.956C411.078 542.469 411.496 542.973 411.94 543.461C412.196 543.743 412.46 544.025 412.725 544.307C412.947 544.52 413.16 544.743 413.382 544.956C415.687 547.196 418.23 549.273 420.313 551.743L419.895 553.033C417.889 550.486 415.303 548.375 412.973 546.153C411.51 544.776 410.178 543.265 408.995 541.64C408.841 541.418 408.679 541.196 408.534 540.965C407.743 539.808 407.061 538.58 406.494 537.298C406.204 536.657 405.94 535.999 405.701 535.315C404.306 530.896 403.671 526.272 403.823 521.64C403.85 518.673 404.027 515.709 404.352 512.759C404.386 512.375 404.429 511.999 404.48 511.614C405.345 504.594 406.924 497.68 409.191 490.981C412.061 482.482 416.008 474.388 420.936 466.895C422.344 464.75 423.838 462.656 425.417 460.613C425.622 460.331 425.835 460.058 426.057 459.776C426.51 459.194 427.321 460.006 426.868 460.588Z" fill="white"/>
<path d="M404.888 512.867C401.296 512.227 398.049 510.33 395.726 507.514C393.402 504.697 392.154 501.146 392.205 497.493C392.208 497.344 392.269 497.202 392.375 497.098C392.481 496.993 392.623 496.933 392.772 496.931C392.92 496.93 393.064 496.986 393.172 497.088C393.281 497.19 393.345 497.33 393.352 497.479C393.299 500.88 394.462 504.189 396.63 506.807C398.799 509.425 401.831 511.18 405.179 511.756C405.907 511.882 405.611 512.993 404.888 512.867Z" fill="white"/>
<path d="M411.649 543.665C417.803 539.446 422.142 533.061 423.802 525.781C423.966 525.059 425.075 525.352 424.912 526.073C423.17 533.645 418.641 540.281 412.228 544.657C411.616 545.074 411.041 544.079 411.649 543.665Z" fill="white"/>
<path d="M414.126 480.712C415.464 481.25 416.914 481.446 418.347 481.284C419.779 481.121 421.149 480.605 422.333 479.781C422.939 479.357 423.514 480.352 422.912 480.773C421.599 481.677 420.086 482.245 418.503 482.428C416.921 482.611 415.318 482.404 413.834 481.823C413.69 481.78 413.567 481.684 413.491 481.553C413.415 481.423 413.391 481.269 413.425 481.122C413.464 480.975 413.56 480.849 413.691 480.773C413.822 480.696 413.978 480.674 414.126 480.712Z" fill="white"/>
<path d="M535.806 101.666C529.343 67.0328 539.517 27.6318 567.795 6.66846C566.192 44.9489 578.163 82.5633 601.589 112.856C610.666 124.506 621.973 136.518 621.622 151.29C621.403 160.481 616.439 169.044 609.898 175.495C603.355 181.946 595.297 186.597 587.335 191.176L586.095 193.107C562.754 166.743 542.268 136.299 535.806 101.666Z" fill="#F0F0F0"/>
<path d="M568.312 7.198C556.432 33.8234 553.231 63.5205 559.165 92.0711C560.474 98.18 562.332 104.263 565.483 109.69C568.596 114.957 573.06 119.293 578.412 122.247C583.346 125.103 588.724 127.451 592.88 131.458C597.26 135.681 599.211 141.446 599.048 147.468C598.849 154.837 596.018 161.695 593.017 168.304C589.684 175.643 586.107 183.213 586.323 191.464C586.349 192.464 584.799 192.446 584.772 191.448C584.396 177.093 594.761 165.564 597.07 151.789C598.148 145.362 597.297 138.57 592.785 133.588C588.839 129.231 583.295 126.805 578.274 123.957C573.001 120.967 568.512 117.272 565.176 112.15C561.763 106.911 559.663 100.888 558.204 94.8394C554.999 81.0988 553.97 66.9389 555.157 52.8785C556.423 36.8239 560.422 21.1045 566.981 6.40027C567.388 5.49034 568.716 6.29401 568.312 7.198Z" fill="white"/>
<path d="M556.711 82.9907C551.792 83.3373 546.91 81.9219 542.938 78.9971C538.965 76.0723 536.16 71.8286 535.023 67.0239C534.797 66.0509 536.296 65.6525 536.523 66.6268C537.573 71.1029 540.186 75.0556 543.891 77.7716C547.596 80.4876 552.149 81.7879 556.727 81.4379C557.722 81.363 557.7 82.9162 556.711 82.9907Z" fill="white"/>
<path d="M575.718 121.13C582.395 113.568 585.981 103.765 585.761 93.6734C585.738 92.6737 587.289 92.6911 587.311 93.6897C587.521 104.191 583.769 114.386 576.803 122.239C576.138 122.987 575.057 121.874 575.718 121.13Z" fill="white"/>
<path d="M558.237 37.7881C560.168 38.0511 562.134 37.8296 563.958 37.1437C565.783 36.4577 567.408 35.3288 568.69 33.8581C569.344 33.102 570.425 34.2164 569.775 34.9675C568.352 36.5858 566.555 37.8304 564.54 38.5927C562.526 39.3551 560.356 39.6119 558.22 39.3408C558.017 39.3321 557.824 39.2462 557.682 39.1005C557.539 38.9548 557.458 38.7602 557.453 38.5563C557.456 38.3507 557.54 38.1547 557.687 38.0108C557.834 37.867 558.031 37.787 558.237 37.7881Z" fill="white"/>
<path d="M683.436 35.3153C683.041 35.7991 682.645 36.2828 682.253 36.7793C676.971 43.3109 672.228 50.2614 668.07 57.5622C667.74 58.1216 667.414 58.6934 667.1 59.2611C657.27 76.9573 650.807 96.3272 648.038 116.386C646.944 124.369 646.458 132.424 646.584 140.481C646.758 151.607 647.832 163.658 644.426 173.891C644.082 174.963 643.673 176.012 643.2 177.033L588.545 194.471C588.401 194.448 588.26 194.438 588.115 194.415L585.965 195.212C585.929 194.797 585.901 194.365 585.866 193.95C585.844 193.71 585.835 193.465 585.813 193.224C585.803 193.063 585.793 192.901 585.774 192.755C585.77 192.701 585.767 192.647 585.768 192.606C585.749 192.461 585.747 192.324 585.732 192.191C585.57 189.781 585.419 187.367 585.294 184.944C585.29 184.932 585.29 184.932 585.299 184.916C584.36 166.467 584.952 147.779 588.358 129.774C588.46 129.232 588.558 128.678 588.686 128.129C590.266 120.021 592.505 112.057 595.381 104.315C596.969 100.081 598.771 95.9303 600.778 91.8786C605.985 81.4195 612.803 71.8457 620.981 63.5081C637.286 46.8896 658.717 35.678 681.681 35.325C682.269 35.3164 682.845 35.3114 683.436 35.3153Z" fill="#F0F0F0"/>
<path d="M683.534 36.0492C658.04 50.1455 637.629 71.9273 625.201 98.301C622.573 103.967 620.399 109.945 619.653 116.178C618.971 122.26 619.929 128.413 622.425 133.999C624.649 139.254 627.531 144.371 628.44 150.076C629.398 156.089 627.49 161.867 623.739 166.578C619.15 172.342 612.766 176.11 606.395 179.578C599.322 183.429 591.914 187.316 587.126 194.035C586.546 194.849 585.318 193.899 585.898 193.087C594.228 181.398 609.435 178.441 619.561 168.835C624.286 164.353 627.691 158.418 627.083 151.719C626.552 145.861 623.584 140.582 621.287 135.28C618.875 129.714 617.512 124.058 617.928 117.957C618.353 111.716 620.298 105.641 622.77 99.932C628.471 87.0282 636.164 75.1025 645.565 64.5916C656.229 52.5361 668.873 42.3959 682.951 34.61C683.822 34.1284 684.399 35.5708 683.534 36.0492Z" fill="white"/>
<path d="M628.703 89.5727C624.567 86.884 621.52 82.8107 620.107 78.0803C618.693 73.3498 619.005 68.2703 620.986 63.7487C621.39 62.8352 622.827 63.421 622.422 64.3357C620.57 68.5428 620.28 73.2744 621.605 77.6767C622.93 82.079 625.783 85.862 629.649 88.3427C630.489 88.8828 629.538 90.1097 628.703 89.5727Z" fill="white"/>
<path d="M620.946 131.483C630.823 129.471 639.581 123.806 645.472 115.615C646.055 114.803 647.283 115.752 646.7 116.563C640.554 125.075 631.428 130.952 621.145 133.023C620.165 133.219 619.971 131.678 620.946 131.483Z" fill="white"/>
<path d="M657.098 54.4013C658.482 55.7755 660.185 56.784 662.054 57.3363C663.923 57.8886 665.9 57.9674 667.807 57.5656C668.784 57.3565 668.977 58.8978 668.006 59.1055C665.897 59.5397 663.714 59.45 661.648 58.8444C659.581 58.2388 657.694 57.1356 656.152 55.6313C655.994 55.5017 655.892 55.317 655.866 55.1147C655.84 54.9125 655.892 54.7078 656.011 54.5424C656.137 54.3801 656.322 54.2743 656.525 54.2479C656.729 54.2215 656.935 54.2766 657.098 54.4013Z" fill="white"/>
<path d="M700.778 351.064L667.841 174.464C667.277 171.553 665.743 168.919 663.489 166.996C661.235 165.073 658.395 163.974 655.435 163.878C655.169 163.873 654.903 163.873 654.636 163.878L632.199 164.684L629.784 164.773L618.586 165.176L616.171 165.259L608.968 165.52L463.725 170.742C463.506 170.754 463.282 170.754 463.063 170.748L430.516 170.066L418.472 169.817L418.087 169.811L409.197 169.622L331.734 168.009L311.197 167.577L301.07 167.369L298.643 167.316L287.096 167.079L284.675 167.026L272.862 166.783L270.441 166.729L257.462 166.457L255.426 166.415L243.849 166.172L242.02 166.137H241.754C238.68 166.149 235.71 167.249 233.369 169.243C231.027 171.236 229.465 173.994 228.958 177.03L199.169 360.286C198.867 362.142 198.971 364.042 199.474 365.854C199.978 367.666 200.869 369.347 202.085 370.78C203.302 372.213 204.815 373.364 206.52 374.154C208.225 374.943 210.081 375.352 211.959 375.352H383.031C385.549 375.359 387.999 376.168 390.027 377.663L393.27 380.069C395.506 381.717 398.207 382.61 400.982 382.618H501.8C503.503 382.622 505.191 382.288 506.764 381.635C508.338 380.982 509.767 380.023 510.968 378.813C513.022 376.757 515.762 375.535 518.662 375.381L688.716 366.408C690.56 366.312 692.362 365.822 694.002 364.971C695.641 364.12 697.08 362.928 698.222 361.476C699.364 360.023 700.183 358.342 700.624 356.546C701.065 354.751 701.117 352.881 700.778 351.064Z" fill="#CCCCCC"/>
<path d="M673.826 346.263L655.467 164.116C655.461 164.039 655.449 163.956 655.437 163.879C655.093 160.968 653.659 158.297 651.424 156.405L611.929 123.458C610.212 122.014 608.077 121.161 605.839 121.022C587.77 119.86 495.907 115.558 461.999 145.031C460.97 145.928 459.758 146.588 458.447 146.965C457.136 147.342 455.758 147.426 454.411 147.212C453.061 146.993 451.774 146.485 450.638 145.721C449.503 144.958 448.545 143.959 447.83 142.791C444.947 138.291 441.169 134.434 436.732 131.459C434.74 130.074 432.665 128.813 430.518 127.684C428.618 126.682 426.552 125.71 424.303 124.774C422.368 123.968 420.302 123.191 418.089 122.45C406.613 118.61 391.271 115.741 370.769 114.781C362.264 114.378 353.019 114.325 343.295 114.615C334.417 114.876 324.983 115.415 315.259 116.221L315.117 116.227L249.319 156.452C247.844 157.373 246.598 158.618 245.674 160.092C244.75 161.567 244.173 163.232 243.987 164.963L243.851 166.172L222.958 353.109C222.777 354.697 222.923 356.305 223.386 357.835C223.849 359.365 224.62 360.784 225.651 362.005C226.654 363.195 227.904 364.152 229.313 364.811C230.722 365.47 232.257 365.815 233.813 365.821H395.935C398.091 365.832 400.179 366.574 401.86 367.925L408.939 373.603C410.783 375.087 413.066 375.916 415.431 375.962L486.715 377.13H486.887C488.687 377.127 490.457 376.666 492.03 375.79L505.779 368.145C507.033 367.445 508.43 367.04 509.863 366.959L663.51 358.834C665.008 358.754 666.471 358.359 667.806 357.675C669.141 356.99 670.317 356.032 671.258 354.863C672.235 353.672 672.966 352.299 673.407 350.822C673.848 349.345 673.99 347.796 673.826 346.263Z" fill="#E6E6E6"/>
<path d="M620.195 313.415L618.044 285.064L608.971 165.524L607.622 147.84C607.281 143.195 605.225 138.844 601.854 135.634C598.484 132.425 594.041 130.588 589.391 130.48C556.146 129.626 495.946 131.13 466.405 150.951C463.119 153.187 459.134 154.152 455.191 153.664C451.248 153.177 447.616 151.271 444.972 148.301C440.885 143.808 435.977 140.138 430.513 137.489C426.515 135.481 422.359 133.806 418.086 132.48C405.582 128.48 389.803 126.05 370.749 125.19L325.528 124.925H325.452C322.319 124.928 319.305 126.125 317.022 128.273C314.739 130.421 313.358 133.358 313.161 136.489L311.197 167.575L302.619 303.902C302.459 306.441 302.816 308.987 303.668 311.385C304.52 313.782 305.849 315.981 307.576 317.848C309.302 319.716 311.39 321.212 313.711 322.247C316.033 323.282 318.54 323.833 321.081 323.868C396.987 324.996 430.146 341.039 444.605 354.287C447.68 357.112 451.607 358.828 455.766 359.166C459.925 359.503 464.077 358.442 467.566 356.15C493.812 338.936 537.445 334.15 572.175 333.406C582.81 333.184 592.609 333.33 600.82 333.62C603.459 333.715 606.088 333.251 608.536 332.259C610.983 331.266 613.194 329.767 615.023 327.859C616.852 325.952 618.258 323.679 619.149 321.19C620.041 318.701 620.397 316.051 620.195 313.415Z" fill="white"/>
<path d="M243.37 352.956C243.341 352.956 243.312 352.955 243.284 352.953C243.125 352.941 242.971 352.899 242.829 352.828C242.687 352.757 242.56 352.659 242.456 352.539C242.352 352.419 242.273 352.279 242.222 352.129C242.172 351.978 242.152 351.819 242.163 351.66L255.223 166.997C255.233 166.838 255.274 166.682 255.344 166.539C255.414 166.396 255.512 166.269 255.632 166.164C255.753 166.06 255.893 165.98 256.044 165.931C256.195 165.881 256.355 165.862 256.514 165.875C256.672 165.887 256.827 165.929 256.969 166C257.111 166.071 257.237 166.169 257.341 166.289C257.445 166.409 257.525 166.548 257.575 166.699C257.625 166.85 257.645 167.009 257.634 167.168L244.574 351.831C244.553 352.136 244.417 352.422 244.193 352.631C243.97 352.84 243.675 352.956 243.37 352.956Z" fill="white"/>
<path d="M259.089 345.692C259.06 345.692 259.031 345.691 259.002 345.689C258.844 345.678 258.689 345.635 258.547 345.564C258.405 345.493 258.279 345.395 258.175 345.275C258.071 345.155 257.991 345.016 257.941 344.865C257.891 344.714 257.871 344.555 257.882 344.397L270.942 159.734C270.951 159.574 270.992 159.419 271.063 159.276C271.133 159.133 271.231 159.005 271.351 158.901C271.471 158.796 271.611 158.717 271.763 158.667C271.914 158.617 272.074 158.599 272.232 158.612C272.391 158.623 272.545 158.665 272.687 158.736C272.829 158.807 272.956 158.905 273.06 159.025C273.164 159.145 273.243 159.285 273.294 159.435C273.344 159.586 273.364 159.745 273.353 159.904L260.293 344.567C260.272 344.872 260.135 345.158 259.912 345.367C259.688 345.576 259.394 345.692 259.089 345.692Z" fill="white"/>
<path d="M273.596 342.061C273.568 342.061 273.538 342.059 273.51 342.057C273.352 342.046 273.197 342.004 273.055 341.933C272.913 341.862 272.787 341.763 272.683 341.643C272.579 341.523 272.499 341.384 272.449 341.233C272.399 341.083 272.379 340.923 272.39 340.765L285.45 156.102C285.459 155.943 285.5 155.787 285.57 155.644C285.641 155.501 285.739 155.373 285.859 155.269C285.979 155.164 286.119 155.085 286.27 155.035C286.422 154.986 286.582 154.967 286.74 154.98C286.899 154.991 287.053 155.033 287.195 155.104C287.337 155.175 287.464 155.274 287.568 155.394C287.672 155.514 287.751 155.653 287.801 155.804C287.852 155.954 287.872 156.114 287.861 156.272L274.801 340.935C274.779 341.24 274.643 341.526 274.42 341.735C274.196 341.944 273.902 342.06 273.596 342.061Z" fill="white"/>
<path d="M288.104 334.797C288.076 334.797 288.046 334.795 288.018 334.793C287.86 334.782 287.705 334.74 287.563 334.669C287.421 334.598 287.294 334.499 287.19 334.379C287.086 334.259 287.007 334.12 286.957 333.969C286.906 333.819 286.886 333.659 286.898 333.501L299.958 148.838C299.967 148.679 300.008 148.523 300.078 148.38C300.148 148.237 300.247 148.109 300.367 148.005C300.487 147.9 300.627 147.821 300.778 147.771C300.93 147.722 301.089 147.703 301.248 147.716C301.406 147.727 301.561 147.769 301.703 147.84C301.845 147.911 301.972 148.01 302.076 148.13C302.18 148.25 302.259 148.389 302.309 148.54C302.36 148.69 302.38 148.85 302.368 149.008L289.308 333.671C289.287 333.977 289.151 334.262 288.928 334.471C288.704 334.68 288.41 334.796 288.104 334.797Z" fill="white"/>
<path d="M659.252 354.167C659.28 354.167 659.31 354.166 659.338 354.163C659.496 354.152 659.651 354.11 659.793 354.039C659.935 353.968 660.061 353.87 660.165 353.75C660.269 353.63 660.349 353.49 660.399 353.339C660.449 353.189 660.47 353.03 660.458 352.871L647.398 168.208C647.389 168.049 647.348 167.893 647.278 167.75C647.207 167.607 647.109 167.479 646.989 167.375C646.869 167.27 646.729 167.191 646.578 167.141C646.426 167.092 646.266 167.073 646.108 167.086C645.949 167.097 645.795 167.139 645.653 167.21C645.511 167.281 645.384 167.38 645.28 167.5C645.176 167.62 645.097 167.759 645.047 167.91C644.996 168.061 644.976 168.22 644.987 168.378L658.047 353.041C658.069 353.347 658.205 353.633 658.428 353.841C658.652 354.05 658.946 354.167 659.252 354.167Z" fill="white"/>
<path d="M643.533 343.271C643.561 343.271 643.591 343.27 643.619 343.267C643.777 343.256 643.932 343.214 644.074 343.143C644.216 343.072 644.343 342.974 644.447 342.854C644.551 342.734 644.63 342.594 644.68 342.444C644.731 342.293 644.751 342.134 644.74 341.975L631.679 157.312C631.67 157.153 631.629 156.997 631.559 156.854C631.489 156.711 631.39 156.584 631.27 156.479C631.15 156.375 631.01 156.295 630.859 156.246C630.707 156.196 630.548 156.177 630.389 156.19C630.231 156.201 630.076 156.244 629.934 156.315C629.792 156.386 629.666 156.484 629.562 156.604C629.457 156.724 629.378 156.863 629.328 157.014C629.278 157.165 629.257 157.324 629.269 157.483L642.329 342.146C642.35 342.451 642.486 342.737 642.71 342.946C642.933 343.155 643.227 343.271 643.533 343.271Z" fill="white"/>
<path d="M629.025 331.165C629.053 331.165 629.083 331.164 629.111 331.161C629.27 331.15 629.424 331.108 629.566 331.037C629.708 330.966 629.835 330.868 629.939 330.748C630.043 330.628 630.122 330.488 630.173 330.338C630.223 330.187 630.243 330.028 630.232 329.869L617.172 145.206C617.162 145.047 617.121 144.891 617.051 144.748C616.981 144.605 616.883 144.478 616.762 144.373C616.642 144.268 616.502 144.189 616.351 144.139C616.2 144.09 616.04 144.071 615.881 144.084C615.723 144.095 615.568 144.138 615.426 144.209C615.284 144.28 615.158 144.378 615.054 144.498C614.95 144.618 614.87 144.757 614.82 144.908C614.77 145.059 614.75 145.218 614.761 145.376L627.821 330.039C627.842 330.345 627.978 330.631 628.202 330.839C628.425 331.048 628.719 331.165 629.025 331.165Z" fill="white"/>
<path d="M332.338 166.64C359.589 157.934 389.991 160.239 415.808 172.504C423.174 175.986 430.131 180.276 436.55 185.297C438.366 186.724 440.95 184.172 439.114 182.729C415.403 164.312 385.609 155.563 355.72 158.24C347.451 158.981 339.287 160.623 331.374 163.138C329.159 163.846 330.106 167.353 332.338 166.64Z" fill="#3F3D56"/>
<path d="M482.289 186.706C507.625 173.371 537.965 170.463 565.512 178.032C573.366 180.185 580.955 183.207 588.141 187.042C590.2 188.142 592.034 185.008 589.972 183.906C563.717 169.878 532.201 166.648 503.53 174.468C495.532 176.654 487.796 179.706 480.458 183.57C478.391 184.658 480.223 187.794 482.289 186.706Z" fill="#3F3D56"/>
<path d="M482.289 210.919C507.625 197.583 537.965 194.675 565.512 202.245C573.366 204.398 580.955 207.42 588.141 211.255C590.2 212.355 592.034 209.221 589.972 208.119C563.717 194.09 532.201 190.861 503.53 198.681C495.532 200.866 487.796 203.918 480.458 207.783C478.391 208.871 480.223 212.006 482.289 210.919Z" fill="#3F3D56"/>
<path d="M590.86 233.832C590.879 233.521 590.804 233.21 590.645 232.942C590.485 232.673 590.249 232.459 589.966 232.327C568.934 221.299 545.087 216.826 521.494 219.484C521.346 219.496 521.21 219.519 521.05 219.531H521.044C520.899 219.544 520.755 219.566 520.612 219.596C506.58 221.213 492.967 225.415 480.46 231.989C480.187 232.152 479.962 232.383 479.805 232.659C479.648 232.935 479.566 233.248 479.566 233.566V278.734C479.571 279.012 479.638 279.285 479.764 279.533C479.89 279.781 480.07 279.997 480.291 280.165C480.512 280.333 480.769 280.448 481.041 280.502C481.313 280.556 481.594 280.547 481.863 280.476C482.419 280.316 482.976 280.162 483.544 280.014C496.187 276.587 509.167 274.554 522.251 273.951C522.53 273.939 522.808 273.927 523.098 273.915C533.755 273.457 544.432 273.841 555.029 275.065C555.251 275.078 555.472 275.101 555.692 275.136C556.236 275.195 556.792 275.261 557.337 275.332C557.556 275.355 557.763 275.379 557.964 275.415C560.083 275.681 562.184 275.984 564.291 276.31C567.334 276.796 570.376 277.337 573.418 277.934C573.607 277.969 573.803 278.016 573.998 278.052C578.881 279.024 583.74 280.15 588.575 281.395C588.845 281.464 589.126 281.472 589.399 281.417C589.671 281.361 589.928 281.245 590.149 281.076C590.37 280.907 590.55 280.69 590.675 280.441C590.801 280.193 590.868 279.919 590.872 279.64V233.903C590.874 233.879 590.87 233.855 590.86 233.832Z" fill="#3F3D56"/>
<path d="M524.336 221.947C523.007 221.295 521.484 221.161 520.063 221.571C519.434 221.806 518.859 222.165 518.371 222.625C517.882 223.085 517.49 223.638 517.216 224.251C516.723 225.427 516.408 226.67 516.279 227.939C516.204 228.438 516.199 229.067 516.7 229.3C516.882 229.366 517.079 229.381 517.268 229.344C517.458 229.306 517.634 229.217 517.777 229.087C518.036 228.832 518.249 228.534 518.407 228.206C519.277 226.851 520.474 225.737 521.887 224.968C523.301 224.199 524.885 223.798 526.493 223.804L527.832 224.338C526.779 223.388 525.603 222.584 524.336 221.947Z" fill="#FF6582"/>
<path d="M538.829 232.357C537.79 230.825 536.558 229.19 534.63 228.69C532.397 228.11 530.103 229.261 528.157 230.397C522.371 233.771 516.768 237.451 511.371 241.42L511.377 241.48L523.903 240.71C526.92 240.524 530.04 240.313 532.706 239.041C533.663 238.44 534.733 238.042 535.85 237.869C536.543 237.907 537.221 238.081 537.846 238.383C538.471 238.684 539.031 239.107 539.492 239.626C545.265 245.105 546.935 253.484 553.412 258.298C549.29 249.255 544.412 240.577 538.829 232.357Z" fill="white"/>
<path d="M523.101 273.914C522.811 273.926 522.532 273.938 522.254 273.951C520.236 273.224 518.168 272.583 516.077 272.026C514.723 271.662 513.345 271.336 511.966 271.057C510.407 270.718 508.835 270.452 507.263 270.222C504.271 269.786 501.255 269.531 498.233 269.459C498.21 269.462 498.186 269.459 498.165 269.452C498.143 269.445 498.122 269.433 498.105 269.418C498.088 269.403 498.074 269.384 498.065 269.363C498.056 269.342 498.051 269.319 498.051 269.296C498.051 269.273 498.056 269.25 498.065 269.229C498.074 269.208 498.088 269.189 498.105 269.173C498.122 269.158 498.143 269.146 498.165 269.139C498.186 269.132 498.21 269.13 498.233 269.132C498.619 269.132 499.006 269.144 499.381 269.169C502.41 269.281 505.43 269.576 508.424 270.052C509.984 270.307 511.543 270.609 513.091 270.948C514.493 271.263 515.895 271.614 517.274 272.002C519.244 272.558 521.186 273.196 523.101 273.914Z" fill="white"/>
<path d="M557.965 275.415C557.759 275.379 557.553 275.355 557.336 275.331C556.502 274.641 555.656 273.987 554.773 273.345C553.673 272.546 552.536 271.796 551.376 271.094C548.806 269.531 546.122 268.163 543.348 267.002C538.963 265.173 534.423 263.739 529.784 262.716C524.491 261.555 519.134 260.714 513.741 260.198C508.349 259.641 502.933 259.302 497.517 258.963C497.287 258.951 497.275 258.612 497.517 258.624C498.194 258.673 498.871 258.709 499.56 258.757C505.036 259.096 510.513 259.484 515.953 260.101C521.347 260.68 526.698 261.61 531.972 262.886C536.474 263.997 540.868 265.508 545.101 267.401C547.536 268.497 549.895 269.754 552.162 271.166C553.6 272.074 554.991 273.043 556.32 274.072C556.877 274.507 557.433 274.943 557.965 275.415Z" fill="white"/>
<path d="M555.692 275.137C555.472 275.102 555.25 275.077 555.027 275.064C554.773 274.859 554.507 274.665 554.242 274.471C552.38 273.137 550.438 271.92 548.426 270.827C546.599 269.833 544.723 268.932 542.805 268.128C538.421 266.293 533.881 264.859 529.24 263.842C523.948 262.681 518.59 261.84 513.197 261.324C507.805 260.767 502.389 260.428 496.973 260.089C496.743 260.065 496.743 259.738 496.973 259.75C497.662 259.799 498.339 259.835 499.016 259.883C504.493 260.222 509.969 260.61 515.41 261.227C520.804 261.806 526.155 262.736 531.428 264.012C535.931 265.12 540.325 266.632 544.557 268.527C546.153 269.253 547.713 270.04 549.236 270.9C551.495 272.142 553.654 273.559 555.692 275.137Z" fill="white"/>
<path d="M573.995 278.055C573.801 278.018 573.608 277.97 573.414 277.934C573.197 277.704 572.991 277.462 572.786 277.219C571.746 276.021 570.718 274.81 569.703 273.588C565.701 268.818 561.905 263.903 558.326 258.891C555.256 254.605 552.342 250.235 549.586 245.779C548.268 243.673 546.998 241.542 545.753 239.387C544.786 237.717 543.843 236.042 542.924 234.363C542.658 233.879 542.405 233.395 542.151 232.91C541.558 231.772 540.966 230.622 540.337 229.497C539.654 228.117 538.651 226.922 537.411 226.01C536.792 225.595 536.075 225.349 535.332 225.296C534.284 225.3 533.253 225.566 532.334 226.07C525.57 229.225 519.19 233.144 513.317 237.753C507.581 242.22 502.395 247.353 497.866 253.043C497.721 253.213 497.407 253.055 497.54 252.874C498.084 252.196 498.64 251.518 499.196 250.852C503.548 245.697 508.45 241.032 513.812 236.942C513.825 236.93 513.849 236.918 513.861 236.906C514.332 236.53 514.804 236.167 515.287 235.816C518.282 233.608 521.398 231.571 524.621 229.714C526.265 228.758 527.945 227.85 529.662 226.991C530.085 226.773 530.52 226.555 530.955 226.349C531.391 226.131 531.826 225.925 532.261 225.719C533.123 225.279 534.065 225.02 535.03 224.957C538.391 224.908 540.119 228.298 541.316 230.586C541.691 231.3 542.078 232.015 542.453 232.729C543.904 235.429 545.415 238.116 546.987 240.768C547.941 242.414 548.933 244.048 549.936 245.671C551.375 247.983 552.85 250.271 554.385 252.547L554.386 252.552L554.389 252.556L554.393 252.558L554.397 252.559C556.174 255.247 558.024 257.886 559.935 260.513C563.211 265.004 566.644 269.395 570.235 273.684C571.468 275.161 572.721 276.618 573.995 278.055Z" fill="white"/>
<path d="M590.875 272.716V273.273C589.678 271.868 588.457 270.476 587.248 269.084C586.74 268.503 586.232 267.922 585.724 267.341C583.572 264.895 581.408 262.458 579.232 260.028C577.044 257.607 574.856 255.186 572.643 252.777C572.112 252.196 571.58 251.615 571.036 251.034C570.6 250.545 570.127 250.092 569.621 249.677C569.11 249.252 568.524 248.927 567.892 248.721C567.166 248.519 566.399 248.511 565.668 248.697C564.834 248.891 564.036 249.193 563.226 249.448C562.391 249.726 561.569 249.992 560.735 250.259C559.067 250.803 557.411 251.348 555.742 251.893C555.722 251.901 555.699 251.906 555.677 251.905C555.655 251.905 555.633 251.9 555.613 251.891C555.592 251.882 555.574 251.869 555.559 251.853C555.544 251.836 555.532 251.817 555.525 251.796C555.515 251.773 555.511 251.748 555.512 251.724C555.513 251.699 555.52 251.675 555.531 251.653C555.543 251.631 555.559 251.612 555.579 251.597C555.599 251.582 555.621 251.571 555.646 251.566C556.057 251.433 556.48 251.3 556.903 251.167C558.583 250.61 560.252 250.065 561.932 249.52C562.766 249.242 563.6 248.975 564.435 248.709C565.208 248.415 566.026 248.251 566.853 248.225C568.203 248.322 569.469 248.917 570.407 249.896C570.927 250.38 571.398 250.888 571.87 251.409C572.426 252.014 572.982 252.619 573.538 253.225C575.775 255.67 577.995 258.124 580.199 260.585C582.412 263.055 584.604 265.529 586.776 268.006C586.933 268.188 587.091 268.37 587.248 268.551C588.469 269.931 589.666 271.324 590.875 272.716Z" fill="white"/>
<path d="M530.866 224.588L530.531 224.734C529.765 223.439 528.692 222.353 527.406 221.573C526.12 220.794 524.661 220.344 523.16 220.265C518.21 219.913 513.863 223.216 513.467 227.628C513.307 229.444 513.832 231.255 514.939 232.703L514.629 232.887C513.476 231.379 512.929 229.493 513.096 227.601C513.507 223.007 518.035 219.567 523.19 219.934C524.753 220.017 526.272 220.484 527.611 221.296C528.95 222.108 530.068 223.239 530.866 224.588Z" fill="#FF6582"/>
<path d="M506.407 233.513C505.108 232.948 503.693 232.699 502.28 232.79C500.866 232.88 499.494 233.305 498.277 234.031C502.72 234.714 507.123 235.63 511.47 236.776C509.67 235.836 508.262 234.363 506.407 233.513Z" fill="white"/>
<path d="M498.251 234.027L497.762 234.382C497.927 234.258 498.099 234.141 498.276 234.031L498.251 234.027Z" fill="white"/>
<path d="M569.432 251.908C568.976 251.319 568.367 250.866 567.672 250.598L566.984 250.622C572.38 259.03 579.449 266.234 587.75 271.783C581.644 265.158 575.538 258.533 569.432 251.908Z" fill="white"/>
<path d="M512.982 236.083C512.787 235.889 512.593 235.695 512.397 235.502C510.892 233.862 509.08 232.534 507.064 231.593C506.037 231.161 504.936 230.933 503.822 230.924C502.671 230.951 501.533 231.172 500.456 231.578C499.949 231.758 499.454 231.963 498.965 232.181C498.408 232.432 497.86 232.698 497.315 232.967C496.291 233.472 495.281 233.999 494.284 234.548C492.301 235.641 490.379 236.817 488.52 238.077C487.556 238.73 486.612 239.404 485.688 240.1C484.828 240.747 483.986 241.411 483.161 242.092C482.985 242.237 482.722 242.002 482.898 241.857C483.116 241.677 483.335 241.498 483.555 241.32C484.176 240.82 484.807 240.329 485.448 239.848C486.617 238.969 487.816 238.124 489.045 237.313C490.957 236.051 492.934 234.874 494.977 233.783C495.998 233.239 497.033 232.717 498.082 232.218C498.399 232.067 498.72 231.92 499.044 231.781C499.784 231.448 500.548 231.171 501.329 230.951C502.45 230.63 503.622 230.527 504.781 230.649C505.891 230.791 506.968 231.123 507.965 231.631C509.942 232.74 511.725 234.164 513.245 235.847C513.404 236.006 513.142 236.242 512.982 236.083Z" fill="white"/>
<path d="M332.338 190.853C359.589 182.146 389.991 184.451 415.808 196.717C423.174 200.198 430.131 204.489 436.55 209.51C438.366 210.937 440.95 208.384 439.114 206.942C415.403 188.525 385.609 179.776 355.72 182.453C347.451 183.194 339.287 184.836 331.374 187.351C329.159 188.058 330.106 191.566 332.338 190.853Z" fill="#3F3D56"/>
<path d="M332.338 215.065C359.589 206.359 389.991 208.664 415.808 220.929C423.174 224.411 430.131 228.701 436.55 233.722C438.366 235.149 440.95 232.597 439.114 231.154C415.403 212.737 385.609 203.988 355.72 206.665C347.451 207.406 339.287 209.048 331.374 211.563C329.159 212.271 330.106 215.779 332.338 215.065Z" fill="#3F3D56"/>
<path d="M332.338 239.278C359.589 230.571 389.991 232.876 415.808 245.142C423.174 248.623 430.131 252.914 436.55 257.935C438.366 259.362 440.95 256.809 439.114 255.367C415.403 236.95 385.609 228.201 355.72 230.878C347.451 231.619 339.287 233.261 331.374 235.775C329.159 236.483 330.106 239.991 332.338 239.278Z" fill="#3F3D56"/>
<path d="M332.338 263.49C359.589 254.784 389.991 257.089 415.808 269.354C423.174 272.836 430.131 277.126 436.55 282.147C438.366 283.574 440.95 281.022 439.114 279.579C415.403 261.162 385.609 252.413 355.72 255.09C347.451 255.831 339.287 257.474 331.374 259.988C329.159 260.696 330.106 264.204 332.338 263.49Z" fill="#3F3D56"/>
<path d="M332.338 287.703C359.589 278.996 389.991 281.301 415.808 293.567C423.174 297.048 430.131 301.339 436.55 306.36C438.366 307.787 440.95 305.234 439.114 303.792C415.403 285.375 385.609 276.626 355.72 279.303C347.451 280.044 339.287 281.686 331.374 284.201C329.159 284.908 330.106 288.416 332.338 287.703Z" fill="#3F3D56"/>
<path d="M430.519 127.684V195.545C430.519 196.701 428.507 197.667 425.79 197.928C425.316 197.975 424.819 197.999 424.304 197.999C422.809 198.028 421.321 197.785 419.913 197.282C419.652 197.18 419.398 197.059 419.155 196.92C418.48 196.523 418.09 196.055 418.09 195.545V122.45C420.303 123.191 422.369 123.968 424.304 124.774C426.553 125.71 428.619 126.682 430.519 127.684Z" fill="#00B0FF"/>
<path d="M456.569 150.952H454.793V370.468H456.569V150.952Z" fill="#E6E6E6"/>
<path d="M615.033 327.851C613.202 329.759 610.99 331.259 608.542 332.253C606.093 333.247 603.462 333.713 600.822 333.62C592.611 333.329 582.812 333.184 572.177 333.406L572.117 333.355L618.208 273.525L620.197 313.415C620.396 316.049 620.039 318.696 619.15 321.183C618.26 323.67 616.857 325.942 615.033 327.851Z" fill="#F2F2F2"/>
<path d="M500.29 536.957L497.832 556.94L495.954 572.128L495.203 578.256H484.516V572.812L484.508 554.794V536.957H500.29Z" fill="#FFB6B6"/>
<path d="M425.779 534.862L422.749 544.23L420.316 551.743L419.898 553.034L418.234 558.17L414.717 569.034L412.967 574.444L403.245 572.564L402.469 572.418L403.1 569.153L403.484 567.162L407.735 545.093L408.426 541.538L408.537 540.965L408.853 539.315L410.287 531.871L420.649 533.871L421.844 534.102L425.779 534.862Z" fill="#FFB6B6"/>
<path d="M516.347 417.955C510.236 451.588 508.708 466.109 508.708 466.109C508.708 466.109 513.291 471.46 510.236 474.519C507.18 477.579 510.236 483.691 510.236 483.691L503.365 557.837L497.834 556.939L484.51 554.794L479.705 554.016L482.76 484.46C482.76 484.46 479.704 478.34 481.232 476.81C482.76 475.28 479.705 466.109 479.705 466.109L475.889 393.493L452.221 472.989C452.221 472.989 454.517 476.049 452.221 478.34C449.933 480.631 445.358 492.101 445.358 492.101L431.283 541.418L430.088 545.606L422.748 544.23L414.759 542.726L413.291 542.452L410.679 541.956L408.998 541.64L408.426 541.538L405.66 541.016L406.497 537.298L406.932 535.341L418.839 482.383L419.112 481.161L419.402 479.87C419.402 479.87 417.874 476.049 420.162 473.75C420.831 473.05 421.32 472.196 421.586 471.264C421.852 470.332 421.888 469.349 421.69 468.4C421.615 468.32 421.546 468.234 421.485 468.143C421.215 467.772 421.028 467.346 420.938 466.895C420.734 465.938 420.913 464.596 422.458 463.049C422.893 462.586 423.258 462.062 423.542 461.494C425.863 457.092 427.033 447.767 427.033 447.767C427.033 447.767 429.098 373.911 435.858 362.629C436.125 362.137 436.502 361.713 436.959 361.39C444.59 356.808 517.866 361.39 517.866 361.39C517.866 361.39 517.969 361.92 518.131 362.928C519.01 368.595 521.528 389.424 516.347 417.955Z" fill="#2F2E41"/>
<path d="M513.945 282.27L516.085 269.363L555.487 276.003L611.39 280.008C612.603 278.664 614.217 277.749 615.992 277.398C617.766 277.047 619.607 277.279 621.239 278.06C622.871 278.841 624.208 280.129 625.05 281.732C625.892 283.335 626.195 285.168 625.913 286.957C625.631 288.747 624.779 290.397 623.485 291.663C622.19 292.928 620.523 293.741 618.729 293.981C616.936 294.22 615.114 293.873 613.533 292.992C611.953 292.111 610.699 290.742 609.959 289.089L575.672 291.399L513.945 282.27Z" fill="#FFB6B6"/>
<path d="M484.492 273.336L487.274 261.814C487.274 261.814 502.382 259.029 514.326 261.694L559.261 270.329L555.624 297.529L484.492 273.336Z" fill="#00B0FF"/>
<path d="M380.193 368.214L405.333 313.526L423.679 274.834L439.59 284.211L390.058 374.232C390.493 375.837 390.443 377.535 389.915 379.111C389.386 380.688 388.402 382.072 387.088 383.088C385.774 384.105 384.188 384.708 382.531 384.823C380.875 384.937 379.221 384.556 377.78 383.729C376.339 382.903 375.176 381.666 374.437 380.177C373.697 378.688 373.415 377.013 373.627 375.364C373.838 373.714 374.534 372.165 375.624 370.911C376.715 369.657 378.153 368.755 379.756 368.32C379.901 368.28 380.046 368.246 380.193 368.214Z" fill="#FFB6B6"/>
<path d="M452.698 258.255L440.496 252.649C440.496 252.649 438.332 251.897 433.666 258.367C429 264.836 388.863 325.881 388.863 325.881L414.351 337.418L452.698 258.255Z" fill="#00B0FF"/>
<path d="M514.099 590.154L498.215 579.162V571.991L495.953 572.128L484.516 572.812L481.503 572.991L479.42 597.966L479.395 598.316H486.897L486.965 597.966L488.237 591.222L491.489 597.966L491.66 598.316H511.564C512.162 598.315 512.754 598.196 513.306 597.966C514.044 597.654 514.685 597.148 515.162 596.502C515.638 595.857 515.933 595.094 516.014 594.295C516.095 593.497 515.96 592.691 515.623 591.962C515.286 591.233 514.76 590.609 514.099 590.154Z" fill="#2F2E41"/>
<path d="M429.379 590.812L422.457 583.256L417.626 577.974L416.832 577.102L416.712 576.974L416.328 576.555L417.924 569.564L414.715 569.034L403.482 567.162L402.876 567.068L401.682 566.863L401.408 566.82L397.576 578.914L394.102 589.846L393.727 591.043L398.344 592.094L401.041 592.709L402.373 589.649L402.518 589.325L403.389 587.316V587.308L403.926 586.094L405.693 593.769L406 593.838L406.043 593.846L407.127 594.094L409.244 594.581L424.044 597.966L425.094 598.205C426.25 598.463 427.462 598.253 428.464 597.621C429.466 596.988 430.179 595.985 430.446 594.829C430.606 594.123 430.593 593.388 430.407 592.689C430.222 591.989 429.869 591.345 429.379 590.812Z" fill="#2F2E41"/>
<path d="M497.885 222.994C496.159 226.166 493.762 228.923 490.863 231.072C487.963 233.221 484.63 234.711 481.096 235.438C480.703 235.524 480.311 235.592 479.909 235.652C474.364 236.52 468.689 235.483 463.807 232.711C458.925 229.939 455.124 225.593 453.021 220.383C450.919 215.172 450.639 209.402 452.228 204.011C453.816 198.621 457.179 193.928 461.77 190.695C466.361 187.462 471.909 185.88 477.512 186.206C483.115 186.532 488.443 188.747 492.629 192.491C496.815 196.234 499.613 201.286 500.567 206.825C501.521 212.363 500.576 218.062 497.885 222.994Z" fill="#FFB6B6"/>
<path d="M487.999 189.207C479.865 183.605 472.702 182.752 466.818 184.34C466.055 183.159 464.985 182.208 463.724 181.589C459.135 170.01 445.169 163.056 433.184 166.437C421.122 169.839 412.799 183.219 415.069 195.561C416.475 203.21 421.283 209.835 423.217 217.368C426.96 231.952 417.828 248.658 403.543 253.359C417.069 256.079 431.957 247.805 436.81 234.873C439.166 228.592 439.309 221.734 439.608 215.03C439.687 210.403 440.253 205.798 441.297 201.29C441.815 199.267 442.547 197.306 443.481 195.439C445.514 191.335 448.892 188.054 453.049 186.143C452.677 187.296 452.584 188.521 452.778 189.718C452.972 190.914 453.447 192.047 454.164 193.023C450.992 197.002 449.265 201.305 449.265 203.882C442.676 215.942 452.099 226.301 464.142 232.9C468.946 235.545 474.493 236.514 479.907 235.652L480.411 233.498L481.094 235.438L483.372 241.943C486.001 243.216 488.608 244.612 491.191 246.131C490.21 241.515 489.416 236.908 488.869 232.404C488.113 226.273 490.75 217.146 492.652 211.596C493.831 208.175 494.436 204.582 494.443 200.963V200.805L496.295 206.763L503.038 203.882C501.784 196.677 503.038 188.497 487.999 189.207Z" fill="#2F2E41"/>
<path d="M436.193 354.512C437.079 351 437.079 347.322 436.193 343.811C434.666 338.46 437.719 336.167 437.719 336.167L438.483 253.615C441.708 250.385 450.348 250.333 455.182 250.584V246.948C455.182 245.61 455.713 244.326 456.658 243.379C457.603 242.433 458.885 241.901 460.222 241.901H482.576C483.912 241.901 485.195 242.433 486.14 243.379C487.085 244.326 487.616 245.61 487.616 246.948V251.306L494.172 251.409C505.589 252.261 515.578 263.551 515.578 263.551L505.655 301.77C505.655 301.77 508.708 333.109 512.525 336.931C516.342 340.753 514.815 343.046 514.815 343.046C514.815 343.046 512.525 351.454 517.105 354.512C521.685 357.569 518.631 362.92 518.631 362.92C518.631 362.92 436.193 364.449 433.903 362.155C431.613 359.862 436.193 354.512 436.193 354.512Z" fill="#00B0FF"/>
<path d="M588.086 598.983C588.086 599.117 588.06 599.249 588.009 599.373C587.958 599.496 587.884 599.609 587.789 599.703C587.695 599.798 587.583 599.872 587.459 599.923C587.336 599.974 587.204 600 587.07 600H347.832C347.563 600 347.304 599.893 347.114 599.702C346.923 599.511 346.816 599.253 346.816 598.983C346.816 598.713 346.923 598.454 347.114 598.264C347.304 598.073 347.563 597.966 347.832 597.966H587.07C587.204 597.965 587.336 597.991 587.459 598.042C587.583 598.093 587.695 598.168 587.789 598.263C587.884 598.357 587.958 598.47 588.009 598.593C588.06 598.717 588.086 598.849 588.086 598.983Z" fill="#CCCCCC"/>
</g>
<defs>
<clipPath id="clip0_335_124">
<rect width="502" height="594" fill="white" transform="translate(199 6)"/>
</clipPath>
</defs>
</svg>
