<svg width="901" height="600" viewBox="0 0 901 600" fill="none" xmlns="http://www.w3.org/2000/svg">
<g clip-path="url(#clip0_335_175)">
<path d="M540.491 577.897L529.016 576.745L527.992 531.893L544.929 533.592L540.491 577.897Z" fill="#9E616A"/>
<path d="M542.303 589.325L505.301 585.613L505.348 585.144C505.731 581.321 507.615 577.806 510.587 575.374C513.558 572.941 517.374 571.79 521.193 572.173L521.194 572.173L543.794 574.441L542.303 589.325Z" fill="#2F2E41"/>
<path d="M375.197 402.649H147.274C141.872 402.643 136.693 400.492 132.873 396.669C129.053 392.845 126.905 387.661 126.898 382.253V51.3957C126.905 45.9883 129.053 40.8041 132.873 36.9805C136.693 33.1569 141.872 31.0061 147.274 31H375.197C380.599 31.0061 385.778 33.1569 389.598 36.9805C393.418 40.8041 395.567 45.9883 395.573 51.3957V382.253C395.567 387.661 393.418 392.845 389.598 396.669C385.778 400.492 380.599 402.643 375.197 402.649Z" fill="#E4E4E4"/>
<path d="M375.599 389.636H146.875C145.21 389.634 143.613 388.971 142.436 387.793C141.258 386.614 140.596 385.016 140.594 383.349V50.3001C140.596 48.6333 141.258 47.0352 142.436 45.8565C143.613 44.6778 145.21 44.0148 146.875 44.0129H375.599C377.265 44.0148 378.861 44.6778 380.039 45.8565C381.216 47.0352 381.879 48.6333 381.881 50.3001V383.349C381.879 385.016 381.216 386.614 380.039 387.793C378.861 388.971 377.265 389.634 375.599 389.636Z" fill="white"/>
<path d="M260.37 38.9813C261.327 38.9813 262.103 38.2045 262.103 37.2463C262.103 36.288 261.327 35.5112 260.37 35.5112C259.413 35.5112 258.637 36.288 258.637 37.2463C258.637 38.2045 259.413 38.9813 260.37 38.9813Z" fill="white"/>
<path d="M360.734 220.191H209.648V225.81H360.734V220.191Z" fill="#E4E4E4"/>
<path d="M360.734 237.986H209.648V243.605H360.734V237.986Z" fill="#E4E4E4"/>
<path d="M360.734 255.781H209.648V261.4H360.734V255.781Z" fill="#E4E4E4"/>
<path d="M195.969 223.664H161.738V257.928H195.969V223.664Z" fill="#E4E4E4"/>
<path d="M360.734 294.771H209.648V300.39H360.734V294.771Z" fill="#E4E4E4"/>
<path d="M360.734 312.566H209.648V318.185H360.734V312.566Z" fill="#E4E4E4"/>
<path d="M360.734 330.361H209.648V335.98H360.734V330.361Z" fill="#E4E4E4"/>
<path d="M195.969 298.244H161.738V332.508H195.969V298.244Z" fill="#E4E4E4"/>
<path d="M287.266 91.4973L228.082 114.409L250.179 171.599L309.363 148.687L287.266 91.4973Z" fill="#CE8585"/>
<path d="M235.829 169.513L211.891 107.557L275.945 82.759L299.883 144.715L235.829 169.513ZM214.324 108.633L236.906 167.077L297.45 143.638L274.868 85.195L214.324 108.633Z" fill="#3F3D56"/>
<path d="M592.855 588.938C571.177 588.938 553.541 554.33 553.541 511.791C553.484 499.802 554.966 487.855 557.948 476.244C558.356 474.689 558.798 473.149 559.263 471.662C566.451 448.483 579.008 434.644 592.855 434.644C614.532 434.644 632.168 469.251 632.168 511.791C632.168 554.33 614.532 588.938 592.855 588.938ZM592.855 436.527C580.07 436.527 567.887 450.204 561.059 472.223C560.602 473.684 560.168 475.195 559.769 476.717C556.827 488.173 555.366 499.958 555.422 511.786C555.422 553.291 572.214 587.055 592.855 587.055C613.495 587.055 630.287 553.291 630.287 511.791C630.287 470.29 613.495 436.527 592.855 436.527Z" fill="#3F3D56"/>
<path d="M543.062 590.339L499.684 585.903L499.857 584.686L543.236 589.122L543.062 590.339Z" fill="#3F3D56"/>
<path d="M602.37 557.504C594.133 557.504 587.922 537.851 587.922 511.791C587.922 485.73 594.133 466.078 602.37 466.078C610.607 466.078 616.818 485.73 616.818 511.791C616.818 537.851 610.607 557.504 602.37 557.504ZM602.37 467.961C596.326 467.961 589.803 484.719 589.803 511.791C589.803 538.864 596.326 555.621 602.37 555.621C608.413 555.621 614.937 538.864 614.937 511.791C614.937 484.719 608.413 467.961 602.37 467.961Z" fill="#3F3D56"/>
<path d="M603.906 522.074C606.788 522.074 609.125 517.47 609.125 511.791C609.125 506.112 606.788 501.508 603.906 501.508C601.024 501.508 598.688 506.112 598.688 511.791C598.688 517.47 601.024 522.074 603.906 522.074Z" fill="#CACACA"/>
<path d="M683.105 589.89C660.751 589.89 642.564 554.731 642.564 511.514C642.51 499.576 643.973 487.679 646.915 476.11C647.359 474.417 647.828 472.777 648.31 471.232C655.698 447.379 668.706 433.138 683.105 433.138C705.46 433.138 723.647 468.297 723.647 511.514C723.647 554.731 705.46 589.89 683.105 589.89ZM683.105 435.021C669.776 435.021 657.132 449.111 650.107 471.791C649.632 473.312 649.172 474.923 648.737 476.582C645.834 487.995 644.392 499.732 644.445 511.509C644.445 553.693 661.788 588.007 683.106 588.007C704.423 588.007 721.766 553.693 721.766 511.514C721.766 469.335 704.423 435.021 683.105 435.021Z" fill="#3F3D56"/>
<path d="M692.624 557.226C684.387 557.226 678.176 537.574 678.176 511.514C678.176 485.453 684.387 465.801 692.624 465.801C700.861 465.801 707.072 485.453 707.072 511.514C707.072 537.574 700.861 557.226 692.624 557.226ZM692.624 467.685C686.58 467.685 680.057 484.442 680.057 511.514C680.057 538.586 686.58 555.343 692.624 555.343C698.667 555.343 705.19 538.586 705.19 511.514C705.19 484.442 698.667 467.685 692.624 467.685Z" fill="#3F3D56"/>
<path d="M694.16 521.797C697.042 521.797 699.379 517.193 699.379 511.514C699.379 505.835 697.042 501.231 694.16 501.231C691.278 501.231 688.941 505.835 688.941 511.514C688.941 517.193 691.278 521.797 694.16 521.797Z" fill="#CACACA"/>
<path d="M773.959 590.275H415.542C415.293 590.275 415.054 590.176 414.877 590C414.701 589.823 414.602 589.583 414.602 589.334C414.602 589.084 414.701 588.844 414.877 588.668C415.054 588.491 415.293 588.392 415.542 588.392H773.959C774.209 588.392 774.448 588.491 774.624 588.668C774.801 588.844 774.9 589.084 774.9 589.334C774.9 589.583 774.801 589.823 774.624 590C774.448 590.176 774.209 590.275 773.959 590.275Z" fill="#CACACA"/>
<path d="M545.96 228.165C545.463 229.457 545.255 230.842 545.351 232.223C545.447 233.604 545.844 234.947 546.514 236.158C547.185 237.368 548.112 238.417 549.232 239.23C550.351 240.043 551.635 240.601 552.993 240.863L557.785 274.169L570.849 262.56L564.295 232.712C564.584 230.4 564.017 228.061 562.699 226.14C561.381 224.218 559.405 222.847 557.145 222.287C554.885 221.726 552.498 222.015 550.437 223.098C548.375 224.182 546.782 225.984 545.96 228.165Z" fill="#9E616A"/>
<path d="M592.547 359.102L676.661 358.795V391.965L592.547 395.362V359.102Z" fill="#3F3D56"/>
<path d="M573.376 586.731L561.961 585.082L562.882 540.225L579.729 542.659L573.376 586.731Z" fill="#9E616A"/>
<path d="M574.689 598.226L537.883 592.91L537.95 592.444C538.498 588.641 540.533 585.211 543.608 582.91C546.682 580.609 550.543 579.624 554.343 580.173L576.824 583.42L574.689 598.226Z" fill="#2F2E41"/>
<path d="M520.709 471.602L519.484 471.534L523.199 403.966H599.299V405.195H524.362L520.709 471.602Z" fill="#3F3D56"/>
<path d="M528.743 590.07L528.539 591.283L580.174 600L580.378 598.788L528.743 590.07Z" fill="#3F3D56"/>
<path d="M650.413 471.666C649.952 473.147 649.519 474.659 649.111 476.201L647.828 476.342L607.896 480.786L516.414 471.567L611.579 466.651L649.21 471.512L650.413 471.666Z" fill="#3F3D56"/>
<path d="M629.493 243.859C629.493 243.859 616.195 239.616 607.647 256.591C599.098 273.567 585.801 292.24 585.801 292.24L593.399 293.937C593.399 293.937 595.299 282.054 600.048 280.357L598.149 295.635C598.149 295.635 655.138 313.459 680.783 293.937L679.833 287.996C679.833 287.996 683.633 288.845 683.633 293.937L686.482 291.391C686.482 291.391 683.633 286.298 675.084 279.508C669.473 275.051 667.545 266.572 666.883 261.271C666.343 256.753 664.347 252.534 661.197 249.253C655.516 243.37 645.165 237.116 629.493 243.859Z" fill="#2F2E41"/>
<path d="M581.065 429.031L579.21 435.646C579.21 435.646 541.828 426.57 536.959 450.037C532.089 473.504 525.41 546.134 525.41 546.134L544.286 550.01L562.212 470.835L634.818 454.981L630.064 413.966L581.065 429.031Z" fill="#2F2E41"/>
<path d="M612.501 439.917C612.501 439.917 562.156 429.47 558.472 454.667C554.788 479.864 560.314 527.8 560.928 529.029C561.542 530.258 558.472 552.997 558.472 552.997L580.575 556.069C580.575 556.069 594.696 489.082 588.556 471.874L630.097 469.302C644.437 468.414 656.152 457.076 656.976 442.719C657.292 437.223 655.917 432.235 651.181 429.47C636.446 420.866 609.431 420.866 609.431 420.866L612.501 439.917Z" fill="#2F2E41"/>
<path d="M636.447 305.17C648.654 305.17 658.55 295.265 658.55 283.046C658.55 270.827 648.654 260.921 636.447 260.921C624.24 260.921 614.344 270.827 614.344 283.046C614.344 295.265 624.24 305.17 636.447 305.17Z" fill="#A0616A"/>
<path d="M615.571 318.155L601.45 316.39L591.068 340.924C591.068 340.924 576.584 431.006 580.268 432.236C582.335 432.966 584.526 433.279 586.715 433.157L656.416 436.789C656.416 436.789 659.525 422.754 658.297 412.307C657.069 401.859 671.442 344.661 671.442 344.661L668.68 318.542L656.919 318.325L648.452 311.734L624.89 311.66L615.571 318.155Z" fill="#E4E4E4"/>
<path d="M602.063 319.464L601.45 315.776L584.258 294.881L566.609 236.403L549.676 254.294L567.681 311.474L592.24 342.817L602.063 319.464Z" fill="#E4E4E4"/>
<path d="M607.407 285.691C607.407 285.691 615.005 275.233 621.654 273.332C628.303 271.43 629.253 261.923 629.253 261.923C629.253 261.923 646.35 280.938 656.798 281.888C667.246 282.839 657.748 259.071 657.748 259.071L638.751 254.317L620.704 256.218L606.457 265.726L607.407 285.691Z" fill="#2F2E41"/>
<path d="M678.503 435.33L677.908 410.111H620.772L618.946 477.73L617.719 477.697L619.577 408.882H679.096L679.115 409.476L679.73 435.287L678.503 435.33Z" fill="#3F3D56"/>
<path d="M677.275 400.893H676.047V353.983L695.866 359.742L695.523 360.922L677.275 355.619V400.893Z" fill="#3F3D56"/>
<path d="M685.871 352.958L698.765 357.874L696.308 364.634L685.871 360.331V352.958Z" fill="#3F3D56"/>
<path d="M634.91 405.81V415.642H671.49V406.463L634.91 405.81Z" fill="#3F3D56"/>
<path d="M540.973 400.893V410.726H577.554V401.546L540.973 400.893Z" fill="#3F3D56"/>
<path d="M607.896 377.034H607.597V368.85C607.597 367.594 607.099 366.389 606.211 365.501C605.324 364.613 604.12 364.114 602.865 364.114H585.544C584.289 364.114 583.086 364.613 582.198 365.501C581.311 366.389 580.812 367.594 580.812 368.85V413.746C580.813 415.002 581.311 416.207 582.198 417.095C583.086 417.983 584.289 418.482 585.544 418.482H602.866C604.121 418.482 605.324 417.983 606.211 417.095C607.099 416.207 607.597 415.002 607.597 413.746V382.859H607.896L607.896 377.034Z" fill="#3F3D56"/>
<path opacity="0.15" d="M663.766 349.27L661.924 384.3L634.91 389.831L659.469 379.997L663.766 349.27Z" fill="black"/>
<path d="M553.27 224.8V150.687H769.637V205.494H572.556L553.27 224.8Z" fill="white"/>
<path d="M553.27 224.8V150.687H769.637V205.494H572.556L553.27 224.8ZM555.151 152.57V220.254L571.777 203.611H767.755V152.57L555.151 152.57Z" fill="#3F3D56"/>
<path d="M722.726 164.478H602.062V174.271H722.726V164.478Z" fill="#CE8585"/>
<path d="M722.726 179.168H602.062V188.961H722.726V179.168Z" fill="#CE8585"/>
<path d="M599.838 411.073C601.055 411.732 602.401 412.115 603.781 412.197C605.162 412.278 606.543 412.056 607.829 411.545C609.114 411.034 610.272 410.247 611.22 409.24C612.169 408.233 612.886 407.03 613.32 405.715L646.933 405.216L637.101 390.763L606.688 393.453C604.434 392.869 602.044 393.134 599.972 394.196C597.9 395.259 596.289 397.045 595.444 399.217C594.6 401.389 594.581 403.796 595.391 405.981C596.2 408.166 597.783 409.978 599.838 411.073Z" fill="#9E616A"/>
<path d="M661.926 322.843L667.452 318.541C667.452 318.541 676.661 313.625 678.503 330.832C680.345 348.04 693.852 405.195 680.345 405.809C666.838 406.424 616.467 407.78 616.467 407.78L614.586 390.831L664.382 386.143L661.926 322.843Z" fill="#E4E4E4"/>
</g>
<defs>
<clipPath id="clip0_335_175">
<rect width="648" height="569" fill="white" transform="translate(126.898 31)"/>
</clipPath>
</defs>
</svg>
