<svg width="900" height="600" viewBox="0 0 900 600" fill="none" xmlns="http://www.w3.org/2000/svg">
<g clip-path="url(#clip0_342_510)">
<path d="M683.031 341.969C691.991 351.331 701.986 352.825 713.018 346.451C708.389 339.059 707.287 331.019 708.52 322.549H687.03C687.982 329.992 687.726 336.922 683.031 341.969Z" fill="#FFB8B8"/>
<path d="M718.515 586.962L730.011 580.987L735.008 517.747V484.384L708.52 483.886L716.016 517.249L718.515 586.962Z" fill="#FFB8B8"/>
<path d="M685.195 586.962L673.701 580.987L668.703 517.747V484.384L695.191 483.886L687.694 517.249L685.195 586.962Z" fill="#FFB8B8"/>
<path d="M667.538 491.355L695.525 488.865L700.024 463.47L705.521 488.367L736.008 486.375C736.674 474.276 734.982 461.824 731.01 449.029L664.039 447.535L667.538 491.355Z" fill="#2F2E41"/>
<path d="M638.447 395.981L604.781 370.151C604.431 369.883 604.047 369.663 603.638 369.498L598.745 367.514C594.815 365.921 587.329 360.622 590.98 355.165C593.923 350.766 605.191 358.647 606.577 361.567C607.015 362.485 607.734 363.243 608.63 363.73L615.471 367.465C615.638 367.556 615.809 367.637 615.985 367.708L642.033 378.228C642.755 378.519 643.537 378.635 644.313 378.565C645.089 378.495 645.837 378.242 646.495 377.826L651.217 374.843C651.889 374.419 652.655 374.164 653.448 374.1C654.241 374.037 655.038 374.167 655.769 374.479C656.5 374.792 657.144 375.277 657.645 375.893C658.145 376.509 658.488 377.237 658.642 378.015L660.203 385.863C660.428 386.993 660.244 388.166 659.684 389.174C659.124 390.182 658.224 390.96 657.144 391.37L643.178 396.674C642.396 396.971 641.55 397.063 640.722 396.942C639.894 396.821 639.11 396.49 638.447 395.981Z" fill="#FFB8B8"/>
<path d="M644.703 377.162C654.024 374.672 653.046 387.646 660.157 394.026L674.139 383.028L666.04 343.961C663.868 344.58 661.869 345.693 660.202 347.214C658.536 348.735 657.247 350.62 656.437 352.723L644.703 377.162Z" fill="#F50057"/>
<path d="M662.039 450.025H732.509C721.104 419.404 722.214 387.911 731.925 355.817C732.088 355.285 732.059 354.712 731.844 354.198C731.628 353.684 731.24 353.261 730.745 353.002L710.518 342.468C702.578 347.615 694.045 346.033 685.029 338.982L663.039 344.957C669.025 380.779 669.195 415.866 662.039 450.025Z" fill="#F50057"/>
<path d="M679.662 598.657L650.295 599.898C649.016 599.952 647.762 599.532 646.775 598.721C645.788 597.909 645.137 596.762 644.948 595.501C644.756 594.227 645.05 592.928 645.77 591.859C646.49 590.789 647.585 590.026 648.841 589.72L653.822 588.503L673.4 577.197C676.3 580.19 680.294 582.72 685.177 584.875L685.234 592.824C685.245 594.326 684.67 595.774 683.63 596.862C682.591 597.95 681.168 598.594 679.662 598.657Z" fill="#2F2E41"/>
<path d="M774.707 599.999H125.234V598.4H774.998L774.707 599.999Z" fill="#3F3D56"/>
<path d="M723.806 598.213L753.174 599.454C754.453 599.508 755.706 599.088 756.693 598.277C757.68 597.465 758.331 596.318 758.521 595.057C758.712 593.783 758.419 592.484 757.699 591.415C756.978 590.345 755.883 589.583 754.628 589.276L749.646 588.059L730.069 576.753C727.168 579.746 723.174 582.276 718.292 584.431L718.235 592.38C718.224 593.882 718.799 595.33 719.838 596.418C720.877 597.506 722.3 598.15 723.806 598.213Z" fill="#2F2E41"/>
<path d="M695.524 331.513C704.357 331.513 711.517 324.378 711.517 315.578C711.517 306.778 704.357 299.644 695.524 299.644C686.692 299.644 679.531 306.778 679.531 315.578C679.531 324.378 686.692 331.513 695.524 331.513Z" fill="#FFB8B8"/>
<path d="M720.513 445.046L715.23 455.282C714.763 456.185 714.494 457.176 714.44 458.191C714.386 459.205 714.547 460.219 714.915 461.167C715.282 462.114 715.846 462.974 716.571 463.689C717.295 464.403 718.163 464.957 719.118 465.314C720.128 465.691 721.21 465.839 722.285 465.745C723.36 465.651 724.4 465.318 725.329 464.771C726.258 464.225 727.053 463.477 727.654 462.585C728.255 461.692 728.648 460.677 728.804 459.613L731.009 444.548L739.005 406.703L738.505 387.781H722.512C727.967 401.855 725.261 422.614 720.513 445.046Z" fill="#FFB8B8"/>
<path d="M720.016 389.773H741.506L738.387 366.291C737.964 363.106 736.747 360.078 734.848 357.482C732.948 354.886 730.426 352.806 727.512 351.431L720.016 389.773Z" fill="#F50057"/>
<path d="M712.528 306.801C712.847 304.672 712.713 302.501 712.134 300.427C711.555 298.354 710.543 296.425 709.166 294.767C706.438 291.55 701.864 288.917 694.276 290.159C677.72 292.869 672.946 306.601 674.568 310.055C676.19 313.508 681.161 321.513 681.161 321.513C681.161 321.513 677.513 313.589 681.473 311.976C685.433 310.363 700.759 304.008 706.108 306.871C707.622 307.629 708.908 308.772 709.834 310.186C710.76 311.599 711.294 313.232 711.381 314.918L712.528 306.801Z" fill="#2F2E41"/>
<path d="M438.795 240.484L432.365 243.735C424.958 229.205 415.146 216.023 403.341 204.743C345.365 149.211 252.855 151.027 197.119 208.79C141.384 266.552 143.206 358.724 201.181 414.255C212.216 424.845 224.857 433.636 238.639 440.303L235.494 446.768C213.648 436.199 194.64 420.603 180.039 401.268C165.439 381.933 155.666 359.414 151.528 335.572C147.389 311.73 149.005 287.249 156.24 264.151C163.475 241.054 176.122 220.003 193.137 202.739C210.152 185.475 231.046 172.492 254.092 164.863C277.139 157.235 301.677 155.179 325.678 158.867C349.679 162.555 372.455 171.88 392.124 186.072C411.794 200.264 427.791 218.915 438.795 240.484Z" fill="#E6E6E6"/>
<path d="M221.249 374.138C211.79 383.94 206.628 397.084 206.897 410.679C207.165 424.273 212.844 437.205 222.682 446.628C232.52 456.051 245.712 461.195 259.357 460.927C273.001 460.659 285.98 455.002 295.438 445.2L304.297 436.019L230.107 364.957L221.249 374.138Z" fill="#E6E6E6"/>
<path d="M225.138 359.743C223.032 361.929 221.884 364.859 221.944 367.889C222.004 370.918 223.267 373.8 225.457 375.903L293.504 441.081C295.697 443.182 298.638 444.328 301.68 444.269C304.722 444.209 307.615 442.948 309.723 440.763C311.832 438.577 312.983 435.647 312.923 432.617C312.863 429.586 311.597 426.703 309.404 424.602L241.357 359.424C239.162 357.327 236.222 356.182 233.181 356.242C230.141 356.302 227.248 357.561 225.138 359.743Z" fill="#535461"/>
<path d="M429.229 306.545L438.088 297.364C447.546 287.562 452.708 274.418 452.439 260.823C452.171 247.229 446.493 234.298 436.654 224.874C431.783 220.208 426.037 216.544 419.744 214.09C413.452 211.637 406.735 210.442 399.979 210.575C386.335 210.843 373.356 216.5 363.898 226.302L355.039 235.483L429.229 306.545Z" fill="#E6E6E6"/>
<path d="M349.614 230.74C347.509 232.927 346.36 235.856 346.42 238.886C346.48 241.915 347.744 244.797 349.934 246.9L417.98 312.078C420.174 314.176 423.114 315.321 426.155 315.26C429.195 315.199 432.087 313.938 434.194 311.754C436.302 309.57 437.453 306.641 437.394 303.612C437.335 300.583 436.071 297.701 433.881 295.599L365.834 230.421C363.639 228.324 360.699 227.179 357.658 227.239C354.617 227.299 351.725 228.558 349.614 230.74Z" fill="#535461"/>
<path d="M378.316 381.365V376.069C378.316 376.069 401.51 363.071 420.354 376.069V380.883L378.316 381.365Z" fill="#535461"/>
<path d="M589.473 381.365V376.069C589.473 376.069 612.666 363.071 631.511 376.069V380.883L589.473 381.365Z" fill="#535461"/>
<path d="M447.899 380.883H425.188C425.188 380.883 419.39 374.143 400.062 374.625C380.735 375.106 376.869 380.883 376.869 380.883C376.869 380.883 357.783 393.641 353.434 409.528C353.434 409.528 329.999 479.575 329.516 534.457C329.033 589.34 350.293 597.042 361.407 598.487C372.52 599.931 392.331 598.005 411.659 549.381L419.873 520.977C419.873 520.977 421.323 504.128 438.718 514.719C456.113 525.31 471.575 508.942 471.575 508.942H536.806C536.806 508.942 558.55 522.422 578.361 511.83C578.361 511.83 586.092 501.72 593.34 535.902C593.34 535.902 615.567 606.189 649.874 598.968C684.181 591.747 680.315 533.013 680.315 533.013C680.315 533.013 675.725 443.228 656.88 411.454C656.88 411.454 638.76 378.476 626.68 377.032C626.68 377.032 600.588 372.218 590.441 376.55L584.643 381.365L447.899 380.883Z" fill="#E6E6E6"/>
<path d="M395.229 469.946C418.446 469.946 437.267 451.194 437.267 428.063C437.267 404.931 418.446 386.179 395.229 386.179C372.012 386.179 353.191 404.931 353.191 428.063C353.191 451.194 372.012 469.946 395.229 469.946Z" fill="#535461"/>
<path d="M614.6 469.946C637.817 469.946 656.638 451.194 656.638 428.063C656.638 404.931 637.817 386.179 614.6 386.179C591.384 386.179 572.562 404.931 572.562 428.063C572.562 451.194 591.384 469.946 614.6 469.946Z" fill="#535461"/>
<path d="M402.554 418.723L396.949 423.663C396.474 424.079 395.864 424.309 395.231 424.309C394.599 424.309 393.988 424.079 393.514 423.663L387.899 418.723C387.624 418.482 387.404 418.186 387.253 417.854C387.101 417.522 387.022 417.162 387.02 416.797V403.207C387.021 402.521 387.295 401.863 387.783 401.379C388.27 400.894 388.931 400.622 389.619 400.622H400.853C401.542 400.62 402.202 400.891 402.69 401.375C403.177 401.859 403.452 402.516 403.453 403.202V416.788C403.45 417.156 403.368 417.518 403.213 417.852C403.058 418.186 402.834 418.483 402.554 418.723Z" fill="#E6E6E6"/>
<path d="M402.554 437.397L396.949 432.463C396.474 432.047 395.864 431.817 395.231 431.817C394.599 431.817 393.988 432.047 393.514 432.463L387.899 437.402C387.624 437.643 387.404 437.94 387.253 438.271C387.101 438.603 387.022 438.963 387.02 439.328V452.904C387.018 453.59 387.29 454.248 387.776 454.734C388.262 455.219 388.921 455.493 389.609 455.494H400.853C401.542 455.496 402.202 455.224 402.69 454.74C403.177 454.256 403.452 453.599 403.453 452.914V439.333C403.45 438.965 403.368 438.602 403.213 438.269C403.058 437.935 402.834 437.638 402.554 437.397Z" fill="#E6E6E6"/>
<path d="M385.861 435.371L390.818 429.777C391.236 429.304 391.467 428.695 391.467 428.065C391.467 427.435 391.236 426.827 390.818 426.354L385.861 420.759C385.619 420.486 385.321 420.267 384.988 420.116C384.655 419.965 384.294 419.886 383.928 419.883H370.302C369.613 419.885 368.953 420.158 368.467 420.644C367.98 421.129 367.707 421.787 367.707 422.473V433.666C367.706 434.352 367.978 435.01 368.464 435.496C368.949 435.982 369.609 436.255 370.297 436.256H383.933C384.299 436.253 384.66 436.172 384.992 436.019C385.324 435.866 385.62 435.645 385.861 435.371Z" fill="#E6E6E6"/>
<path d="M404.606 435.371L399.658 429.772C399.239 429.299 399.008 428.691 399.008 428.06C399.008 427.43 399.239 426.821 399.658 426.349L404.615 420.755C404.857 420.481 405.155 420.262 405.488 420.111C405.821 419.959 406.182 419.88 406.548 419.878H420.174C420.862 419.877 421.523 420.148 422.01 420.632C422.498 421.116 422.773 421.773 422.774 422.459V433.662C422.775 434.347 422.503 435.005 422.017 435.491C421.532 435.977 420.872 436.25 420.184 436.252H406.553C406.184 436.251 405.82 436.172 405.484 436.02C405.148 435.868 404.849 435.647 404.606 435.371Z" fill="#E6E6E6"/>
<path d="M452.246 504.128C469.058 504.128 482.687 490.549 482.687 473.798C482.687 457.047 469.058 443.468 452.246 443.468C435.434 443.468 421.805 457.047 421.805 473.798C421.805 490.549 435.434 504.128 452.246 504.128Z" fill="#535461"/>
<path d="M557.582 504.128C574.394 504.128 588.023 490.549 588.023 473.798C588.023 457.047 574.394 443.468 557.582 443.468C540.77 443.468 527.141 457.047 527.141 473.798C527.141 490.549 540.77 504.128 557.582 504.128Z" fill="#535461"/>
<path d="M452.247 494.018C463.455 494.018 472.541 484.965 472.541 473.798C472.541 462.631 463.455 453.578 452.247 453.578C441.039 453.578 431.953 462.631 431.953 473.798C431.953 484.965 441.039 494.018 452.247 494.018Z" fill="#E6E6E6"/>
<path d="M452.247 487.759C449.476 487.759 446.766 486.94 444.462 485.406C442.158 483.872 440.362 481.692 439.301 479.14C438.24 476.589 437.963 473.782 438.504 471.074C439.044 468.366 440.379 465.878 442.339 463.926C444.298 461.973 446.795 460.643 449.513 460.105C452.231 459.566 455.049 459.842 457.609 460.899C460.17 461.956 462.358 463.745 463.898 466.041C465.438 468.337 466.26 471.036 466.26 473.798C466.255 477.499 464.778 481.048 462.151 483.665C459.524 486.283 455.962 487.755 452.247 487.759ZM452.247 460.799C449.667 460.799 447.144 461.562 444.999 462.99C442.854 464.418 441.181 466.448 440.194 468.823C439.206 471.199 438.948 473.812 439.451 476.334C439.955 478.855 441.197 481.171 443.022 482.989C444.846 484.807 447.171 486.045 449.702 486.546C452.233 487.048 454.856 486.791 457.24 485.807C459.624 484.823 461.661 483.157 463.095 481.019C464.528 478.882 465.293 476.369 465.293 473.798C465.289 470.352 463.914 467.048 461.468 464.611C459.022 462.174 455.706 460.803 452.247 460.799Z" fill="#535461"/>
<path d="M557.583 494.018C568.791 494.018 577.877 484.965 577.877 473.798C577.877 462.631 568.791 453.578 557.583 453.578C546.375 453.578 537.289 462.631 537.289 473.798C537.289 484.965 546.375 494.018 557.583 494.018Z" fill="#E6E6E6"/>
<path d="M557.583 487.759C554.812 487.759 552.102 486.94 549.798 485.406C547.494 483.872 545.698 481.692 544.637 479.14C543.576 476.589 543.299 473.782 543.84 471.074C544.38 468.366 545.715 465.878 547.675 463.926C549.634 461.973 552.131 460.643 554.849 460.105C557.567 459.566 560.385 459.842 562.945 460.899C565.506 461.956 567.694 463.745 569.234 466.041C570.774 468.337 571.596 471.036 571.596 473.798C571.591 477.499 570.114 481.048 567.487 483.665C564.86 486.282 561.298 487.755 557.583 487.759ZM557.583 460.799C555.003 460.799 552.48 461.562 550.335 462.99C548.189 464.418 546.517 466.448 545.53 468.823C544.542 471.199 544.284 473.812 544.787 476.334C545.291 478.855 546.533 481.171 548.358 482.989C550.182 484.807 552.507 486.045 555.038 486.546C557.568 487.048 560.192 486.791 562.576 485.807C564.959 484.823 566.997 483.157 568.431 481.019C569.864 478.882 570.629 476.369 570.629 473.798C570.625 470.352 569.249 467.048 566.804 464.611C564.358 462.174 561.042 460.803 557.583 460.799Z" fill="#535461"/>
<path d="M505.881 485.834C510.685 485.834 514.579 481.954 514.579 477.168C514.579 472.382 510.685 468.502 505.881 468.502C501.078 468.502 497.184 472.382 497.184 477.168C497.184 481.954 501.078 485.834 505.881 485.834Z" fill="#535461"/>
<path d="M492.59 450.136C493.639 450.136 494.489 449.289 494.489 448.244C494.489 447.199 493.639 446.352 492.59 446.352C491.542 446.352 490.691 447.199 490.691 448.244C490.691 449.289 491.542 450.136 492.59 450.136Z" fill="#535461"/>
<path d="M499.7 450.136C500.749 450.136 501.599 449.289 501.599 448.244C501.599 447.199 500.749 446.352 499.7 446.352C498.651 446.352 497.801 447.199 497.801 448.244C497.801 449.289 498.651 450.136 499.7 450.136Z" fill="#535461"/>
<path d="M498.754 459.115C499.803 459.115 500.653 458.267 500.653 457.223C500.653 456.178 499.803 455.331 498.754 455.331C497.706 455.331 496.855 456.178 496.855 457.223C496.855 458.267 497.706 459.115 498.754 459.115Z" fill="#535461"/>
<path d="M505.398 459.355C506.465 459.355 507.33 458.493 507.33 457.43C507.33 456.366 506.465 455.504 505.398 455.504C504.33 455.504 503.465 456.366 503.465 457.43C503.465 458.493 504.33 459.355 505.398 459.355Z" fill="#535461"/>
<path d="M512.032 459.115C513.081 459.115 513.931 458.267 513.931 457.223C513.931 456.178 513.081 455.331 512.032 455.331C510.983 455.331 510.133 456.178 510.133 457.223C510.133 458.267 510.983 459.115 512.032 459.115Z" fill="#535461"/>
<path d="M495.907 454.864C496.956 454.864 497.806 454.016 497.806 452.972C497.806 451.927 496.956 451.08 495.907 451.08C494.858 451.08 494.008 451.927 494.008 452.972C494.008 454.016 494.858 454.864 495.907 454.864Z" fill="#535461"/>
<path d="M502.015 455.022C503.082 455.022 503.948 454.16 503.948 453.097C503.948 452.033 503.082 451.171 502.015 451.171C500.947 451.171 500.082 452.033 500.082 453.097C500.082 454.16 500.947 455.022 502.015 455.022Z" fill="#535461"/>
<path d="M508.296 455.022C509.363 455.022 510.229 454.16 510.229 453.097C510.229 452.033 509.363 451.171 508.296 451.171C507.229 451.171 506.363 452.033 506.363 453.097C506.363 454.16 507.229 455.022 508.296 455.022Z" fill="#535461"/>
<path d="M514.879 454.864C515.928 454.864 516.778 454.016 516.778 452.972C516.778 451.927 515.928 451.08 514.879 451.08C513.831 451.08 512.98 451.927 512.98 452.972C512.98 454.016 513.831 454.864 514.879 454.864Z" fill="#535461"/>
<path d="M505.398 450.208C506.465 450.208 507.33 449.346 507.33 448.283C507.33 447.219 506.465 446.357 505.398 446.357C504.33 446.357 503.465 447.219 503.465 448.283C503.465 449.346 504.33 450.208 505.398 450.208Z" fill="#535461"/>
<path d="M512.163 450.208C513.231 450.208 514.096 449.346 514.096 448.283C514.096 447.219 513.231 446.357 512.163 446.357C511.096 446.357 510.23 447.219 510.23 448.283C510.23 449.346 511.096 450.208 512.163 450.208Z" fill="#535461"/>
<path d="M517.723 450.136C518.772 450.136 519.622 449.289 519.622 448.244C519.622 447.199 518.772 446.352 517.723 446.352C516.674 446.352 515.824 447.199 515.824 448.244C515.824 449.289 516.674 450.136 517.723 450.136Z" fill="#535461"/>
<path d="M433.645 384.986C432.751 384.987 431.894 385.341 431.262 385.971C430.63 386.601 430.274 387.455 430.273 388.345V398.455C430.274 399.346 430.63 400.2 431.262 400.829C431.894 401.459 432.751 401.813 433.645 401.814H436.061C436.955 401.813 437.811 401.459 438.443 400.829C439.075 400.2 439.431 399.346 439.432 398.455V388.345C439.431 387.455 439.075 386.601 438.443 385.971C437.811 385.341 436.955 384.987 436.061 384.986H433.645Z" fill="#535461"/>
<path d="M574.738 384.986C573.845 384.987 572.988 385.341 572.356 385.971C571.724 386.601 571.368 387.455 571.367 388.345V398.455C571.368 399.346 571.724 400.2 572.356 400.829C572.988 401.459 573.845 401.813 574.738 401.814H577.154C578.048 401.813 578.905 401.459 579.537 400.829C580.169 400.2 580.525 399.346 580.526 398.455V388.345C580.525 387.455 580.169 386.601 579.537 385.971C578.905 385.341 578.048 384.987 577.154 384.986H574.738Z" fill="#535461"/>
<path d="M615.085 414.101C621.49 414.101 626.682 408.929 626.682 402.547C626.682 396.166 621.49 390.993 615.085 390.993C608.68 390.993 603.488 396.166 603.488 402.547C603.488 408.929 608.68 414.101 615.085 414.101Z" fill="#E6E6E6"/>
<path d="M590.44 438.654C596.845 438.654 602.037 433.481 602.037 427.1C602.037 420.719 596.845 415.546 590.44 415.546C584.036 415.546 578.844 420.719 578.844 427.1C578.844 433.481 584.036 438.654 590.44 438.654Z" fill="#E6E6E6"/>
<path d="M640.694 437.21C647.099 437.21 652.291 432.037 652.291 425.656C652.291 419.275 647.099 414.102 640.694 414.102C634.29 414.102 629.098 419.275 629.098 425.656C629.098 432.037 634.29 437.21 640.694 437.21Z" fill="#E6E6E6"/>
<path d="M617.015 462.725C623.419 462.725 628.611 457.552 628.611 451.171C628.611 444.79 623.419 439.617 617.015 439.617C610.61 439.617 605.418 444.79 605.418 451.171C605.418 457.552 610.61 462.725 617.015 462.725Z" fill="#E6E6E6"/>
<path d="M455.508 378.247C452.917 378.25 450.433 379.276 448.6 381.102C446.768 382.928 445.737 385.403 445.734 387.984V431.072C445.737 433.653 446.768 436.128 448.6 437.954C450.433 439.78 452.917 440.806 455.508 440.809H554.804C557.395 440.806 559.88 439.78 561.712 437.954C563.544 436.128 564.575 433.653 564.578 431.072V387.984C564.575 385.403 563.544 382.928 561.712 381.102C559.88 379.276 557.395 378.25 554.804 378.247H455.508Z" fill="#535461"/>
<path d="M622.96 407.843H607.234L614.826 394.876L622.96 407.843ZM608.917 406.88H621.216L614.855 396.739L608.917 406.88Z" fill="#535461"/>
<path d="M596.964 432.877H583.918V421.323H596.964V432.877ZM584.884 431.914H595.998V422.286H584.884V431.914Z" fill="#535461"/>
<path d="M640.693 432.877C639.26 432.877 637.858 432.453 636.667 431.66C635.475 430.866 634.546 429.738 633.997 428.419C633.448 427.099 633.305 425.647 633.585 424.247C633.864 422.846 634.555 421.559 635.568 420.549C636.582 419.539 637.873 418.851 639.279 418.573C640.685 418.294 642.142 418.437 643.467 418.984C644.791 419.53 645.923 420.456 646.72 421.643C647.516 422.831 647.941 424.227 647.941 425.655C647.939 427.57 647.175 429.405 645.816 430.759C644.457 432.113 642.615 432.875 640.693 432.877ZM640.693 419.397C639.451 419.397 638.236 419.764 637.203 420.452C636.17 421.139 635.365 422.117 634.89 423.26C634.414 424.404 634.29 425.662 634.532 426.876C634.775 428.09 635.373 429.206 636.251 430.081C637.13 430.956 638.249 431.552 639.468 431.794C640.686 432.035 641.949 431.911 643.097 431.437C644.245 430.964 645.226 430.162 645.916 429.132C646.606 428.103 646.975 426.893 646.975 425.655C646.973 423.996 646.31 422.405 645.133 421.232C643.955 420.059 642.359 419.399 640.693 419.397Z" fill="#535461"/>
<path d="M611.8 445.414L611.117 446.095L621.989 456.927L622.672 456.246L611.8 445.414Z" fill="#535461"/>
<path d="M622.237 445.406L611.125 455.999L611.793 456.695L622.905 446.102L622.237 445.406Z" fill="#535461"/>
<path d="M227.71 268.237C201.327 275.484 172.438 280.939 162.086 272.476C167.754 263.075 171.023 253.809 171.3 244.712C171.362 240.549 173.054 236.576 176.015 233.639C177.976 231.752 180.342 230.335 182.934 229.496C185.526 228.657 188.276 228.417 190.975 228.795L197.822 229.753C198.052 229.785 198.282 229.821 198.51 229.862C201.796 230.483 204.805 232.113 207.114 234.524C209.423 236.935 210.916 240.006 211.384 243.306C212.827 253.171 217.677 261.711 227.71 268.237Z" fill="#2F2E41"/>
<path d="M253.158 361.826L263.415 363.933C264.198 364.094 264.936 364.427 265.574 364.907C266.212 365.388 266.735 366.004 267.105 366.71C267.474 367.417 267.681 368.197 267.71 368.994C267.74 369.79 267.591 370.583 267.274 371.315C266.968 372.022 266.513 372.655 265.939 373.172C265.366 373.688 264.688 374.076 263.951 374.308C263.214 374.54 262.435 374.611 261.668 374.517C260.901 374.423 260.163 374.165 259.505 373.762L243.816 364.148L217.168 301.733L230.97 297.755L253.158 361.826Z" fill="#A0616A"/>
<path d="M180.097 443.726L172.331 445.977L166.453 433.881L172.431 430.777L180.097 443.726Z" fill="#A0616A"/>
<path d="M176.15 495.551L166.621 493.038L168.113 476.728L176.313 477.231L176.15 495.551Z" fill="#A0616A"/>
<path d="M177.143 432.419L167.051 439.037L128.236 395.293C127.394 394.345 126.772 393.222 126.415 392.007C126.058 390.792 125.974 389.513 126.169 388.261C126.364 387.01 126.834 385.817 127.544 384.766C128.255 383.716 129.189 382.835 130.28 382.185L178.633 353.399L186.039 374.596L160.862 398.136L177.143 432.419Z" fill="#2F2E41"/>
<path d="M185.644 455.317C185.619 455.35 185.593 455.383 185.568 455.415C184.923 459.178 183.79 462.61 181.26 465.095C180.51 466.78 179.164 468.131 177.477 468.89C175.791 469.649 173.883 469.762 172.118 469.208C170.454 468.686 169.023 467.604 168.071 466.147C167.119 464.69 166.704 462.949 166.898 461.221L168.784 444.427C173.308 443.391 176.758 440.828 178.504 435.841L182.901 438.824C184.202 439.7 185.31 440.831 186.158 442.148C187.006 443.465 187.575 444.94 187.832 446.483C188.089 448.026 188.027 449.606 187.651 451.124C187.275 452.643 186.592 454.07 185.644 455.317Z" fill="#2F2E41"/>
<path d="M190.428 264.641C199.006 264.641 205.961 257.712 205.961 249.165C205.961 240.617 199.006 233.688 190.428 233.688C181.849 233.688 174.895 240.617 174.895 249.165C174.895 257.712 181.849 264.641 190.428 264.641Z" fill="#A0616A"/>
<path d="M203.879 273.905L179.392 294.111L177.484 285.794L181.759 279.302C182.945 272.933 182.179 265.91 180.141 258.46L196.117 258.475C196.807 264.495 199.159 269.747 203.879 273.905Z" fill="#A0616A"/>
<path d="M210.771 326.908L177.712 336.941L175.141 325.226C168.945 316.938 166.252 309.374 170.305 303.202L168.266 293.911C174.117 289.322 178.718 284.626 181.244 279.753L201.584 271.834L216.536 272.751L220.952 287.493L210.771 326.908Z" fill="#F50057"/>
<path d="M234.258 299.404C227.211 299.33 220.315 301.435 214.52 305.43L216.538 272.751C218.586 273.024 220.528 273.823 222.172 275.07C223.817 276.318 225.107 277.97 225.916 279.865L234.258 299.404Z" fill="#F50057"/>
<path d="M177.04 481.134L166.547 478.562L168.091 389.732L182.181 374.359L179.027 354.87L176.986 333.037L211.403 324.535C223.036 345.58 230.067 364.714 219.803 376.665L177.04 481.134Z" fill="#2F2E41"/>
<path d="M174.631 511.127C174.584 511.145 174.537 511.163 174.489 511.181C171.443 514.706 168.095 517.58 163.886 518.591C162.04 519.881 159.782 520.448 157.542 520.185C155.303 519.921 153.24 518.845 151.746 517.162C150.337 515.574 149.526 513.548 149.451 511.431C149.376 509.313 150.041 507.236 151.334 505.553L163.896 489.199C169.273 490.949 174.492 490.434 179.461 486.32L182.169 492.188C182.975 493.918 183.419 495.792 183.474 497.698C183.528 499.604 183.193 501.5 182.487 503.273C181.782 505.045 180.722 506.655 179.371 508.006C178.02 509.356 176.407 510.418 174.631 511.127Z" fill="#2F2E41"/>
<path d="M136.299 372.511L127.09 380.368C126.325 381.02 125.739 381.853 125.384 382.791C125.029 383.729 124.918 384.741 125.06 385.734C125.203 386.726 125.594 387.666 126.199 388.468C126.803 389.269 127.601 389.906 128.518 390.318C129.898 390.939 131.464 391.014 132.898 390.529C134.332 390.044 135.528 389.034 136.244 387.704L142.904 375.328L173.446 319.796L161.959 317.645L136.299 372.511Z" fill="#A0616A"/>
<path d="M175.286 321.356C169.32 319.562 163.732 318.505 159.398 319.899C160.307 308.699 162.179 298.693 168.266 293.912L176.918 294.924L175.286 321.356Z" fill="#F50057"/>
<path d="M207.769 245.576L174.547 243.54L174.956 236.919C186.553 229.128 197.627 229.807 208.178 238.956L207.769 245.576Z" fill="#2F2E41"/>
</g>
<defs>
<clipPath id="clip0_342_510">
<rect width="650" height="443" fill="white" transform="translate(125 157)"/>
</clipPath>
</defs>
</svg>
